G04 DesignSpark PCB PRO Gerber Version 10.0 Build 5299*
G04 #@! TF.Part,Single*
G04 #@! TF.FileFunction,Copper,L2,Bot*
G04 #@! TF.FilePolarity,Positive*
%FSLAX35Y35*%
%MOIN*%
G04 #@! TA.AperFunction,ComponentPad*
%ADD71R,0.06000X0.06000*%
%ADD23R,0.06201X0.06201*%
%ADD17R,0.06496X0.06496*%
%ADD21R,0.06693X0.06693*%
%ADD19R,0.08563X0.08563*%
G04 #@! TD.AperFunction*
%ADD10C,0.00500*%
%ADD11C,0.01000*%
%ADD14C,0.01500*%
G04 #@! TA.AperFunction,ViaPad*
%ADD12C,0.04800*%
G04 #@! TD.AperFunction*
%ADD15C,0.05000*%
G04 #@! TA.AperFunction,ViaPad*
%ADD13C,0.05600*%
G04 #@! TA.AperFunction,ComponentPad*
%ADD20C,0.06000*%
%ADD24C,0.06201*%
%ADD18C,0.06496*%
%ADD22C,0.06693*%
G04 #@! TD.AperFunction*
%ADD16C,0.07874*%
G04 #@! TA.AperFunction,ComponentPad*
%ADD70C,0.08563*%
G04 #@! TD.AperFunction*
X0Y0D02*
D02*
D10*
X72435Y80183D02*
Y31108D01*
X370191D01*
Y462711D01*
X72435D01*
Y413636D01*
G75*
G02*
X69935Y411136I-2500J0D01*
G01*
X20861D01*
Y82683D01*
X69935D01*
G75*
G02*
X72435Y80183I0J-2500D01*
G01*
X367695Y451952D02*
G75*
G02*
X369217Y448281I-3665J-3670D01*
G01*
Y235683D01*
G75*
G02*
X367780Y232100I-5187J0D01*
G01*
Y206549D01*
G75*
G02*
X366679Y203896I-3750J0D01*
G01*
X362353Y199569D01*
G75*
G02*
X359699Y198469I-2654J2650D01*
G01*
X349630D01*
Y197720D01*
X340634D01*
Y198469D01*
X336055D01*
X333921Y196335D01*
Y176189D01*
G75*
G02*
Y173130I-3750J-1530D01*
G01*
Y121116D01*
G75*
G02*
X332821Y118463I-3750J0D01*
G01*
X327313Y112955D01*
G75*
G02*
X324659Y111854I-2654J2650D01*
G01*
X317157D01*
X314630Y109327D01*
Y107291D01*
G75*
G02*
X314930Y105762I-3750J-1530D01*
G01*
G75*
G02*
X306830I-4050J0D01*
G01*
G75*
G02*
X307130Y107291I4050J0D01*
G01*
Y110880D01*
G75*
G02*
X308230Y113534I3750J0D01*
G01*
X312951Y118254D01*
G75*
G02*
X315604Y119354I2654J-2650D01*
G01*
X323106D01*
X326421Y122669D01*
Y173130D01*
G75*
G02*
Y176189I3750J1530D01*
G01*
Y197888D01*
G75*
G02*
X327522Y200542I3750J0D01*
G01*
X331848Y204868D01*
G75*
G02*
X334502Y205969I2654J-2650D01*
G01*
X340634D01*
Y206717D01*
X349630D01*
Y205969D01*
X358146D01*
X360280Y208102D01*
Y227031D01*
X345222D01*
G75*
G02*
X343749Y237219I-91J5187D01*
G01*
G75*
G02*
X339944Y242219I1383J5000D01*
G01*
G75*
G02*
X339945Y242309I5199J0D01*
G01*
Y242376D01*
G75*
G02*
X341467Y246046I5187J0D01*
G01*
X349787Y254367D01*
Y441802D01*
X348889Y442701D01*
X281532D01*
X275122Y436291D01*
Y244201D01*
G75*
G02*
X275148Y244135I-4800J-1975D01*
G01*
G75*
G02*
X275516Y242219I-4820J-1917D01*
G01*
Y140407D01*
G75*
G02*
X265142I-5187J0D01*
G01*
Y240236D01*
G75*
G02*
X264748Y242219I4793J1982D01*
G01*
Y438439D01*
G75*
G02*
X266270Y442109I5187J0D01*
G01*
X275714Y451553D01*
G75*
G02*
X275928Y451756I3673J-3665D01*
G01*
X219354D01*
Y450992D01*
G75*
G02*
X219654Y449463I-3750J-1530D01*
G01*
G75*
G02*
X211554I-4050J0D01*
G01*
G75*
G02*
X211854Y450992I4050J0D01*
G01*
Y451756D01*
X186470D01*
G75*
G02*
X182887Y453193I0J5187D01*
G01*
X182384D01*
G75*
G02*
X184295Y449463I-2685J-3730D01*
G01*
G75*
G02*
X175102I-4596J0D01*
G01*
G75*
G02*
X176382Y452645I4596J0D01*
G01*
G75*
G02*
X173478Y451756I-2904J4298D01*
G01*
X120722D01*
G75*
G02*
X117139Y453193I0J5187D01*
G01*
X114295D01*
Y444866D01*
X105102D01*
Y453193D01*
X103833D01*
G75*
G02*
X100250Y451756I-3583J3750D01*
G01*
X88225D01*
X83783Y447314D01*
Y410093D01*
G75*
G02*
X82262Y406422I-5187J0D01*
G01*
X77540Y401700D01*
G75*
G02*
X70289Y401618I-3668J3668D01*
G01*
X38087D01*
X34965Y398495D01*
Y358980D01*
X78596D01*
G75*
G02*
Y348606I0J-5187D01*
G01*
X34965D01*
Y271296D01*
X36257Y270004D01*
X73478D01*
G75*
G02*
X77148Y268482I0J-5187D01*
G01*
X81081Y264550D01*
G75*
G02*
X82602Y260880I-3665J-3670D01*
G01*
Y254367D01*
X83107Y253862D01*
X154574D01*
G75*
G02*
X158248Y252343I7J-5187D01*
G01*
X161004Y249587D01*
G75*
G02*
X162524Y245919I-3668J-3668D01*
G01*
G75*
G02*
Y245918I-2734J-1D01*
G01*
G75*
G02*
Y245913I-2962J-2D01*
G01*
Y117573D01*
G75*
G02*
X152150I-5187J0D01*
G01*
Y243488D01*
X82602D01*
Y98281D01*
G75*
G02*
X72228I-5187J0D01*
G01*
Y258731D01*
X71330Y259630D01*
X34108D01*
G75*
G02*
X30438Y261152I0J5187D01*
G01*
X26112Y265478D01*
G75*
G02*
X24591Y269148I3665J3670D01*
G01*
Y400644D01*
G75*
G02*
X26112Y404314I5187J0D01*
G01*
X30834Y409036D01*
G75*
G02*
X38085Y409118I3668J-3668D01*
G01*
X70287D01*
X73409Y412241D01*
Y449463D01*
G75*
G02*
X74931Y453133I5187J0D01*
G01*
X82407Y460608D01*
G75*
G02*
X86077Y462130I3670J-3665D01*
G01*
X100250D01*
G75*
G02*
X103833Y460693I0J-5187D01*
G01*
X117139D01*
G75*
G02*
X120722Y462130I3583J-3750D01*
G01*
X173478D01*
G75*
G02*
X177062Y460693I0J-5187D01*
G01*
X182887D01*
G75*
G02*
X186470Y462130I3583J-3750D01*
G01*
X355368D01*
G75*
G02*
X359038Y460608I0J-5187D01*
G01*
X367695Y451952D01*
X343057Y173915D02*
G75*
G02*
X350357I3650J0D01*
G01*
G75*
G02*
X343057I-3650J0D01*
G01*
X335576Y117573D02*
G75*
G02*
X342876I3650J0D01*
G01*
G75*
G02*
X335576I-3650J0D01*
G01*
X324713Y69744D02*
G75*
G02*
X345461I10374J0D01*
G01*
G75*
G02*
X324713I-10374J0D01*
G01*
X307224Y41982D02*
G75*
G02*
X315324I4050J0D01*
G01*
G75*
G02*
X307224I-4050J0D01*
G01*
X340634Y222219D02*
G75*
G02*
X349630I4498J0D01*
G01*
G75*
G02*
X340634I-4498J0D01*
G01*
X311669Y296520D02*
G75*
G02*
X318528Y292691I2361J-3829D01*
G01*
G75*
G02*
X311431Y289020I-4498J0D01*
G01*
X309677D01*
X307150Y286492D01*
Y260858D01*
X312350Y255657D01*
G75*
G02*
X307047Y250354I-2652J-2652D01*
G01*
X300750Y256652D01*
G75*
G02*
X299650Y259305I2650J2654D01*
G01*
Y288045D01*
G75*
G02*
X300750Y290699I3750J0D01*
G01*
X305470Y295419D01*
G75*
G02*
X308124Y296520I2654J-2650D01*
G01*
X311669D01*
X316672Y241982D02*
G75*
G02*
X324772I4050J0D01*
G01*
G75*
G02*
X316672I-4050J0D01*
G01*
X309531Y302691D02*
G75*
G02*
X318528I4498J0D01*
G01*
G75*
G02*
X309531I-4498J0D01*
G01*
Y312691D02*
G75*
G02*
X318528I4498J0D01*
G01*
G75*
G02*
X309531I-4498J0D01*
G01*
Y322691D02*
G75*
G02*
X318528I4498J0D01*
G01*
G75*
G02*
X309531I-4498J0D01*
G01*
Y332691D02*
G75*
G02*
X318528I4498J0D01*
G01*
G75*
G02*
X309531I-4498J0D01*
G01*
Y342691D02*
G75*
G02*
X318528I4498J0D01*
G01*
G75*
G02*
X309531I-4498J0D01*
G01*
Y352691D02*
G75*
G02*
X318528I4498J0D01*
G01*
G75*
G02*
X309531I-4498J0D01*
G01*
Y362691D02*
G75*
G02*
X318528I4498J0D01*
G01*
G75*
G02*
X309531I-4498J0D01*
G01*
Y377189D02*
X318528D01*
Y368193D01*
X309531D01*
Y377189D01*
X324713Y424075D02*
G75*
G02*
X345461I10374J0D01*
G01*
G75*
G02*
X324713I-10374J0D01*
G01*
X341476Y403793D02*
G75*
G02*
X349576I4050J0D01*
G01*
G75*
G02*
X341476I-4050J0D01*
G01*
X268665Y79384D02*
G75*
G02*
X277661I4498J0D01*
G01*
G75*
G02*
X268665I-4498J0D01*
G01*
X238665D02*
G75*
G02*
X247661I4498J0D01*
G01*
G75*
G02*
X238665I-4498J0D01*
G01*
X245813Y428990D02*
G75*
G02*
X253113I3650J0D01*
G01*
G75*
G02*
X245813I-3650J0D01*
G01*
X247387Y391982D02*
G75*
G02*
X254687I3650J0D01*
G01*
G75*
G02*
X247387I-3650J0D01*
G01*
X248665Y79384D02*
G75*
G02*
X257661I4498J0D01*
G01*
G75*
G02*
X248665I-4498J0D01*
G01*
X252112Y279778D02*
G75*
G02*
X259412I3650J0D01*
G01*
G75*
G02*
X252112I-3650J0D01*
G01*
X252506Y204581D02*
G75*
G02*
X259806I3650J0D01*
G01*
G75*
G02*
X252506I-3650J0D01*
G01*
X252899Y167179D02*
G75*
G02*
X260199I3650J0D01*
G01*
G75*
G02*
X252899I-3650J0D01*
G01*
X254868Y132140D02*
G75*
G02*
X262168I3650J0D01*
G01*
G75*
G02*
X254868I-3650J0D01*
G01*
X258665Y79384D02*
G75*
G02*
X267661I4498J0D01*
G01*
G75*
G02*
X258665I-4498J0D01*
G01*
X252899Y242376D02*
G75*
G02*
X260199I3650J0D01*
G01*
G75*
G02*
X252899I-3650J0D01*
G01*
X253293Y317179D02*
G75*
G02*
X260593I3650J0D01*
G01*
G75*
G02*
X253293I-3650J0D01*
G01*
X253687Y354581D02*
G75*
G02*
X260987I3650J0D01*
G01*
G75*
G02*
X253687I-3650J0D01*
G01*
X191354Y439226D02*
G75*
G02*
X199854I4250J0D01*
G01*
G75*
G02*
X191354I-4250J0D01*
G01*
X201354D02*
G75*
G02*
X209854I4250J0D01*
G01*
G75*
G02*
X201354I-4250J0D01*
G01*
X211354Y443476D02*
X219854D01*
Y434976D01*
X211354D01*
Y443476D01*
X223819Y426213D02*
G75*
G02*
X230672Y424463I3203J-1750D01*
G01*
G75*
G02*
X223819Y422713I-3650J0D01*
G01*
X207736D01*
G75*
G02*
X209018Y419935I-2368J-2778D01*
G01*
G75*
G02*
X201718I-3650J0D01*
G01*
G75*
G02*
X203000Y422713I3650J0D01*
G01*
X182949D01*
G75*
G02*
X184295Y419463I-3250J-3250D01*
G01*
G75*
G02*
X175102I-4596J0D01*
G01*
G75*
G02*
X176448Y422713I4596J0D01*
G01*
X170579D01*
G75*
G02*
X163726Y424463I-3203J1750D01*
G01*
G75*
G02*
X170579Y426213I3650J0D01*
G01*
X176448D01*
G75*
G02*
X175102Y429463I3250J3250D01*
G01*
G75*
G02*
X184295I4596J0D01*
G01*
G75*
G02*
X182949Y426213I-4596J0D01*
G01*
X223819D01*
X228665Y79384D02*
G75*
G02*
X237661I4498J0D01*
G01*
G75*
G02*
X228665I-4498J0D01*
G01*
X217466Y146313D02*
G75*
G02*
X224766I3650J0D01*
G01*
G75*
G02*
X217466I-3650J0D01*
G01*
X218665Y79384D02*
G75*
G02*
X227661I4498J0D01*
G01*
G75*
G02*
X218665I-4498J0D01*
G01*
X175102Y259463D02*
G75*
G02*
X184295I4596J0D01*
G01*
G75*
G02*
X175102I-4596J0D01*
G01*
X192376Y135730D02*
G75*
G02*
X199669Y134502I3543J-1228D01*
G01*
Y107337D01*
G75*
G02*
X192169I-3750J0D01*
G01*
Y111924D01*
G75*
G02*
X185083Y113636I-3337J1711D01*
G01*
Y119945D01*
G75*
G02*
X177602Y120329I-3730J384D01*
G01*
Y134502D01*
G75*
G02*
X185093Y134774I3750J0D01*
G01*
G75*
G02*
X192376Y135730I3740J-272D01*
G01*
X198665Y79384D02*
G75*
G02*
X207661I4498J0D01*
G01*
G75*
G02*
X198665I-4498J0D01*
G01*
X188665Y83882D02*
X197661D01*
Y74886D01*
X188665D01*
Y83882D01*
X175102Y269463D02*
G75*
G02*
X184295I4596J0D01*
G01*
G75*
G02*
X175102I-4596J0D01*
G01*
Y279463D02*
G75*
G02*
X184295I4596J0D01*
G01*
G75*
G02*
X175102I-4596J0D01*
G01*
Y289463D02*
G75*
G02*
X184295I4596J0D01*
G01*
G75*
G02*
X175102I-4596J0D01*
G01*
Y299463D02*
G75*
G02*
X184295I4596J0D01*
G01*
G75*
G02*
X175102I-4596J0D01*
G01*
Y309463D02*
G75*
G02*
X184295I4596J0D01*
G01*
G75*
G02*
X175102I-4596J0D01*
G01*
Y319463D02*
G75*
G02*
X184295I4596J0D01*
G01*
G75*
G02*
X175102I-4596J0D01*
G01*
Y329463D02*
G75*
G02*
X184295I4596J0D01*
G01*
G75*
G02*
X175102I-4596J0D01*
G01*
Y339463D02*
G75*
G02*
X184295I4596J0D01*
G01*
G75*
G02*
X175102I-4596J0D01*
G01*
Y349463D02*
G75*
G02*
X184295I4596J0D01*
G01*
G75*
G02*
X175102I-4596J0D01*
G01*
Y359463D02*
G75*
G02*
X184295I4596J0D01*
G01*
G75*
G02*
X175102I-4596J0D01*
G01*
Y369463D02*
G75*
G02*
X184295I4596J0D01*
G01*
G75*
G02*
X175102I-4596J0D01*
G01*
Y379463D02*
G75*
G02*
X184295I4596J0D01*
G01*
G75*
G02*
X175102I-4596J0D01*
G01*
X208220Y340439D02*
G75*
G02*
X214924Y338439I3053J-2000D01*
G01*
G75*
G02*
X208220Y336439I-3650J0D01*
G01*
X195132D01*
G75*
G02*
X193716Y337026I0J2000D01*
G01*
X190176Y340567D01*
G75*
G02*
X189589Y341982I1413J1416D01*
G01*
Y386430D01*
X188556Y387463D01*
X183837D01*
G75*
G02*
X175102Y389463I-4139J2000D01*
G01*
G75*
G02*
X183837Y391463I4596J0D01*
G01*
X189384D01*
G75*
G02*
X190800Y390875I0J-2000D01*
G01*
X193001Y388674D01*
G75*
G02*
X193589Y387258I-1413J-1416D01*
G01*
Y342811D01*
X195960Y340439D01*
X208220D01*
X208665Y79384D02*
G75*
G02*
X217661I4498J0D01*
G01*
G75*
G02*
X208665I-4498J0D01*
G01*
X175102Y399463D02*
G75*
G02*
X184295I4596J0D01*
G01*
G75*
G02*
X175102I-4596J0D01*
G01*
X207150Y383734D02*
X207750D01*
Y375033D01*
X199049D01*
Y383734D01*
X199650D01*
Y401846D01*
X195783Y405713D01*
X182357D01*
G75*
G02*
X175102Y409463I-2658J3750D01*
G01*
G75*
G02*
X182357Y413213I4596J0D01*
G01*
X197337D01*
G75*
G02*
X199991Y412112I0J-3750D01*
G01*
X206049Y406054D01*
G75*
G02*
X207150Y403400I-2650J-2654D01*
G01*
Y383734D01*
X199049Y349384D02*
G75*
G02*
X207750I4350J0D01*
G01*
G75*
G02*
X199049I-4350J0D01*
G01*
Y359384D02*
G75*
G02*
X207750I4350J0D01*
G01*
G75*
G02*
X199049I-4350J0D01*
G01*
Y369384D02*
G75*
G02*
X207750I4350J0D01*
G01*
G75*
G02*
X199049I-4350J0D01*
G01*
X175102Y439463D02*
G75*
G02*
X184295I4596J0D01*
G01*
G75*
G02*
X175102I-4596J0D01*
G01*
X127863Y424075D02*
G75*
G02*
X148611I10374J0D01*
G01*
G75*
G02*
X127863I-10374J0D01*
G01*
X105102Y259463D02*
G75*
G02*
X114295I4596J0D01*
G01*
G75*
G02*
X105102I-4596J0D01*
G01*
Y269463D02*
G75*
G02*
X114295I4596J0D01*
G01*
G75*
G02*
X105102I-4596J0D01*
G01*
Y279463D02*
G75*
G02*
X114295I4596J0D01*
G01*
G75*
G02*
X105102I-4596J0D01*
G01*
Y289463D02*
G75*
G02*
X114295I4596J0D01*
G01*
G75*
G02*
X105102I-4596J0D01*
G01*
Y299463D02*
G75*
G02*
X114295I4596J0D01*
G01*
G75*
G02*
X105102I-4596J0D01*
G01*
Y309463D02*
G75*
G02*
X114295I4596J0D01*
G01*
G75*
G02*
X105102I-4596J0D01*
G01*
Y319463D02*
G75*
G02*
X114295I4596J0D01*
G01*
G75*
G02*
X105102I-4596J0D01*
G01*
Y329463D02*
G75*
G02*
X114295I4596J0D01*
G01*
G75*
G02*
X105102I-4596J0D01*
G01*
Y339463D02*
G75*
G02*
X114295I4596J0D01*
G01*
G75*
G02*
X105102I-4596J0D01*
G01*
Y349463D02*
G75*
G02*
X114295I4596J0D01*
G01*
G75*
G02*
X105102I-4596J0D01*
G01*
Y359463D02*
G75*
G02*
X114295I4596J0D01*
G01*
G75*
G02*
X105102I-4596J0D01*
G01*
Y369463D02*
G75*
G02*
X114295I4596J0D01*
G01*
G75*
G02*
X105102I-4596J0D01*
G01*
Y379463D02*
G75*
G02*
X114295I4596J0D01*
G01*
G75*
G02*
X105102I-4596J0D01*
G01*
Y389463D02*
G75*
G02*
X114295I4596J0D01*
G01*
G75*
G02*
X105102I-4596J0D01*
G01*
Y399463D02*
G75*
G02*
X114295I4596J0D01*
G01*
G75*
G02*
X105102I-4596J0D01*
G01*
Y409463D02*
G75*
G02*
X114295I4596J0D01*
G01*
G75*
G02*
X105102I-4596J0D01*
G01*
Y419463D02*
G75*
G02*
X114295I4596J0D01*
G01*
G75*
G02*
X105102I-4596J0D01*
G01*
Y429463D02*
G75*
G02*
X114295I4596J0D01*
G01*
G75*
G02*
X105102I-4596J0D01*
G01*
Y439463D02*
G75*
G02*
X114295I4596J0D01*
G01*
G75*
G02*
X105102I-4596J0D01*
G01*
X39600Y391608D02*
X50663D01*
Y380545D01*
X39600D01*
Y391608D01*
X80458Y345919D02*
G75*
G02*
X87758I3650J0D01*
G01*
G75*
G02*
X80458I-3650J0D01*
G01*
X89120Y315652D02*
G75*
G02*
X96420Y315604I3650J-48D01*
G01*
G75*
G02*
X94770Y312551I-3650J0D01*
G01*
Y297888D01*
G75*
G02*
X94182Y296472I-2000J0D01*
G01*
X89504Y291794D01*
G75*
G02*
X88089Y291207I-1416J1413D01*
G01*
X85193D01*
G75*
G02*
X78490Y293207I-3053J2000D01*
G01*
G75*
G02*
X85193Y295207I3650J0D01*
G01*
X87260D01*
X90770Y298716D01*
Y312551D01*
G75*
G02*
X89333Y314376I2000J3054D01*
G01*
G75*
G02*
X82033Y314423I-3650J48D01*
G01*
G75*
G02*
X89120Y315652I3650J0D01*
G01*
X84789Y330171D02*
G75*
G02*
X92089I3650J0D01*
G01*
G75*
G02*
X84789I-3650J0D01*
G01*
X37484Y303173D02*
X46480D01*
Y294177D01*
X37484D01*
Y303173D01*
Y308675D02*
G75*
G02*
X46480I4498J0D01*
G01*
G75*
G02*
X37484I-4498J0D01*
G01*
Y318675D02*
G75*
G02*
X46480I4498J0D01*
G01*
G75*
G02*
X37484I-4498J0D01*
G01*
Y328675D02*
G75*
G02*
X46480I4498J0D01*
G01*
G75*
G02*
X37484I-4498J0D01*
G01*
Y338675D02*
G75*
G02*
X46480I4498J0D01*
G01*
G75*
G02*
X37484I-4498J0D01*
G01*
X157835Y102114D02*
G75*
G02*
X163138Y96811I2652J-2652D01*
G01*
X155660Y89333D01*
G75*
G02*
X153006Y88232I-2654J2650D01*
G01*
X106156D01*
G75*
G02*
X104928Y95526I0J3750D01*
G01*
G75*
G02*
X104331Y102345I1228J3543D01*
G01*
G75*
G02*
X106549Y109118I2219J3023D01*
G01*
X119148D01*
G75*
G02*
X121898Y102819I0J-3750D01*
G01*
X127022D01*
G75*
G02*
X128733Y95732I0J-3750D01*
G01*
X151453D01*
X157835Y102114D01*
X127863Y69744D02*
G75*
G02*
X148611I10374J0D01*
G01*
G75*
G02*
X127863I-10374J0D01*
G01*
X147775Y41982D02*
G75*
G02*
X155875I4050J0D01*
G01*
G75*
G02*
X147775I-4050J0D01*
G01*
X139120Y107730D02*
G75*
G02*
X146420I3650J0D01*
G01*
G75*
G02*
X139120I-3650J0D01*
G01*
X139513Y144738D02*
G75*
G02*
X146813I3650J0D01*
G01*
G75*
G02*
X139513I-3650J0D01*
G01*
Y182533D02*
G75*
G02*
X146813I3650J0D01*
G01*
G75*
G02*
X139513I-3650J0D01*
G01*
X139907Y219935D02*
G75*
G02*
X147207I3650J0D01*
G01*
G75*
G02*
X139907I-3650J0D01*
G01*
X81639Y77022D02*
G75*
G02*
X88939I3650J0D01*
G01*
G75*
G02*
X81639I-3650J0D01*
G01*
X49123Y246909D02*
G75*
G02*
X69871I10374J0D01*
G01*
G75*
G02*
X49123I-10374J0D01*
G01*
X58411Y200644D02*
G75*
G02*
X65711I3650J0D01*
G01*
G75*
G02*
X58411I-3650J0D01*
G01*
X58805Y163242D02*
G75*
G02*
X66105I3650J0D01*
G01*
G75*
G02*
X58805I-3650J0D01*
G01*
X59592Y125447D02*
G75*
G02*
X66892I3650J0D01*
G01*
G75*
G02*
X59592I-3650J0D01*
G01*
X72435Y41982D02*
G36*
X72435Y41982D02*
Y31358D01*
X369941D01*
Y41982D01*
X315324D01*
G75*
G02*
X307224I-4050J0D01*
G01*
X155875D01*
G75*
G02*
X147775I-4050J0D01*
G01*
X72435D01*
G37*
Y69744D02*
G36*
X72435Y69744D02*
Y41982D01*
X147775D01*
G75*
G02*
X155875I4050J0D01*
G01*
X307224D01*
G75*
G02*
X315324I4050J0D01*
G01*
X369941D01*
Y69744D01*
X345461D01*
G75*
G02*
X324713I-10374J0D01*
G01*
X148611D01*
G75*
G02*
X127863I-10374J0D01*
G01*
X72435D01*
G37*
Y79384D02*
G36*
X72435Y79384D02*
Y69744D01*
X127863D01*
G75*
G02*
X134403Y79384I10374J0D01*
G01*
X88072D01*
G75*
G02*
X88939Y77022I-2783J-2362D01*
G01*
G75*
G02*
X81639I-3650J0D01*
G01*
G75*
G02*
X82507Y79384I3650J0D01*
G01*
X72435D01*
G37*
X142070D02*
G36*
X142070Y79384D02*
G75*
G02*
X148611Y69744I-3833J-9640D01*
G01*
X324713D01*
G75*
G02*
X331254Y79384I10374J0D01*
G01*
X277661D01*
G75*
G02*
X268665I-4498J0D01*
G01*
X267661D01*
G75*
G02*
X258665I-4498J0D01*
G01*
X257661D01*
G75*
G02*
X248665I-4498J0D01*
G01*
X247661D01*
G75*
G02*
X238665I-4498J0D01*
G01*
X237661D01*
G75*
G02*
X228665I-4498J0D01*
G01*
X227661D01*
G75*
G02*
X218665I-4498J0D01*
G01*
X217661D01*
G75*
G02*
X208665I-4498J0D01*
G01*
X207661D01*
G75*
G02*
X198665I-4498J0D01*
G01*
X197661D01*
Y74886D01*
X188665D01*
Y79384D01*
X142070D01*
G37*
X338920D02*
G36*
X338920Y79384D02*
G75*
G02*
X345461Y69744I-3833J-9640D01*
G01*
X369941D01*
Y79384D01*
X338920D01*
G37*
X21111Y98675D02*
G36*
X21111Y98675D02*
Y82683D01*
X69935D01*
G75*
G02*
X72435Y80183I0J-2500D01*
G01*
Y79384D01*
X82507D01*
G75*
G02*
X88072I2783J-2362D01*
G01*
X134403D01*
G75*
G02*
X142070I3833J-9640D01*
G01*
X188665D01*
Y83882D01*
X197661D01*
Y79384D01*
X198665D01*
G75*
G02*
X207661I4498J0D01*
G01*
X208665D01*
G75*
G02*
X217661I4498J0D01*
G01*
X218665D01*
G75*
G02*
X227661I4498J0D01*
G01*
X228665D01*
G75*
G02*
X237661I4498J0D01*
G01*
X238665D01*
G75*
G02*
X247661I4498J0D01*
G01*
X248665D01*
G75*
G02*
X257661I4498J0D01*
G01*
X258665D01*
G75*
G02*
X267661I4498J0D01*
G01*
X268665D01*
G75*
G02*
X277661I4498J0D01*
G01*
X331254D01*
G75*
G02*
X338920I3833J-9640D01*
G01*
X369941D01*
Y98675D01*
X164152D01*
G75*
G02*
X163138Y96811I-3666J787D01*
G01*
X155660Y89333D01*
G75*
G02*
X153006Y88232I-2653J2648D01*
G01*
X106156D01*
G75*
G02*
X102406Y91982I0J3750D01*
G01*
G75*
G02*
X104928Y95526I3750J0D01*
G01*
G75*
G02*
X102426Y98675I1228J3543D01*
G01*
X82602D01*
Y98281D01*
G75*
G02*
X72228I-5187J0D01*
G01*
Y98675D01*
X21111D01*
G37*
X130751D02*
G36*
X130751Y98675D02*
G75*
G02*
X128733Y95732I-3729J394D01*
G01*
X151453D01*
X154396Y98675D01*
X130751D01*
G37*
X21111Y107730D02*
G36*
X21111Y107730D02*
Y98675D01*
X72228D01*
Y107730D01*
X21111D01*
G37*
X82602D02*
G36*
X82602Y107730D02*
Y98675D01*
X102426D01*
G75*
G02*
X102406Y99069I3730J391D01*
G01*
G75*
G02*
X104331Y102345I3750J0D01*
G01*
G75*
G02*
X102799Y105368I2218J3023D01*
G01*
G75*
G02*
X103637Y107730I3750J0D01*
G01*
X82602D01*
G37*
X122898Y105368D02*
G36*
X122898Y105368D02*
G75*
G02*
X121898Y102819I-3750J0D01*
G01*
X127022D01*
G75*
G02*
X130772Y99069I0J-3750D01*
G01*
G75*
G02*
X130751Y98675I-3750J1D01*
G01*
X154396D01*
X157835Y102114D01*
G75*
G02*
X164236Y99463I2652J-2652D01*
G01*
G75*
G02*
X164152Y98675I-3750J1D01*
G01*
X369941D01*
Y107730D01*
X314630D01*
Y107291D01*
G75*
G02*
X314930Y105763I-3741J-1528D01*
G01*
G75*
G02*
Y105762I-4101J-1D01*
G01*
G75*
G02*
X306830I-4050J0D01*
G01*
G75*
G02*
Y105763I4101J0D01*
G01*
G75*
G02*
X307130Y107291I4045J0D01*
G01*
Y107730D01*
X199669D01*
Y107337D01*
G75*
G02*
X192169I-3750J0D01*
G01*
Y107730D01*
X146420D01*
G75*
G02*
X139120I-3650J0D01*
G01*
X122060D01*
G75*
G02*
X122898Y105368I-2912J-2363D01*
G01*
G37*
X21111Y117573D02*
G36*
X21111Y117573D02*
Y107730D01*
X72228D01*
Y117573D01*
X21111D01*
G37*
X82602D02*
G36*
X82602Y117573D02*
Y107730D01*
X103637D01*
G75*
G02*
X106549Y109118I2913J-2362D01*
G01*
X119148D01*
G75*
G02*
X122060Y107730I0J-3750D01*
G01*
X139120D01*
G75*
G02*
X146420I3650J0D01*
G01*
X192169D01*
Y111924D01*
G75*
G02*
X185083Y113636I-3337J1711D01*
G01*
Y117573D01*
X183896D01*
G75*
G02*
X178809I-2543J2756D01*
G01*
X162524D01*
G75*
G02*
X152150I-5187J0D01*
G01*
X82602D01*
G37*
X199669D02*
G36*
X199669Y117573D02*
Y107730D01*
X307130D01*
Y110880D01*
G75*
G02*
Y110881I4511J1D01*
G01*
G75*
G02*
X308230Y113534I3748J0D01*
G01*
X312270Y117573D01*
X199669D01*
G37*
X314630Y109327D02*
G36*
X314630Y109327D02*
Y107730D01*
X369941D01*
Y117573D01*
X342876D01*
G75*
G02*
X335576I-3650J0D01*
G01*
X331931D01*
X327313Y112955D01*
G75*
G02*
X324659Y111854I-2653J2648D01*
G01*
X317157D01*
X314630Y109327D01*
G37*
X21111Y125447D02*
G36*
X21111Y125447D02*
Y117573D01*
X72228D01*
Y125447D01*
X66892D01*
G75*
G02*
X59592I-3650J0D01*
G01*
X21111D01*
G37*
X82602D02*
G36*
X82602Y125447D02*
Y117573D01*
X152150D01*
Y125447D01*
X82602D01*
G37*
X162524D02*
G36*
X162524Y125447D02*
Y117573D01*
X178809D01*
G75*
G02*
X177602Y120328I2543J2756D01*
G01*
Y120329D01*
Y125447D01*
X162524D01*
G37*
X183896Y117573D02*
G36*
X183896Y117573D02*
X185083D01*
Y119945D01*
G75*
G02*
X183896Y117573I-3730J384D01*
G01*
G37*
X199669Y125447D02*
G36*
X199669Y125447D02*
Y117573D01*
X312270D01*
X312951Y118254D01*
G75*
G02*
X315604Y119354I2653J-2648D01*
G01*
X323106D01*
X326421Y122669D01*
Y125447D01*
X199669D01*
G37*
X332821Y118463D02*
G36*
X332821Y118463D02*
X331931Y117573D01*
X335576D01*
G75*
G02*
X342876I3650J0D01*
G01*
X369941D01*
Y125447D01*
X333921D01*
Y121116D01*
G75*
G02*
Y121115I-5013J0D01*
G01*
G75*
G02*
X332821Y118463I-3748J0D01*
G01*
G37*
X21111Y132140D02*
G36*
X21111Y132140D02*
Y125447D01*
X59592D01*
G75*
G02*
X66892I3650J0D01*
G01*
X72228D01*
Y132140D01*
X21111D01*
G37*
X82602D02*
G36*
X82602Y132140D02*
Y125447D01*
X152150D01*
Y132140D01*
X82602D01*
G37*
X162524D02*
G36*
X162524Y132140D02*
Y125447D01*
X177602D01*
Y132140D01*
X162524D01*
G37*
X199669D02*
G36*
X199669Y132140D02*
Y125447D01*
X326421D01*
Y132140D01*
X262168D01*
G75*
G02*
X254868I-3650J0D01*
G01*
X199669D01*
G37*
X333921D02*
G36*
X333921Y132140D02*
Y125447D01*
X369941D01*
Y132140D01*
X333921D01*
G37*
X21111Y146313D02*
G36*
X21111Y146313D02*
Y132140D01*
X72228D01*
Y146313D01*
X21111D01*
G37*
X82602D02*
G36*
X82602Y146313D02*
Y132140D01*
X152150D01*
Y146313D01*
X146456D01*
G75*
G02*
X146813Y144738I-3293J-1574D01*
G01*
G75*
G02*
X139513I-3650J0D01*
G01*
G75*
G02*
X139870Y146313I3650J0D01*
G01*
X82602D01*
G37*
X162524D02*
G36*
X162524Y146313D02*
Y132140D01*
X177602D01*
Y134502D01*
G75*
G02*
X185093Y134774I3750J0D01*
G01*
G75*
G02*
X192376Y135730I3740J-272D01*
G01*
G75*
G02*
X199669Y134502I3543J-1228D01*
G01*
Y132140D01*
X254868D01*
G75*
G02*
X262168I3650J0D01*
G01*
X326421D01*
Y146313D01*
X275516D01*
Y140407D01*
G75*
G02*
X265142I-5187J0D01*
G01*
Y146313D01*
X224766D01*
G75*
G02*
X217466I-3650J0D01*
G01*
X162524D01*
G37*
X333921D02*
G36*
X333921Y146313D02*
Y132140D01*
X369941D01*
Y146313D01*
X333921D01*
G37*
X21111Y163242D02*
G36*
X21111Y163242D02*
Y146313D01*
X72228D01*
Y163242D01*
X66105D01*
G75*
G02*
X58805I-3650J0D01*
G01*
X21111D01*
G37*
X82602D02*
G36*
X82602Y163242D02*
Y146313D01*
X139870D01*
G75*
G02*
X146456I3293J-1575D01*
G01*
X152150D01*
Y163242D01*
X82602D01*
G37*
X162524D02*
G36*
X162524Y163242D02*
Y146313D01*
X217466D01*
G75*
G02*
X224766I3650J0D01*
G01*
X265142D01*
Y163242D01*
X162524D01*
G37*
X275516D02*
G36*
X275516Y163242D02*
Y146313D01*
X326421D01*
Y163242D01*
X275516D01*
G37*
X333921D02*
G36*
X333921Y163242D02*
Y146313D01*
X369941D01*
Y163242D01*
X333921D01*
G37*
X21111Y167179D02*
G36*
X21111Y167179D02*
Y163242D01*
X58805D01*
G75*
G02*
X66105I3650J0D01*
G01*
X72228D01*
Y167179D01*
X21111D01*
G37*
X82602D02*
G36*
X82602Y167179D02*
Y163242D01*
X152150D01*
Y167179D01*
X82602D01*
G37*
X162524D02*
G36*
X162524Y167179D02*
Y163242D01*
X265142D01*
Y167179D01*
X260199D01*
G75*
G02*
X252899I-3650J0D01*
G01*
X162524D01*
G37*
X275516D02*
G36*
X275516Y167179D02*
Y163242D01*
X326421D01*
Y167179D01*
X275516D01*
G37*
X333921D02*
G36*
X333921Y167179D02*
Y163242D01*
X369941D01*
Y167179D01*
X333921D01*
G37*
X21111Y173915D02*
G36*
X21111Y173915D02*
Y167179D01*
X72228D01*
Y173915D01*
X21111D01*
G37*
X82602D02*
G36*
X82602Y173915D02*
Y167179D01*
X152150D01*
Y173915D01*
X82602D01*
G37*
X162524D02*
G36*
X162524Y173915D02*
Y167179D01*
X252899D01*
G75*
G02*
X260199I3650J0D01*
G01*
X265142D01*
Y173915D01*
X162524D01*
G37*
X275516D02*
G36*
X275516Y173915D02*
Y167179D01*
X326421D01*
Y173130D01*
G75*
G02*
X326190Y173915I3749J1530D01*
G01*
X275516D01*
G37*
X333921Y173130D02*
G36*
X333921Y173130D02*
Y167179D01*
X369941D01*
Y173915D01*
X350357D01*
G75*
G02*
X343057I-3650J0D01*
G01*
X334152D01*
G75*
G02*
X333921Y173130I-3980J744D01*
G01*
G37*
X21111Y182533D02*
G36*
X21111Y182533D02*
Y173915D01*
X72228D01*
Y182533D01*
X21111D01*
G37*
X82602D02*
G36*
X82602Y182533D02*
Y173915D01*
X152150D01*
Y182533D01*
X146813D01*
G75*
G02*
X139513I-3650J0D01*
G01*
X82602D01*
G37*
X162524D02*
G36*
X162524Y182533D02*
Y173915D01*
X265142D01*
Y182533D01*
X162524D01*
G37*
X275516D02*
G36*
X275516Y182533D02*
Y173915D01*
X326190D01*
G75*
G02*
X326121Y174659I3980J744D01*
G01*
G75*
G02*
X326421Y176189I4049J0D01*
G01*
Y182533D01*
X275516D01*
G37*
X333921D02*
G36*
X333921Y182533D02*
Y176189D01*
G75*
G02*
X334221Y174659I-3749J-1530D01*
G01*
G75*
G02*
X334152Y173915I-4049J0D01*
G01*
X343057D01*
G75*
G02*
X350357I3650J0D01*
G01*
X369941D01*
Y182533D01*
X333921D01*
G37*
X21111Y200644D02*
G36*
X21111Y200644D02*
Y182533D01*
X72228D01*
Y200644D01*
X65711D01*
G75*
G02*
X58411I-3650J0D01*
G01*
X21111D01*
G37*
X82602D02*
G36*
X82602Y200644D02*
Y182533D01*
X139513D01*
G75*
G02*
X146813I3650J0D01*
G01*
X152150D01*
Y200644D01*
X82602D01*
G37*
X162524D02*
G36*
X162524Y200644D02*
Y182533D01*
X265142D01*
Y200644D01*
X162524D01*
G37*
X275516D02*
G36*
X275516Y200644D02*
Y182533D01*
X326421D01*
Y197888D01*
G75*
G02*
Y197889I4511J1D01*
G01*
G75*
G02*
X327522Y200542I3748J0D01*
G01*
X327624Y200644D01*
X275516D01*
G37*
X333921Y196335D02*
G36*
X333921Y196335D02*
Y182533D01*
X369941D01*
Y200644D01*
X363428D01*
X362353Y199569D01*
G75*
G02*
X359699Y198469I-2653J2648D01*
G01*
X349630D01*
Y197720D01*
X340634D01*
Y198469D01*
X336055D01*
X333921Y196335D01*
G37*
X21111Y204581D02*
G36*
X21111Y204581D02*
Y200644D01*
X58411D01*
G75*
G02*
X65711I3650J0D01*
G01*
X72228D01*
Y204581D01*
X21111D01*
G37*
X82602D02*
G36*
X82602Y204581D02*
Y200644D01*
X152150D01*
Y204581D01*
X82602D01*
G37*
X162524D02*
G36*
X162524Y204581D02*
Y200644D01*
X265142D01*
Y204581D01*
X259806D01*
G75*
G02*
X252506I-3650J0D01*
G01*
X162524D01*
G37*
X275516D02*
G36*
X275516Y204581D02*
Y200644D01*
X327624D01*
X331561Y204581D01*
X275516D01*
G37*
X366679Y203896D02*
G36*
X366679Y203896D02*
X363428Y200644D01*
X369941D01*
Y204581D01*
X367221D01*
G75*
G02*
X366679Y203896I-3190J1968D01*
G01*
G37*
X21111Y222219D02*
G36*
X21111Y222219D02*
Y204581D01*
X72228D01*
Y222219D01*
X21111D01*
G37*
X82602D02*
G36*
X82602Y222219D02*
Y204581D01*
X152150D01*
Y222219D01*
X146405D01*
G75*
G02*
X147207Y219935I-2848J-2283D01*
G01*
G75*
G02*
X139907I-3650J0D01*
G01*
G75*
G02*
X140709Y222219I3650J0D01*
G01*
X82602D01*
G37*
X162524D02*
G36*
X162524Y222219D02*
Y204581D01*
X252506D01*
G75*
G02*
X259806I3650J0D01*
G01*
X265142D01*
Y222219D01*
X162524D01*
G37*
X275516D02*
G36*
X275516Y222219D02*
Y204581D01*
X331561D01*
X331848Y204868D01*
G75*
G02*
X334502Y205969I2653J-2648D01*
G01*
X340634D01*
Y206717D01*
X349630D01*
Y205969D01*
X358146D01*
X360280Y208102D01*
Y222219D01*
X349630D01*
G75*
G02*
X340634I-4498J0D01*
G01*
X275516D01*
G37*
X367780D02*
G36*
X367780Y222219D02*
Y206549D01*
G75*
G02*
Y206548I-5013J0D01*
G01*
G75*
G02*
X367221Y204581I-3748J0D01*
G01*
X369941D01*
Y222219D01*
X367780D01*
G37*
X21111Y241982D02*
G36*
X21111Y241982D02*
Y222219D01*
X72228D01*
Y241982D01*
X68626D01*
G75*
G02*
X50368I-9129J4927D01*
G01*
X21111D01*
G37*
X82602D02*
G36*
X82602Y241982D02*
Y222219D01*
X140709D01*
G75*
G02*
X146405I2848J-2283D01*
G01*
X152150D01*
Y241982D01*
X82602D01*
G37*
X162524D02*
G36*
X162524Y241982D02*
Y222219D01*
X265142D01*
Y240236D01*
G75*
G02*
X264753Y241982I4784J1981D01*
G01*
X260178D01*
G75*
G02*
X252920I-3629J394D01*
G01*
X162524D01*
G37*
X275516D02*
G36*
X275516Y241982D02*
Y222219D01*
X340634D01*
G75*
G02*
X349630I4498J0D01*
G01*
X360280D01*
Y227031D01*
X345222D01*
G75*
G02*
X339944Y232219I-91J5187D01*
G01*
G75*
G02*
X343749Y237219I5188J0D01*
G01*
G75*
G02*
X339950Y241982I1384J5000D01*
G01*
X324772D01*
G75*
G02*
X316672I-4050J0D01*
G01*
X275516D01*
G37*
X367780Y232100D02*
G36*
X367780Y232100D02*
Y222219D01*
X369941D01*
Y241982D01*
X369217D01*
Y235683D01*
G75*
G02*
X367780Y232100I-5189J1D01*
G01*
G37*
X21111Y259463D02*
G36*
X21111Y259463D02*
Y241982D01*
X50368D01*
G75*
G02*
X49123Y246909I9129J4928D01*
G01*
G75*
G02*
X69871I10374J0D01*
G01*
G75*
G02*
X68626Y241982I-10374J0D01*
G01*
X72228D01*
Y258731D01*
X71497Y259463D01*
X21111D01*
G37*
X82602Y243488D02*
G36*
X82602Y243488D02*
Y241982D01*
X152150D01*
Y243488D01*
X82602D01*
G37*
Y259463D02*
G36*
X82602Y259463D02*
Y254367D01*
X83107Y253862D01*
X154574D01*
G75*
G02*
X158248Y252343I6J-5188D01*
G01*
X161004Y249587D01*
G75*
G02*
X162524Y245919I-3668J-3668D01*
G01*
Y245918D01*
Y245913D01*
Y241982D01*
X252920D01*
G75*
G02*
X252899Y242376I3629J393D01*
G01*
G75*
G02*
X260199I3650J0D01*
G01*
G75*
G02*
X260178Y241982I-3650J0D01*
G01*
X264753D01*
G75*
G02*
X264748Y242217I5173J230D01*
G01*
G75*
G02*
Y242219I5639J1D01*
G01*
Y259463D01*
X184295D01*
G75*
G02*
X175102I-4596J0D01*
G01*
X114295D01*
G75*
G02*
X105102I-4596J0D01*
G01*
X82602D01*
G37*
X275122D02*
G36*
X275122Y259463D02*
Y244201D01*
G75*
G02*
X275148Y244135I-3141J-1306D01*
G01*
G75*
G02*
X275516Y242220I-4810J-1915D01*
G01*
G75*
G02*
Y242219I-5307J-1D01*
G01*
Y241982D01*
X316672D01*
G75*
G02*
X324772I4050J0D01*
G01*
X339950D01*
G75*
G02*
X339944Y242219I5184J239D01*
G01*
G75*
G02*
Y242241I2627J11D01*
G01*
G75*
G02*
X339945Y242309I2597J4D01*
G01*
Y242376D01*
G75*
G02*
X341467Y246046I5188J-1D01*
G01*
X349787Y254367D01*
Y259463D01*
X308545D01*
X312350Y255657D01*
G75*
G02*
X313449Y253006I-2652J-2652D01*
G01*
G75*
G02*
X307047Y250354I-3750J0D01*
G01*
X300750Y256652D01*
G75*
G02*
X299650Y259304I2648J2653D01*
G01*
G75*
G02*
Y259305I5013J0D01*
G01*
Y259463D01*
X275122D01*
G37*
X369217D02*
G36*
X369217Y259463D02*
Y241982D01*
X369941D01*
Y259463D01*
X369217D01*
G37*
X21111Y269463D02*
G36*
X21111Y269463D02*
Y259463D01*
X71497D01*
X71330Y259630D01*
X34108D01*
G75*
G02*
X30438Y261152I1J5188D01*
G01*
X26112Y265478D01*
G75*
G02*
X24591Y269148I3667J3671D01*
G01*
Y269463D01*
X21111D01*
G37*
X75785D02*
G36*
X75785Y269463D02*
G75*
G02*
X77148Y268482I-2307J-4647D01*
G01*
X81081Y264550D01*
G75*
G02*
X82602Y260880I-3667J-3671D01*
G01*
Y259463D01*
X105102D01*
G75*
G02*
X114295I4596J0D01*
G01*
X175102D01*
G75*
G02*
X184295I4596J0D01*
G01*
X264748D01*
Y269463D01*
X184295D01*
G75*
G02*
X175102I-4596J0D01*
G01*
X114295D01*
G75*
G02*
X105102I-4596J0D01*
G01*
X75785D01*
G37*
X275122D02*
G36*
X275122Y269463D02*
Y259463D01*
X299650D01*
Y269463D01*
X275122D01*
G37*
X307150D02*
G36*
X307150Y269463D02*
Y260858D01*
X308545Y259463D01*
X349787D01*
Y269463D01*
X307150D01*
G37*
X369217D02*
G36*
X369217Y269463D02*
Y259463D01*
X369941D01*
Y269463D01*
X369217D01*
G37*
X21111Y277612D02*
G36*
X21111Y277612D02*
Y269463D01*
X24591D01*
Y277612D01*
X21111D01*
G37*
X34965D02*
G36*
X34965Y277612D02*
Y271296D01*
X36257Y270004D01*
X73478D01*
G75*
G02*
X75785Y269463I-1J-5188D01*
G01*
X105102D01*
G75*
G02*
X114295I4596J0D01*
G01*
X175102D01*
G75*
G02*
X184295I4596J0D01*
G01*
X264748D01*
Y277612D01*
X258700D01*
G75*
G02*
X252824I-2938J2165D01*
G01*
X183906D01*
G75*
G02*
X175491I-4207J1850D01*
G01*
X113906D01*
G75*
G02*
X105491I-4207J1850D01*
G01*
X34965D01*
G37*
X275122D02*
G36*
X275122Y277612D02*
Y269463D01*
X299650D01*
Y277612D01*
X275122D01*
G37*
X307150D02*
G36*
X307150Y277612D02*
Y269463D01*
X349787D01*
Y277612D01*
X307150D01*
G37*
X369217D02*
G36*
X369217Y277612D02*
Y269463D01*
X369941D01*
Y277612D01*
X369217D01*
G37*
X21111Y289463D02*
G36*
X21111Y289463D02*
Y277612D01*
X24591D01*
Y289463D01*
X21111D01*
G37*
X34965D02*
G36*
X34965Y289463D02*
Y277612D01*
X105491D01*
G75*
G02*
X105102Y279463I4208J1851D01*
G01*
G75*
G02*
X114295I4596J0D01*
G01*
G75*
G02*
X113906Y277612I-4597J0D01*
G01*
X175491D01*
G75*
G02*
X175102Y279463I4208J1851D01*
G01*
G75*
G02*
X184295I4596J0D01*
G01*
G75*
G02*
X183906Y277612I-4597J0D01*
G01*
X252824D01*
G75*
G02*
X252112Y279778I2938J2166D01*
G01*
G75*
G02*
X259412I3650J0D01*
G01*
G75*
G02*
X258700Y277612I-3650J0D01*
G01*
X264748D01*
Y289463D01*
X184295D01*
G75*
G02*
X175102I-4596J0D01*
G01*
X114295D01*
G75*
G02*
X105102I-4596J0D01*
G01*
X34965D01*
G37*
X275122D02*
G36*
X275122Y289463D02*
Y277612D01*
X299650D01*
Y288045D01*
G75*
G02*
Y288046I4511J1D01*
G01*
G75*
G02*
X299928Y289463I3748J0D01*
G01*
X275122D01*
G37*
X307150Y286492D02*
G36*
X307150Y286492D02*
Y277612D01*
X349787D01*
Y289463D01*
X317162D01*
G75*
G02*
X311431Y289020I-3132J3228D01*
G01*
X309677D01*
X307150Y286492D01*
G37*
X369217Y289463D02*
G36*
X369217Y289463D02*
Y277612D01*
X369941D01*
Y289463D01*
X369217D01*
G37*
X21111Y302691D02*
G36*
X21111Y302691D02*
Y289463D01*
X24591D01*
Y302691D01*
X21111D01*
G37*
X34965D02*
G36*
X34965Y302691D02*
Y289463D01*
X105102D01*
G75*
G02*
X114295I4596J0D01*
G01*
X175102D01*
G75*
G02*
X184295I4596J0D01*
G01*
X264748D01*
Y302691D01*
X182971D01*
G75*
G02*
X184295Y299463I-3272J-3228D01*
G01*
G75*
G02*
X175102I-4596J0D01*
G01*
G75*
G02*
X176427Y302691I4596J0D01*
G01*
X112971D01*
G75*
G02*
X114295Y299463I-3272J-3228D01*
G01*
G75*
G02*
X105102I-4596J0D01*
G01*
G75*
G02*
X106427Y302691I4596J0D01*
G01*
X94770D01*
Y297888D01*
G75*
G02*
X94182Y296472I-2000J0D01*
G01*
X89504Y291794D01*
G75*
G02*
X88089Y291207I-1416J1413D01*
G01*
X85193D01*
G75*
G02*
X78490Y293207I-3053J2000D01*
G01*
G75*
G02*
X85193Y295207I3650J0D01*
G01*
X87260D01*
X90770Y298716D01*
Y302691D01*
X46480D01*
Y294177D01*
X37484D01*
Y302691D01*
X34965D01*
G37*
X275122D02*
G36*
X275122Y302691D02*
Y289463D01*
X299928D01*
G75*
G02*
X300750Y290699I3470J-1416D01*
G01*
X305470Y295419D01*
G75*
G02*
X308124Y296520I2653J-2648D01*
G01*
X311669D01*
G75*
G02*
X318528Y292691I2361J-3829D01*
G01*
G75*
G02*
X317162Y289463I-4498J0D01*
G01*
X349787D01*
Y302691D01*
X318528D01*
G75*
G02*
X309531I-4498J0D01*
G01*
X275122D01*
G37*
X369217D02*
G36*
X369217Y302691D02*
Y289463D01*
X369941D01*
Y302691D01*
X369217D01*
G37*
X21111Y312691D02*
G36*
X21111Y312691D02*
Y302691D01*
X24591D01*
Y312691D01*
X21111D01*
G37*
X34965D02*
G36*
X34965Y312691D02*
Y302691D01*
X37484D01*
Y303173D01*
X46480D01*
Y302691D01*
X90770D01*
Y312551D01*
G75*
G02*
X90571Y312691I2002J3054D01*
G01*
X88896D01*
G75*
G02*
X82470I-3213J1732D01*
G01*
X44009D01*
G75*
G02*
X46480Y308675I-2026J-4016D01*
G01*
G75*
G02*
X37484I-4498J0D01*
G01*
G75*
G02*
X39956Y312691I4498J0D01*
G01*
X34965D01*
G37*
X94770Y312551D02*
G36*
X94770Y312551D02*
Y302691D01*
X106427D01*
G75*
G02*
X112971I3272J-3228D01*
G01*
X176427D01*
G75*
G02*
X182971I3272J-3228D01*
G01*
X264748D01*
Y312691D01*
X182971D01*
G75*
G02*
X184295Y309463I-3272J-3228D01*
G01*
G75*
G02*
X175102I-4596J0D01*
G01*
G75*
G02*
X176427Y312691I4596J0D01*
G01*
X112971D01*
G75*
G02*
X114295Y309463I-3272J-3228D01*
G01*
G75*
G02*
X105102I-4596J0D01*
G01*
G75*
G02*
X106427Y312691I4596J0D01*
G01*
X94968D01*
G75*
G02*
X94770Y312551I-2200J2912D01*
G01*
G37*
X275122Y312691D02*
G36*
X275122Y312691D02*
Y302691D01*
X309531D01*
G75*
G02*
X318528I4498J0D01*
G01*
X349787D01*
Y312691D01*
X318528D01*
G75*
G02*
X309531I-4498J0D01*
G01*
X275122D01*
G37*
X369217D02*
G36*
X369217Y312691D02*
Y302691D01*
X369941D01*
Y312691D01*
X369217D01*
G37*
X21111Y317179D02*
G36*
X21111Y317179D02*
Y312691D01*
X24591D01*
Y317179D01*
X21111D01*
G37*
X34965D02*
G36*
X34965Y317179D02*
Y312691D01*
X39956D01*
G75*
G02*
X44009I2026J-4016D01*
G01*
X82470D01*
G75*
G02*
X82033Y314423I3213J1732D01*
G01*
G75*
G02*
X83290Y317179I3650J0D01*
G01*
X46224D01*
G75*
G02*
X37740I-4242J1496D01*
G01*
X34965D01*
G37*
X88076D02*
G36*
X88076Y317179D02*
G75*
G02*
X89120Y315652I-2393J-2756D01*
G01*
G75*
G02*
X89477Y317179I3650J-47D01*
G01*
X88076D01*
G37*
X89333Y314376D02*
G36*
X89333Y314376D02*
G75*
G02*
X88896Y312691I-3650J48D01*
G01*
X90571D01*
G75*
G02*
X89333Y314376I2200J2915D01*
G01*
G37*
X96420Y315604D02*
G36*
X96420Y315604D02*
G75*
G02*
X94968Y312691I-3651J1D01*
G01*
X106427D01*
G75*
G02*
X112971I3272J-3228D01*
G01*
X176427D01*
G75*
G02*
X182971I3272J-3228D01*
G01*
X264748D01*
Y317179D01*
X260593D01*
G75*
G02*
X253293I-3650J0D01*
G01*
X183688D01*
G75*
G02*
X175710I-3989J2283D01*
G01*
X113688D01*
G75*
G02*
X105710I-3989J2283D01*
G01*
X96063D01*
G75*
G02*
X96420Y315604I-3293J-1574D01*
G01*
G37*
X275122Y317179D02*
G36*
X275122Y317179D02*
Y312691D01*
X309531D01*
G75*
G02*
X313732Y317179I4498J0D01*
G01*
X275122D01*
G37*
X314327D02*
G36*
X314327Y317179D02*
G75*
G02*
X318528Y312691I-297J-4488D01*
G01*
X349787D01*
Y317179D01*
X314327D01*
G37*
X369217D02*
G36*
X369217Y317179D02*
Y312691D01*
X369941D01*
Y317179D01*
X369217D01*
G37*
X21111Y322691D02*
G36*
X21111Y322691D02*
Y317179D01*
X24591D01*
Y322691D01*
X21111D01*
G37*
X34965D02*
G36*
X34965Y322691D02*
Y317179D01*
X37740D01*
G75*
G02*
X37484Y318675I4242J1496D01*
G01*
G75*
G02*
X39956Y322691I4498J0D01*
G01*
X34965D01*
G37*
X46480Y318675D02*
G36*
X46480Y318675D02*
G75*
G02*
X46224Y317179I-4498J0D01*
G01*
X83290D01*
G75*
G02*
X88076I2393J-2756D01*
G01*
X89477D01*
G75*
G02*
X96063I3293J-1575D01*
G01*
X105710D01*
G75*
G02*
X105102Y319463I3989J2284D01*
G01*
G75*
G02*
X106427Y322691I4596J0D01*
G01*
X44009D01*
G75*
G02*
X46480Y318675I-2026J-4016D01*
G01*
G37*
X114295Y319463D02*
G36*
X114295Y319463D02*
G75*
G02*
X113688Y317179I-4596J0D01*
G01*
X175710D01*
G75*
G02*
X175102Y319463I3989J2284D01*
G01*
G75*
G02*
X176427Y322691I4596J0D01*
G01*
X112971D01*
G75*
G02*
X114295Y319463I-3272J-3228D01*
G01*
G37*
X184295D02*
G36*
X184295Y319463D02*
G75*
G02*
X183688Y317179I-4596J0D01*
G01*
X253293D01*
G75*
G02*
X260593I3650J0D01*
G01*
X264748D01*
Y322691D01*
X182971D01*
G75*
G02*
X184295Y319463I-3272J-3228D01*
G01*
G37*
X275122Y322691D02*
G36*
X275122Y322691D02*
Y317179D01*
X313732D01*
G75*
G02*
X314327I297J-4486D01*
G01*
X349787D01*
Y322691D01*
X318528D01*
G75*
G02*
X309531I-4498J0D01*
G01*
X275122D01*
G37*
X369217D02*
G36*
X369217Y322691D02*
Y317179D01*
X369941D01*
Y322691D01*
X369217D01*
G37*
X21111Y332691D02*
G36*
X21111Y332691D02*
Y322691D01*
X24591D01*
Y332691D01*
X21111D01*
G37*
X34965D02*
G36*
X34965Y332691D02*
Y322691D01*
X39956D01*
G75*
G02*
X44009I2026J-4016D01*
G01*
X106427D01*
G75*
G02*
X112971I3272J-3228D01*
G01*
X176427D01*
G75*
G02*
X182971I3272J-3228D01*
G01*
X264748D01*
Y332691D01*
X182971D01*
G75*
G02*
X184295Y329463I-3272J-3228D01*
G01*
G75*
G02*
X175102I-4596J0D01*
G01*
G75*
G02*
X176427Y332691I4596J0D01*
G01*
X112971D01*
G75*
G02*
X114295Y329463I-3272J-3228D01*
G01*
G75*
G02*
X105102I-4596J0D01*
G01*
G75*
G02*
X106427Y332691I4596J0D01*
G01*
X91080D01*
G75*
G02*
X92089Y330171I-2641J-2520D01*
G01*
G75*
G02*
X84789I-3650J0D01*
G01*
G75*
G02*
X85798Y332691I3650J0D01*
G01*
X44009D01*
G75*
G02*
X46480Y328675I-2026J-4016D01*
G01*
G75*
G02*
X37484I-4498J0D01*
G01*
G75*
G02*
X39956Y332691I4498J0D01*
G01*
X34965D01*
G37*
X275122D02*
G36*
X275122Y332691D02*
Y322691D01*
X309531D01*
G75*
G02*
X318528I4498J0D01*
G01*
X349787D01*
Y332691D01*
X318528D01*
G75*
G02*
X309531I-4498J0D01*
G01*
X275122D01*
G37*
X369217D02*
G36*
X369217Y332691D02*
Y322691D01*
X369941D01*
Y332691D01*
X369217D01*
G37*
X21111Y342691D02*
G36*
X21111Y342691D02*
Y332691D01*
X24591D01*
Y342691D01*
X21111D01*
G37*
X34965D02*
G36*
X34965Y342691D02*
Y332691D01*
X39956D01*
G75*
G02*
X44009I2026J-4016D01*
G01*
X85798D01*
G75*
G02*
X91080I2641J-2520D01*
G01*
X106427D01*
G75*
G02*
X112971I3272J-3228D01*
G01*
X176427D01*
G75*
G02*
X182971I3272J-3228D01*
G01*
X264748D01*
Y342691D01*
X193708D01*
X195960Y340439D01*
X208220D01*
G75*
G02*
X214924Y338439I3053J-2000D01*
G01*
G75*
G02*
X208220Y336439I-3650J0D01*
G01*
X195132D01*
G75*
G02*
X193716Y337026I0J2000D01*
G01*
X190176Y340567D01*
G75*
G02*
X189589Y341982I1413J1416D01*
G01*
Y342691D01*
X182971D01*
G75*
G02*
X184295Y339463I-3272J-3228D01*
G01*
G75*
G02*
X175102I-4596J0D01*
G01*
G75*
G02*
X176427Y342691I4596J0D01*
G01*
X112971D01*
G75*
G02*
X114295Y339463I-3272J-3228D01*
G01*
G75*
G02*
X105102I-4596J0D01*
G01*
G75*
G02*
X106427Y342691I4596J0D01*
G01*
X85811D01*
G75*
G02*
X82405I-1703J3229D01*
G01*
X44009D01*
G75*
G02*
X46480Y338675I-2026J-4016D01*
G01*
G75*
G02*
X37484I-4498J0D01*
G01*
G75*
G02*
X39956Y342691I4498J0D01*
G01*
X34965D01*
G37*
X275122D02*
G36*
X275122Y342691D02*
Y332691D01*
X309531D01*
G75*
G02*
X318528I4498J0D01*
G01*
X349787D01*
Y342691D01*
X318528D01*
G75*
G02*
X309531I-4498J0D01*
G01*
X275122D01*
G37*
X369217D02*
G36*
X369217Y342691D02*
Y332691D01*
X369941D01*
Y342691D01*
X369217D01*
G37*
X21111Y352691D02*
G36*
X21111Y352691D02*
Y342691D01*
X24591D01*
Y352691D01*
X21111D01*
G37*
X34965Y348606D02*
G36*
X34965Y348606D02*
Y342691D01*
X39956D01*
G75*
G02*
X44009I2026J-4016D01*
G01*
X82405D01*
G75*
G02*
X80458Y345919I1703J3228D01*
G01*
G75*
G02*
X87758I3650J0D01*
G01*
G75*
G02*
X85811Y342691I-3650J0D01*
G01*
X106427D01*
G75*
G02*
X112971I3272J-3228D01*
G01*
X176427D01*
G75*
G02*
X182971I3272J-3228D01*
G01*
X189589D01*
Y352691D01*
X182971D01*
G75*
G02*
X184295Y349463I-3272J-3228D01*
G01*
G75*
G02*
X175102I-4596J0D01*
G01*
G75*
G02*
X176427Y352691I4596J0D01*
G01*
X112971D01*
G75*
G02*
X114295Y349463I-3272J-3228D01*
G01*
G75*
G02*
X105102I-4596J0D01*
G01*
G75*
G02*
X106427Y352691I4596J0D01*
G01*
X83665D01*
G75*
G02*
X78596Y348606I-5069J1102D01*
G01*
X34965D01*
G37*
X193589Y352691D02*
G36*
X193589Y352691D02*
Y342811D01*
X193708Y342691D01*
X264748D01*
Y352691D01*
X260459D01*
G75*
G02*
X254214I-3123J1890D01*
G01*
X206226D01*
G75*
G02*
X207750Y349384I-2826J-3307D01*
G01*
G75*
G02*
X199049I-4350J0D01*
G01*
G75*
G02*
X200573Y352691I4350J0D01*
G01*
X193589D01*
G37*
X275122D02*
G36*
X275122Y352691D02*
Y342691D01*
X309531D01*
G75*
G02*
X318528I4498J0D01*
G01*
X349787D01*
Y352691D01*
X318528D01*
G75*
G02*
X309531I-4498J0D01*
G01*
X275122D01*
G37*
X369217D02*
G36*
X369217Y352691D02*
Y342691D01*
X369941D01*
Y352691D01*
X369217D01*
G37*
X21111Y362691D02*
G36*
X21111Y362691D02*
Y352691D01*
X24591D01*
Y362691D01*
X21111D01*
G37*
X34965D02*
G36*
X34965Y362691D02*
Y358980D01*
X78596D01*
G75*
G02*
X83783Y353793I0J-5187D01*
G01*
G75*
G02*
X83665Y352691I-5187J0D01*
G01*
X106427D01*
G75*
G02*
X112971I3272J-3228D01*
G01*
X176427D01*
G75*
G02*
X182971I3272J-3228D01*
G01*
X189589D01*
Y362691D01*
X182971D01*
G75*
G02*
X184295Y359463I-3272J-3228D01*
G01*
G75*
G02*
X175102I-4596J0D01*
G01*
G75*
G02*
X176427Y362691I4596J0D01*
G01*
X112971D01*
G75*
G02*
X114295Y359463I-3272J-3228D01*
G01*
G75*
G02*
X105102I-4596J0D01*
G01*
G75*
G02*
X106427Y362691I4596J0D01*
G01*
X34965D01*
G37*
X193589D02*
G36*
X193589Y362691D02*
Y352691D01*
X200573D01*
G75*
G02*
X206226I2826J-3307D01*
G01*
X254214D01*
G75*
G02*
X253687Y354581I3123J1889D01*
G01*
G75*
G02*
X260987I3650J0D01*
G01*
G75*
G02*
X260459Y352691I-3650J0D01*
G01*
X264748D01*
Y362691D01*
X206226D01*
G75*
G02*
X207750Y359384I-2826J-3307D01*
G01*
G75*
G02*
X199049I-4350J0D01*
G01*
G75*
G02*
X200573Y362691I4350J0D01*
G01*
X193589D01*
G37*
X275122D02*
G36*
X275122Y362691D02*
Y352691D01*
X309531D01*
G75*
G02*
X318528I4498J0D01*
G01*
X349787D01*
Y362691D01*
X318528D01*
G75*
G02*
X309531I-4498J0D01*
G01*
X275122D01*
G37*
X369217D02*
G36*
X369217Y362691D02*
Y352691D01*
X369941D01*
Y362691D01*
X369217D01*
G37*
X21111Y372691D02*
G36*
X21111Y372691D02*
Y362691D01*
X24591D01*
Y372691D01*
X21111D01*
G37*
X34965D02*
G36*
X34965Y372691D02*
Y362691D01*
X106427D01*
G75*
G02*
X112971I3272J-3228D01*
G01*
X176427D01*
G75*
G02*
X182971I3272J-3228D01*
G01*
X189589D01*
Y372691D01*
X182971D01*
G75*
G02*
X184295Y369463I-3272J-3228D01*
G01*
G75*
G02*
X175102I-4596J0D01*
G01*
G75*
G02*
X176427Y372691I4596J0D01*
G01*
X112971D01*
G75*
G02*
X114295Y369463I-3272J-3228D01*
G01*
G75*
G02*
X105102I-4596J0D01*
G01*
G75*
G02*
X106427Y372691I4596J0D01*
G01*
X34965D01*
G37*
X193589D02*
G36*
X193589Y372691D02*
Y362691D01*
X200573D01*
G75*
G02*
X206226I2826J-3307D01*
G01*
X264748D01*
Y372691D01*
X206226D01*
G75*
G02*
X207750Y369384I-2826J-3307D01*
G01*
G75*
G02*
X199049I-4350J0D01*
G01*
G75*
G02*
X200573Y372691I4350J0D01*
G01*
X193589D01*
G37*
X275122D02*
G36*
X275122Y372691D02*
Y362691D01*
X309531D01*
G75*
G02*
X318528I4498J0D01*
G01*
X349787D01*
Y372691D01*
X318528D01*
Y368193D01*
X309531D01*
Y372691D01*
X275122D01*
G37*
X369217D02*
G36*
X369217Y372691D02*
Y362691D01*
X369941D01*
Y372691D01*
X369217D01*
G37*
X21111Y379463D02*
G36*
X21111Y379463D02*
Y372691D01*
X24591D01*
Y379463D01*
X21111D01*
G37*
X34965D02*
G36*
X34965Y379463D02*
Y372691D01*
X106427D01*
G75*
G02*
X112971I3272J-3228D01*
G01*
X176427D01*
G75*
G02*
X182971I3272J-3228D01*
G01*
X189589D01*
Y379463D01*
X184295D01*
G75*
G02*
X175102I-4596J0D01*
G01*
X114295D01*
G75*
G02*
X105102I-4596J0D01*
G01*
X34965D01*
G37*
X193589D02*
G36*
X193589Y379463D02*
Y372691D01*
X200573D01*
G75*
G02*
X206226I2826J-3307D01*
G01*
X264748D01*
Y379463D01*
X207750D01*
Y375033D01*
X199049D01*
Y379463D01*
X193589D01*
G37*
X275122D02*
G36*
X275122Y379463D02*
Y372691D01*
X309531D01*
Y377189D01*
X318528D01*
Y372691D01*
X349787D01*
Y379463D01*
X275122D01*
G37*
X369217D02*
G36*
X369217Y379463D02*
Y372691D01*
X369941D01*
Y379463D01*
X369217D01*
G37*
X21111Y386077D02*
G36*
X21111Y386077D02*
Y379463D01*
X24591D01*
Y386077D01*
X21111D01*
G37*
X34965D02*
G36*
X34965Y386077D02*
Y379463D01*
X105102D01*
G75*
G02*
X114295I4596J0D01*
G01*
X175102D01*
G75*
G02*
X184295I4596J0D01*
G01*
X189589D01*
Y386077D01*
X182807D01*
G75*
G02*
X176590I-3109J3385D01*
G01*
X112807D01*
G75*
G02*
X106590I-3109J3386D01*
G01*
X50663D01*
Y380545D01*
X39600D01*
Y386077D01*
X34965D01*
G37*
X193589D02*
G36*
X193589Y386077D02*
Y379463D01*
X199049D01*
Y383734D01*
X199650D01*
Y386077D01*
X193589D01*
G37*
X207150D02*
G36*
X207150Y386077D02*
Y383734D01*
X207750D01*
Y379463D01*
X264748D01*
Y386077D01*
X207150D01*
G37*
X275122D02*
G36*
X275122Y386077D02*
Y379463D01*
X349787D01*
Y386077D01*
X275122D01*
G37*
X369217D02*
G36*
X369217Y386077D02*
Y379463D01*
X369941D01*
Y386077D01*
X369217D01*
G37*
X21111Y391982D02*
G36*
X21111Y391982D02*
Y386077D01*
X24591D01*
Y391982D01*
X21111D01*
G37*
X34965D02*
G36*
X34965Y391982D02*
Y386077D01*
X39600D01*
Y391608D01*
X50663D01*
Y386077D01*
X106590D01*
G75*
G02*
X105102Y389463I3109J3386D01*
G01*
G75*
G02*
X105854Y391982I4596J0D01*
G01*
X34965D01*
G37*
X114295Y389463D02*
G36*
X114295Y389463D02*
G75*
G02*
X112807Y386077I-4596J0D01*
G01*
X176590D01*
G75*
G02*
X175102Y389462I3109J3385D01*
G01*
Y389463D01*
Y389463D01*
G75*
G02*
X175854Y391982I4596J0D01*
G01*
X113543D01*
G75*
G02*
X114295Y389463I-3844J-2519D01*
G01*
G37*
X183837Y387463D02*
G36*
X183837Y387463D02*
G75*
G02*
X182807Y386077I-4139J2000D01*
G01*
X189589D01*
Y386430D01*
X188556Y387463D01*
X183837D01*
G37*
X183543Y391982D02*
G36*
X183543Y391982D02*
G75*
G02*
X183837Y391463I-3844J-2519D01*
G01*
X189384D01*
G75*
G02*
X190800Y390875I0J-2000D01*
G01*
X193001Y388674D01*
G75*
G02*
X193589Y387258I-1413J-1416D01*
G01*
Y386077D01*
X199650D01*
Y391982D01*
X183543D01*
G37*
X207150D02*
G36*
X207150Y391982D02*
Y386077D01*
X264748D01*
Y391982D01*
X254687D01*
G75*
G02*
X247387I-3650J0D01*
G01*
X207150D01*
G37*
X275122D02*
G36*
X275122Y391982D02*
Y386077D01*
X349787D01*
Y391982D01*
X275122D01*
G37*
X369217D02*
G36*
X369217Y391982D02*
Y386077D01*
X369941D01*
Y391982D01*
X369217D01*
G37*
X21111Y403793D02*
G36*
X21111Y403793D02*
Y391982D01*
X24591D01*
Y400644D01*
G75*
G02*
X25656Y403793I5188J0D01*
G01*
X21111D01*
G37*
X34965Y398495D02*
G36*
X34965Y398495D02*
Y391982D01*
X105854D01*
G75*
G02*
X113543I3844J-2520D01*
G01*
X175854D01*
G75*
G02*
X183543I3844J-2520D01*
G01*
X199650D01*
Y401846D01*
X197703Y403793D01*
X181239D01*
G75*
G02*
X184295Y399463I-1540J-4331D01*
G01*
G75*
G02*
X175102I-4596J0D01*
G01*
G75*
G02*
X178159Y403793I4596J0D01*
G01*
X111239D01*
G75*
G02*
X114295Y399463I-1540J-4331D01*
G01*
G75*
G02*
X105102I-4596J0D01*
G01*
G75*
G02*
X108159Y403793I4596J0D01*
G01*
X79633D01*
X77540Y401700D01*
G75*
G02*
X70289Y401618I-3668J3668D01*
G01*
X38087D01*
X34965Y398495D01*
G37*
X207150Y403400D02*
G36*
X207150Y403400D02*
Y391982D01*
X247387D01*
G75*
G02*
X254687I3650J0D01*
G01*
X264748D01*
Y403793D01*
X207129D01*
G75*
G02*
X207150Y403401I-3726J-391D01*
G01*
G75*
G02*
Y403400I-4511J0D01*
G01*
G37*
X275122Y403793D02*
G36*
X275122Y403793D02*
Y391982D01*
X349787D01*
Y403793D01*
X349576D01*
G75*
G02*
X341476I-4050J0D01*
G01*
X275122D01*
G37*
X369217D02*
G36*
X369217Y403793D02*
Y391982D01*
X369941D01*
Y403793D01*
X369217D01*
G37*
X21111Y409463D02*
G36*
X21111Y409463D02*
Y403793D01*
X25656D01*
G75*
G02*
X26112Y404314I4123J-3152D01*
G01*
X30834Y409036D01*
G75*
G02*
X31318Y409463I3668J-3668D01*
G01*
X21111D01*
G37*
X37686D02*
G36*
X37686Y409463D02*
G75*
G02*
X38085Y409118I-3185J-4094D01*
G01*
X70287D01*
X70631Y409463D01*
X37686D01*
G37*
X82262Y406422D02*
G36*
X82262Y406422D02*
X79633Y403793D01*
X108159D01*
G75*
G02*
X111239I1540J-4331D01*
G01*
X178159D01*
G75*
G02*
X181239I1540J-4331D01*
G01*
X197703D01*
X195783Y405713D01*
X182357D01*
G75*
G02*
X175102Y409463I-2658J3750D01*
G01*
X114295D01*
G75*
G02*
X105102I-4596J0D01*
G01*
X83745D01*
G75*
G02*
X82262Y406422I-5150J630D01*
G01*
G37*
X202640Y409463D02*
G36*
X202640Y409463D02*
X206049Y406054D01*
G75*
G02*
X207129Y403793I-2648J-2653D01*
G01*
X264748D01*
Y409463D01*
X202640D01*
G37*
X275122D02*
G36*
X275122Y409463D02*
Y403793D01*
X341476D01*
G75*
G02*
X349576I4050J0D01*
G01*
X349787D01*
Y409463D01*
X275122D01*
G37*
X369217D02*
G36*
X369217Y409463D02*
Y403793D01*
X369941D01*
Y409463D01*
X369217D01*
G37*
X21111Y411136D02*
G36*
X21111Y411136D02*
Y409463D01*
X31318D01*
G75*
G02*
X37686I3184J-4094D01*
G01*
X70631D01*
X73409Y412241D01*
Y419463D01*
X72435D01*
Y413636D01*
G75*
G02*
X69935Y411136I-2500J0D01*
G01*
X21111D01*
G37*
X83783Y410093D02*
G36*
X83783Y410093D02*
G75*
G02*
X83745Y409463I-5189J2D01*
G01*
X105102D01*
G75*
G02*
X114295I4596J0D01*
G01*
X175102D01*
G75*
G02*
X182357Y413213I4596J0D01*
G01*
X197337D01*
G75*
G02*
X199991Y412112I1J-3748D01*
G01*
X202640Y409463D01*
X264748D01*
Y419463D01*
X208987D01*
G75*
G02*
X201749I-3619J472D01*
G01*
X184295D01*
G75*
G02*
X175102I-4596J0D01*
G01*
X147529D01*
G75*
G02*
X128944I-9293J4612D01*
G01*
X114295D01*
G75*
G02*
X105102I-4596J0D01*
G01*
X83783D01*
Y410093D01*
G37*
X275122Y419463D02*
G36*
X275122Y419463D02*
Y409463D01*
X349787D01*
Y419463D01*
X344380D01*
G75*
G02*
X325794I-9293J4612D01*
G01*
X275122D01*
G37*
X369217D02*
G36*
X369217Y419463D02*
Y409463D01*
X369941D01*
Y419463D01*
X369217D01*
G37*
X72435Y424075D02*
G36*
X72435Y424075D02*
Y419463D01*
X73409D01*
Y424075D01*
X72435D01*
G37*
X83783D02*
G36*
X83783Y424075D02*
Y419463D01*
X105102D01*
G75*
G02*
X114295I4596J0D01*
G01*
X128944D01*
G75*
G02*
X127863Y424075I9293J4612D01*
G01*
X83783D01*
G37*
X148611D02*
G36*
X148611Y424075D02*
G75*
G02*
X147529Y419463I-10374J0D01*
G01*
X175102D01*
G75*
G02*
X176448Y422713I4598J0D01*
G01*
X170579D01*
G75*
G02*
X163746Y424075I-3203J1750D01*
G01*
X148611D01*
G37*
X182949Y422713D02*
G36*
X182949Y422713D02*
G75*
G02*
X184295Y419463I-3252J-3250D01*
G01*
X201749D01*
G75*
G02*
X201718Y419935I3620J472D01*
G01*
Y419935D01*
G75*
G02*
X203000Y422713I3649J0D01*
G01*
X182949D01*
G37*
X209018Y419935D02*
G36*
X209018Y419935D02*
G75*
G02*
X208987Y419463I-3650J0D01*
G01*
X264748D01*
Y424075D01*
X230651D01*
G75*
G02*
X223819Y422713I-3630J388D01*
G01*
X207736D01*
G75*
G02*
X209018Y419935I-2367J-2777D01*
G01*
Y419935D01*
G37*
X275122Y424075D02*
G36*
X275122Y424075D02*
Y419463D01*
X325794D01*
G75*
G02*
X324713Y424075I9293J4612D01*
G01*
X275122D01*
G37*
X345461D02*
G36*
X345461Y424075D02*
G75*
G02*
X344380Y419463I-10374J0D01*
G01*
X349787D01*
Y424075D01*
X345461D01*
G37*
X369217D02*
G36*
X369217Y424075D02*
Y419463D01*
X369941D01*
Y424075D01*
X369217D01*
G37*
X72435Y428990D02*
G36*
X72435Y428990D02*
Y424075D01*
X73409D01*
Y428990D01*
X72435D01*
G37*
X83783D02*
G36*
X83783Y428990D02*
Y424075D01*
X127863D01*
G75*
G02*
X129101Y428990I10374J0D01*
G01*
X114271D01*
G75*
G02*
X105127I-4572J472D01*
G01*
X83783D01*
G37*
X147372D02*
G36*
X147372Y428990D02*
G75*
G02*
X148611Y424075I-9135J-4916D01*
G01*
X163746D01*
G75*
G02*
X163726Y424463I3631J386D01*
G01*
G75*
G02*
X170579Y426213I3650J0D01*
G01*
X176448D01*
G75*
G02*
X175127Y428990I3252J3250D01*
G01*
X147372D01*
G37*
X184271D02*
G36*
X184271Y428990D02*
G75*
G02*
X182949Y426213I-4573J473D01*
G01*
X223819D01*
G75*
G02*
X230672Y424463I3203J-1750D01*
G01*
G75*
G02*
X230651Y424075I-3652J-2D01*
G01*
X264748D01*
Y428990D01*
X253113D01*
G75*
G02*
X245813I-3650J0D01*
G01*
X184271D01*
G37*
X275122D02*
G36*
X275122Y428990D02*
Y424075D01*
X324713D01*
G75*
G02*
X325952Y428990I10374J0D01*
G01*
X275122D01*
G37*
X344222D02*
G36*
X344222Y428990D02*
G75*
G02*
X345461Y424075I-9135J-4916D01*
G01*
X349787D01*
Y428990D01*
X344222D01*
G37*
X369217D02*
G36*
X369217Y428990D02*
Y424075D01*
X369941D01*
Y428990D01*
X369217D01*
G37*
X72435Y439226D02*
G36*
X72435Y439226D02*
Y428990D01*
X73409D01*
Y439226D01*
X72435D01*
G37*
X83783D02*
G36*
X83783Y439226D02*
Y428990D01*
X105127D01*
G75*
G02*
X105102Y429463I4572J473D01*
G01*
G75*
G02*
X114295I4596J0D01*
G01*
G75*
G02*
X114271Y428990I-4597J1D01*
G01*
X129101D01*
G75*
G02*
X147372I9135J-4915D01*
G01*
X175127D01*
G75*
G02*
X175102Y429463I4573J473D01*
G01*
G75*
G02*
X184295I4596J0D01*
G01*
G75*
G02*
X184271Y428990I-4598J1D01*
G01*
X245813D01*
G75*
G02*
X253113I3650J0D01*
G01*
X264748D01*
Y438439D01*
G75*
G02*
X264808Y439226I5189J-1D01*
G01*
X219854D01*
Y434976D01*
X211354D01*
Y439226D01*
X209854D01*
G75*
G02*
X201354I-4250J0D01*
G01*
X199854D01*
G75*
G02*
X191354I-4250J0D01*
G01*
X184289D01*
G75*
G02*
X175108I-4591J236D01*
G01*
X114289D01*
G75*
G02*
X105108I-4591J236D01*
G01*
X83783D01*
G37*
X275122Y436291D02*
G36*
X275122Y436291D02*
Y428990D01*
X325952D01*
G75*
G02*
X344222I9135J-4915D01*
G01*
X349787D01*
Y439226D01*
X278058D01*
X275122Y436291D01*
G37*
X369217Y439226D02*
G36*
X369217Y439226D02*
Y428990D01*
X369941D01*
Y439226D01*
X369217D01*
G37*
X72435Y462461D02*
G36*
X72435Y462461D02*
Y439226D01*
X73409D01*
Y449463D01*
G75*
G02*
X74931Y453133I5188J-1D01*
G01*
X82407Y460608D01*
G75*
G02*
X86077Y462130I3671J-3667D01*
G01*
X100250D01*
G75*
G02*
X103833Y460693I-1J-5189D01*
G01*
X117139D01*
G75*
G02*
X120722Y462130I3585J-3752D01*
G01*
X173478D01*
G75*
G02*
X177062Y460693I-1J-5189D01*
G01*
X182887D01*
G75*
G02*
X186470Y462130I3585J-3752D01*
G01*
X355368D01*
G75*
G02*
X359038Y460608I-1J-5188D01*
G01*
X367695Y451952D01*
G75*
G02*
X369217Y448281I-3667J-3671D01*
G01*
Y439226D01*
X369941D01*
Y462461D01*
X72435D01*
G37*
X83783Y447314D02*
G36*
X83783Y447314D02*
Y439226D01*
X105108D01*
G75*
G02*
X105102Y439463I4592J233D01*
G01*
G75*
G02*
X114295I4596J0D01*
G01*
G75*
G02*
X114289Y439226I-4598J-3D01*
G01*
X175108D01*
G75*
G02*
X175102Y439463I4592J233D01*
G01*
G75*
G02*
X184295I4596J0D01*
G01*
G75*
G02*
X184289Y439226I-4598J-3D01*
G01*
X191354D01*
G75*
G02*
X199854I4250J0D01*
G01*
X201354D01*
G75*
G02*
X209854I4250J0D01*
G01*
X211354D01*
Y443476D01*
X219854D01*
Y439226D01*
X264808D01*
G75*
G02*
X266270Y442109I5128J-788D01*
G01*
X275714Y451553D01*
G75*
G02*
X275928Y451756I3695J-3689D01*
G01*
X219354D01*
Y450992D01*
G75*
G02*
X219654Y449464I-3741J-1528D01*
G01*
G75*
G02*
Y449463I-4101J-1D01*
G01*
G75*
G02*
X211554I-4050J0D01*
G01*
G75*
G02*
X211854Y450992I4045J1D01*
G01*
Y451756D01*
X186470D01*
G75*
G02*
X182887Y453193I1J5189D01*
G01*
X182384D01*
G75*
G02*
X184295Y449463I-2685J-3730D01*
G01*
G75*
G02*
X175102I-4596J0D01*
G01*
Y449463D01*
G75*
G02*
X176382Y452645I4595J0D01*
G01*
G75*
G02*
X173478Y451756I-2904J4297D01*
G01*
X120722D01*
G75*
G02*
X117139Y453193I1J5189D01*
G01*
X114295D01*
Y444866D01*
X105102D01*
Y453193D01*
X103833D01*
G75*
G02*
X100250Y451756I-3585J3752D01*
G01*
X88225D01*
X83783Y447314D01*
G37*
X281532Y442701D02*
G36*
X281532Y442701D02*
X278058Y439226D01*
X349787D01*
Y441802D01*
X348889Y442701D01*
X281532D01*
G37*
D02*
D11*
X60161Y200644D02*
X58161D01*
X60555Y163242D02*
X58555D01*
X61342Y125447D02*
X59342D01*
X62061Y198744D02*
Y196744D01*
Y202544D02*
Y204544D01*
X62455Y161342D02*
Y159342D01*
Y165142D02*
Y167142D01*
X63242Y123547D02*
Y121547D01*
Y127347D02*
Y129347D01*
X63961Y200644D02*
X65961D01*
X64355Y163242D02*
X66355D01*
X65142Y125447D02*
X67142D01*
X82208Y345919D02*
X80208D01*
X83389Y77022D02*
X81389D01*
X84108Y344019D02*
Y342019D01*
Y347819D02*
Y349819D01*
X84339Y313080D02*
X82925Y311665D01*
X84339Y315767D02*
X82925Y317181D01*
X85289Y75122D02*
Y73122D01*
Y78922D02*
Y80922D01*
X86008Y345919D02*
X88008D01*
X86539Y330171D02*
X84539D01*
X87027Y313080D02*
X88441Y311665D01*
X87027Y315767D02*
X88441Y317181D01*
X87189Y77022D02*
X89189D01*
X88439Y328271D02*
Y326271D01*
Y332071D02*
Y334071D01*
X90339Y330171D02*
X92339D01*
X106852Y279463D02*
X104852D01*
X106852Y329463D02*
X104852D01*
X106852Y379463D02*
X104852D01*
X106852Y429463D02*
X104852D01*
X109699Y276616D02*
Y274616D01*
Y282309D02*
Y284309D01*
Y326616D02*
Y324616D01*
Y332309D02*
Y334309D01*
Y376616D02*
Y374616D01*
Y382309D02*
Y384309D01*
Y426616D02*
Y424616D01*
Y432309D02*
Y434309D01*
X112545Y279463D02*
X114545D01*
X112545Y329463D02*
X114545D01*
X112545Y379463D02*
X114545D01*
X112545Y429463D02*
X114545D01*
X140870Y107730D02*
X138870D01*
X141263Y144738D02*
X139263D01*
X141263Y182533D02*
X139263D01*
X141657Y219935D02*
X139657D01*
X142770Y105830D02*
Y103830D01*
Y109630D02*
Y111630D01*
X143163Y142838D02*
Y140838D01*
Y146638D02*
Y148638D01*
Y180633D02*
Y178633D01*
Y184433D02*
Y186433D01*
X143557Y218035D02*
Y216035D01*
Y221835D02*
Y223835D01*
X144670Y107730D02*
X146670D01*
X145063Y144738D02*
X147063D01*
X145063Y182533D02*
X147063D01*
X145457Y219935D02*
X147457D01*
X149525Y41982D02*
X147525D01*
X151825Y39682D02*
Y37682D01*
Y44282D02*
Y46282D01*
X154125Y41982D02*
X156125D01*
X167376Y424463D02*
X227022D01*
X176852Y279463D02*
X174852D01*
X176852Y329463D02*
X174852D01*
X176852Y379463D02*
X174852D01*
X176852Y429463D02*
X174852D01*
X179699Y276616D02*
Y274616D01*
Y282309D02*
Y284309D01*
Y326616D02*
Y324616D01*
Y332309D02*
Y334309D01*
Y376616D02*
Y374616D01*
Y382309D02*
Y384309D01*
Y432309D02*
Y434309D01*
X182545Y279463D02*
X184545D01*
X182545Y329463D02*
X184545D01*
X182545Y379463D02*
X184545D01*
X182545Y429463D02*
X184545D01*
X200799Y349384D02*
X198799D01*
X203104Y439226D02*
X201104D01*
X203400Y346783D02*
Y344783D01*
Y351984D02*
Y353984D01*
X203468Y419935D02*
X201468D01*
X205368Y418035D02*
Y416035D01*
X205604Y436726D02*
Y434726D01*
Y441726D02*
Y443726D01*
X206000Y349384D02*
X208000D01*
X207268Y419935D02*
X209268D01*
X208104Y439226D02*
X210104D01*
X219216Y146313D02*
X217216D01*
X221116Y144413D02*
Y142413D01*
Y148213D02*
Y150213D01*
X223016Y146313D02*
X225016D01*
X247563Y428990D02*
X245563D01*
X249137Y391982D02*
X247137D01*
X249463Y427090D02*
Y425090D01*
Y430890D02*
Y432890D01*
X251037Y390082D02*
Y388082D01*
Y393882D02*
Y395882D01*
X251363Y428990D02*
X253363D01*
X252937Y391982D02*
X254937D01*
X253862Y279778D02*
X251862D01*
X254256Y204581D02*
X252256D01*
X254649Y167179D02*
X252649D01*
X254649Y242376D02*
X252649D01*
X255043Y317179D02*
X253043D01*
X255437Y354581D02*
X253437D01*
X255762Y277878D02*
Y275878D01*
Y281678D02*
Y283678D01*
X256156Y202681D02*
Y200681D01*
Y206481D02*
Y208481D01*
X256549Y165279D02*
Y163279D01*
Y169079D02*
Y171079D01*
Y240476D02*
Y238476D01*
Y244276D02*
Y246276D01*
X256618Y132140D02*
X254618D01*
X256943Y315279D02*
Y313279D01*
Y319079D02*
Y321079D01*
X257337Y352681D02*
Y350681D01*
Y356481D02*
Y358481D01*
X257662Y279778D02*
X259662D01*
X258056Y204581D02*
X260056D01*
X258449Y167179D02*
X260449D01*
X258449Y242376D02*
X260449D01*
X258518Y130240D02*
Y128240D01*
Y134040D02*
Y136040D01*
X258843Y317179D02*
X260843D01*
X259237Y354581D02*
X261237D01*
X260418Y132140D02*
X262418D01*
X308974Y41982D02*
X306974D01*
X311274Y39682D02*
Y37682D01*
Y44282D02*
Y46282D01*
X313574Y41982D02*
X315574D01*
X318422Y241982D02*
X316422D01*
X320722Y239682D02*
Y237682D01*
Y244282D02*
Y246282D01*
X323022Y241982D02*
X325022D01*
X337326Y117573D02*
X335326D01*
X339226Y115673D02*
Y113673D01*
Y119473D02*
Y121473D01*
X341126Y117573D02*
X343126D01*
X343899Y402167D02*
X342485Y400753D01*
X343899Y405420D02*
X342485Y406834D01*
X344807Y173915D02*
X342807D01*
X346707Y172015D02*
Y170015D01*
Y175815D02*
Y177815D01*
X347152Y402167D02*
X348566Y400753D01*
X347152Y405420D02*
X348566Y406834D01*
X348607Y173915D02*
X350607D01*
D02*
D12*
X62061Y200644D03*
X62455Y163242D03*
X63242Y125447D03*
X82140Y293207D03*
X84108Y345919D03*
X85289Y77022D03*
X85683Y314423D03*
X88439Y330171D03*
X92770Y315604D03*
X106156Y91982D03*
Y99069D03*
X106549Y105368D03*
X119148D03*
X127022Y99069D03*
X142770Y107730D03*
X143163Y144738D03*
Y182533D03*
X143557Y219935D03*
X160486Y99463D03*
X167376Y424463D03*
X181352Y120329D03*
Y134502D03*
X188833Y113636D03*
Y134502D03*
X195919Y107337D03*
Y134502D03*
X205368Y419935D03*
X211274Y338439D03*
X221116Y146313D03*
X227022Y424463D03*
X249463Y428990D03*
X251037Y391982D03*
X255762Y279778D03*
X256156Y204581D03*
X256549Y167179D03*
Y242376D03*
X256943Y317179D03*
X257337Y354581D03*
X258518Y132140D03*
X269935Y252612D03*
Y290014D03*
Y327415D03*
Y364817D03*
Y401825D03*
Y438439D03*
X270329Y140407D03*
Y177809D03*
Y214817D03*
X309699Y253006D03*
X339226Y117573D03*
X346707Y173915D03*
D02*
D13*
X77415Y98281D03*
Y135683D03*
Y173085D03*
Y210486D03*
X78596Y353793D03*
X151825Y41982D03*
X157337Y117573D03*
Y154974D03*
Y192376D03*
Y229778D03*
X215604Y449463D03*
X310880Y105762D03*
X311274Y41982D03*
X320722Y241982D03*
X330171Y174659D03*
X345526Y403793D03*
D02*
D14*
X82140Y293207D02*
X88089D01*
X92770Y297888D01*
Y315604D01*
X179699Y389463D02*
X189384D01*
X191589Y387258D01*
Y341982D01*
X195132Y338439D01*
X211274D01*
D02*
D15*
X34502Y405368D02*
X73872D01*
X100250Y456943D02*
X120722D01*
X106156Y91982D02*
X153006D01*
X160486Y99463D01*
X106156Y99069D02*
X127022D01*
X106549Y105368D02*
X119148D01*
X173478Y456943D02*
X186470D01*
X179699Y409463D02*
X197337D01*
X203400Y403400D01*
Y379384D01*
X181352Y134502D02*
Y120329D01*
X188833Y134502D02*
Y113636D01*
X195919Y134502D02*
Y107337D01*
X215604Y449463D02*
Y456943D01*
X309699Y253006D02*
X303400Y259305D01*
Y288045D01*
X308124Y292770D01*
X313951D01*
X314030Y292691D01*
X330171Y174659D02*
Y121116D01*
X324659Y115604D01*
X315604D01*
X310880Y110880D01*
Y105762D01*
X330171Y174659D02*
Y197888D01*
X334502Y202219D01*
X345132D01*
X359699D01*
X364030Y206549D01*
Y236077D01*
D02*
D16*
X29778Y353793D02*
Y400644D01*
X34502Y405368D01*
X29778Y353793D02*
Y269148D01*
X34108Y264817D01*
X73478D01*
X77415Y260880D01*
X73872Y405368D02*
X78596Y410093D01*
Y449463D01*
X86077Y456943D01*
X100250D01*
X77415Y135683D02*
Y98281D01*
Y173085D02*
Y135683D01*
Y210486D02*
Y173085D01*
Y260880D02*
Y210486D01*
X78596Y353793D02*
X29778D01*
X120722Y456943D02*
X173478D01*
X157337Y229778D02*
Y117573D01*
Y229778D02*
Y245919D01*
X154581Y248675D01*
X80959D01*
X77415Y252219D01*
Y260880D01*
X186470Y456943D02*
X215604D01*
X355368D01*
X364030Y448281D01*
Y236077D01*
X269935Y252612D02*
Y290014D01*
Y327415D01*
Y364817D01*
Y401825D01*
Y438439D01*
X270329Y177809D02*
Y140407D01*
Y214817D02*
Y177809D01*
Y242219D02*
Y214817D01*
Y242219D02*
X269935D01*
Y252612D01*
X345132Y242219D02*
Y242376D01*
X354974Y252219D01*
Y443951D01*
X351037Y447888D01*
X279384D01*
X269935Y438439D01*
X364030Y236077D02*
Y235683D01*
X360565Y232219D01*
X345132D01*
D02*
D17*
X41982Y298675D03*
X193163Y79384D03*
X314030Y372691D03*
X345132Y202219D03*
D02*
D18*
X41982Y308675D03*
Y318675D03*
Y328675D03*
Y338675D03*
X203163Y79384D03*
X213163D03*
X223163D03*
X233163D03*
X243163D03*
X253163D03*
X263163D03*
X273163D03*
X283163D03*
X314030Y282691D03*
Y292691D03*
Y302691D03*
Y312691D03*
Y322691D03*
Y332691D03*
Y342691D03*
Y352691D03*
Y362691D03*
X345132Y212219D03*
Y222219D03*
Y232219D03*
Y242219D03*
D02*
D19*
X45132Y386077D03*
D02*
D70*
Y396077D03*
D02*
D71*
X215604Y439226D03*
D02*
D20*
X195604D03*
X205604D03*
D02*
D21*
X109699Y449463D03*
D02*
D22*
Y259463D03*
Y269463D03*
Y279463D03*
Y289463D03*
Y299463D03*
Y309463D03*
Y319463D03*
Y329463D03*
Y339463D03*
Y349463D03*
Y359463D03*
Y369463D03*
Y379463D03*
Y389463D03*
Y399463D03*
Y409463D03*
Y419463D03*
Y429463D03*
Y439463D03*
X179699Y259463D03*
Y269463D03*
Y279463D03*
Y289463D03*
Y299463D03*
Y309463D03*
Y319463D03*
Y329463D03*
Y339463D03*
Y349463D03*
Y359463D03*
Y369463D03*
Y379463D03*
Y389463D03*
Y399463D03*
Y409463D03*
Y419463D03*
Y429463D03*
Y439463D03*
Y449463D03*
D02*
D23*
X203400Y379384D03*
D02*
D24*
Y349384D03*
Y359384D03*
Y369384D03*
X0Y0D02*
M02*
