G04 DesignSpark PCB PRO Gerber Version 10.0 Build 5299*
G04 #@! TF.Part,Single*
G04 #@! TF.FileFunction,Legend,Top*
G04 #@! TF.FilePolarity,Positive*
%FSLAX35Y35*%
%MOIN*%
%ADD10C,0.00500*%
%ADD80C,0.00787*%
%ADD11C,0.01000*%
G04 #@! TD.AperFunction*
X0Y0D02*
D02*
D10*
X20698Y152600D02*
X20385Y152287D01*
X19760Y151975D01*
X18823D01*
X18198Y152287D01*
X17885Y152600D01*
X17573Y153225D01*
Y154475D01*
X17885Y155100D01*
X18198Y155413D01*
X18823Y155725D01*
X19760D01*
X20385Y155413D01*
X20698Y155100D01*
X22573Y153225D02*
Y154475D01*
X22885Y155100D01*
X23198Y155413D01*
X23823Y155725D01*
X24448D01*
X25073Y155413D01*
X25385Y155100D01*
X25698Y154475D01*
Y153225D01*
X25385Y152600D01*
X25073Y152287D01*
X24448Y151975D01*
X23823D01*
X23198Y152287D01*
X22885Y152600D01*
X22573Y153225D01*
X27573Y151975D02*
Y155725D01*
X30698Y151975D01*
Y155725D01*
X32573Y151975D02*
Y155725D01*
X35698Y151975D01*
Y155725D01*
X38198Y151975D02*
X39448D01*
X38823D02*
Y155725D01*
X38198Y155100D01*
X42573Y152913D02*
X42885Y153537D01*
X43510Y153850D01*
X44135D01*
X44760Y153537D01*
X45073Y152913D01*
X44760Y152287D01*
X44135Y151975D01*
X43510D01*
X42885Y152287D01*
X42573Y152913D01*
Y153850D01*
X42885Y154787D01*
X43510Y155413D01*
X44135Y155725D01*
X20698Y227009D02*
X20385Y226697D01*
X19760Y226384D01*
X18823D01*
X18198Y226697D01*
X17885Y227009D01*
X17573Y227634D01*
Y228884D01*
X17885Y229509D01*
X18198Y229822D01*
X18823Y230134D01*
X19760D01*
X20385Y229822D01*
X20698Y229509D01*
X22573Y227634D02*
Y228884D01*
X22885Y229509D01*
X23198Y229822D01*
X23823Y230134D01*
X24448D01*
X25073Y229822D01*
X25385Y229509D01*
X25698Y228884D01*
Y227634D01*
X25385Y227009D01*
X25073Y226697D01*
X24448Y226384D01*
X23823D01*
X23198Y226697D01*
X22885Y227009D01*
X22573Y227634D01*
X27573Y226384D02*
Y230134D01*
X30698Y226384D01*
Y230134D01*
X32573Y226384D02*
Y230134D01*
X35698Y226384D01*
Y230134D01*
X38198Y226384D02*
X39448D01*
X38823D02*
Y230134D01*
X38198Y229509D01*
X42885Y226697D02*
X43510Y226384D01*
X44135D01*
X44760Y226697D01*
X45073Y227322D01*
Y229197D01*
X44760Y229822D01*
X44135Y230134D01*
X43510D01*
X42885Y229822D01*
X42573Y229197D01*
Y227322D01*
X42885Y226697D01*
X44760Y229822D01*
X21092Y115198D02*
X20779Y114886D01*
X20154Y114573D01*
X19217D01*
X18592Y114886D01*
X18279Y115198D01*
X17967Y115823D01*
Y117073D01*
X18279Y117698D01*
X18592Y118011D01*
X19217Y118323D01*
X20154D01*
X20779Y118011D01*
X21092Y117698D01*
X22967Y115823D02*
Y117073D01*
X23279Y117698D01*
X23592Y118011D01*
X24217Y118323D01*
X24842D01*
X25467Y118011D01*
X25779Y117698D01*
X26092Y117073D01*
Y115823D01*
X25779Y115198D01*
X25467Y114886D01*
X24842Y114573D01*
X24217D01*
X23592Y114886D01*
X23279Y115198D01*
X22967Y115823D01*
X27967Y114573D02*
Y118323D01*
X31092Y114573D01*
Y118323D01*
X32967Y114573D02*
Y118323D01*
X36092Y114573D01*
Y118323D01*
X38592Y114573D02*
X39842D01*
X39217D02*
Y118323D01*
X38592Y117698D01*
X43592Y114573D02*
X44842D01*
X44217D02*
Y118323D01*
X43592Y117698D01*
X21092Y190002D02*
X20779Y189689D01*
X20154Y189376D01*
X19217D01*
X18592Y189689D01*
X18279Y190002D01*
X17967Y190626D01*
Y191876D01*
X18279Y192502D01*
X18592Y192814D01*
X19217Y193126D01*
X20154D01*
X20779Y192814D01*
X21092Y192502D01*
X22967Y190626D02*
Y191876D01*
X23279Y192502D01*
X23592Y192814D01*
X24217Y193126D01*
X24842D01*
X25467Y192814D01*
X25779Y192502D01*
X26092Y191876D01*
Y190626D01*
X25779Y190002D01*
X25467Y189689D01*
X24842Y189376D01*
X24217D01*
X23592Y189689D01*
X23279Y190002D01*
X22967Y190626D01*
X27967Y189376D02*
Y193126D01*
X31092Y189376D01*
Y193126D01*
X32967Y189376D02*
Y193126D01*
X36092Y189376D01*
Y193126D01*
X38592Y189376D02*
X39842D01*
X39217D02*
Y193126D01*
X38592Y192502D01*
X43279Y189689D02*
X43904Y189376D01*
X44529D01*
X45154Y189689D01*
X45467Y190314D01*
X45154Y190939D01*
X44529Y191252D01*
X43904D01*
X44529D02*
X45154Y191564D01*
X45467Y192189D01*
X45154Y192814D01*
X44529Y193126D01*
X43904D01*
X43279Y192814D01*
X29384Y357487D02*
Y361237D01*
X31571D01*
X32196Y360924D01*
X32509Y360299D01*
X32196Y359674D01*
X31571Y359362D01*
X29384D01*
X31571D02*
X32509Y357487D01*
X34384Y358424D02*
X34696Y359049D01*
X35321Y359362D01*
X35946D01*
X36571Y359049D01*
X36884Y358424D01*
X36571Y357799D01*
X35946Y357487D01*
X35321D01*
X34696Y357799D01*
X34384Y358424D01*
Y359362D01*
X34696Y360299D01*
X35321Y360924D01*
X35946Y361237D01*
X39696Y357799D02*
X40321Y357487D01*
X40946D01*
X41571Y357799D01*
X41884Y358424D01*
X41571Y359049D01*
X40946Y359362D01*
X40321D01*
X40946D02*
X41571Y359674D01*
X41884Y360299D01*
X41571Y360924D01*
X40946Y361237D01*
X40321D01*
X39696Y360924D01*
X29778Y108343D02*
Y109593D01*
X30090Y110218D01*
X30403Y110531D01*
X31028Y110843D01*
X31653D01*
X32278Y110531D01*
X32590Y110218D01*
X32903Y109593D01*
Y108343D01*
X32590Y107718D01*
X32278Y107406D01*
X31653Y107093D01*
X31028D01*
X30403Y107406D01*
X30090Y107718D01*
X29778Y108343D01*
X31965Y108031D02*
X32903Y107093D01*
X37278D02*
X34778D01*
X36965Y109281D01*
X37278Y109906D01*
X36965Y110531D01*
X36340Y110843D01*
X35403D01*
X34778Y110531D01*
X40715Y108968D02*
X41340D01*
X41965Y109281D01*
X42278Y109906D01*
X41965Y110531D01*
X41340Y110843D01*
X40715D01*
X40090Y110531D01*
X39778Y109906D01*
X40090Y109281D01*
X40715Y108968D01*
X40090Y108656D01*
X39778Y108031D01*
X40090Y107406D01*
X40715Y107093D01*
X41340D01*
X41965Y107406D01*
X42278Y108031D01*
X41965Y108656D01*
X41340Y108968D01*
X30171Y220941D02*
Y222191D01*
X30484Y222817D01*
X30796Y223129D01*
X31421Y223441D01*
X32046D01*
X32671Y223129D01*
X32984Y222817D01*
X33296Y222191D01*
Y220941D01*
X32984Y220317D01*
X32671Y220004D01*
X32046Y219691D01*
X31421D01*
X30796Y220004D01*
X30484Y220317D01*
X30171Y220941D01*
X32359Y220629D02*
X33296Y219691D01*
X37671D02*
X35171D01*
X37359Y221879D01*
X37671Y222504D01*
X37359Y223129D01*
X36734Y223441D01*
X35796D01*
X35171Y223129D01*
X42671Y219691D02*
X40171D01*
X42359Y221879D01*
X42671Y222504D01*
X42359Y223129D01*
X41734Y223441D01*
X40796D01*
X40171Y223129D01*
X30565Y146138D02*
Y147388D01*
X30878Y148013D01*
X31190Y148326D01*
X31815Y148638D01*
X32440D01*
X33065Y148326D01*
X33378Y148013D01*
X33690Y147388D01*
Y146138D01*
X33378Y145513D01*
X33065Y145201D01*
X32440Y144888D01*
X31815D01*
X31190Y145201D01*
X30878Y145513D01*
X30565Y146138D01*
X32752Y145826D02*
X33690Y144888D01*
X38065D02*
X35565D01*
X37752Y147076D01*
X38065Y147701D01*
X37752Y148326D01*
X37128Y148638D01*
X36190D01*
X35565Y148326D01*
X40565Y145826D02*
X40878Y146451D01*
X41502Y146763D01*
X42128D01*
X42752Y146451D01*
X43065Y145826D01*
X42752Y145201D01*
X42128Y144888D01*
X41502D01*
X40878Y145201D01*
X40565Y145826D01*
Y146763D01*
X40878Y147701D01*
X41502Y148326D01*
X42128Y148638D01*
X30565Y183540D02*
Y184790D01*
X30878Y185415D01*
X31190Y185728D01*
X31815Y186040D01*
X32440D01*
X33065Y185728D01*
X33378Y185415D01*
X33690Y184790D01*
Y183540D01*
X33378Y182915D01*
X33065Y182602D01*
X32440Y182290D01*
X31815D01*
X31190Y182602D01*
X30878Y182915D01*
X30565Y183540D01*
X32752Y183228D02*
X33690Y182290D01*
X38065D02*
X35565D01*
X37752Y184478D01*
X38065Y185102D01*
X37752Y185728D01*
X37128Y186040D01*
X36190D01*
X35565Y185728D01*
X42128Y182290D02*
Y186040D01*
X40565Y183540D01*
X43065D01*
X29396Y386864D02*
X29709Y387177D01*
X30021Y387802D01*
X29709Y388427D01*
X29396Y388739D01*
X26271D01*
Y389364D01*
Y388739D02*
Y387489D01*
X29083Y391864D02*
X28459Y392177D01*
X28146Y392802D01*
Y393427D01*
X28459Y394052D01*
X29083Y394364D01*
X29709Y394052D01*
X30021Y393427D01*
Y392802D01*
X29709Y392177D01*
X29083Y391864D01*
X28146D01*
X27209Y392177D01*
X26583Y392802D01*
X26271Y393427D01*
X38045Y87014D02*
Y90764D01*
X40233D01*
X40858Y90452D01*
X41170Y89827D01*
X40858Y89202D01*
X40233Y88889D01*
X38045D01*
X40233D02*
X41170Y87014D01*
X44608D02*
Y90764D01*
X43045Y88264D01*
X45545D01*
X50545Y87014D02*
X48045D01*
X50233Y89202D01*
X50545Y89827D01*
X50233Y90452D01*
X49608Y90764D01*
X48670D01*
X48045Y90452D01*
X38045Y373048D02*
Y369298D01*
X41170D01*
X43045D02*
Y373048D01*
X46170D01*
X45545Y371173D02*
X43045D01*
Y369298D02*
X46170D01*
X48045D02*
Y373048D01*
X49920D01*
X50545Y372735D01*
X50858Y372423D01*
X51170Y371798D01*
Y370548D01*
X50858Y369923D01*
X50545Y369610D01*
X49920Y369298D01*
X48045D01*
X55545D02*
X53045D01*
X55233Y371485D01*
X55545Y372110D01*
X55233Y372735D01*
X54608Y373048D01*
X53670D01*
X53045Y372735D01*
X58358Y369610D02*
X58983Y369298D01*
X59608D01*
X60233Y369610D01*
X60545Y370235D01*
Y372110D01*
X60233Y372735D01*
X59608Y373048D01*
X58983D01*
X58358Y372735D01*
X58045Y372110D01*
Y370235D01*
X58358Y369610D01*
X60233Y372735D01*
X38194Y91694D02*
Y96994D01*
X50494D01*
Y91694D01*
X38194D01*
X38833Y124416D02*
Y128166D01*
X41020D01*
X41645Y127854D01*
X41958Y127228D01*
X41645Y126604D01*
X41020Y126291D01*
X38833D01*
X41020D02*
X41958Y124416D01*
X44145Y124728D02*
X44770Y124416D01*
X45395D01*
X46020Y124728D01*
X46333Y125354D01*
X46020Y125978D01*
X45395Y126291D01*
X44770D01*
X45395D02*
X46020Y126604D01*
X46333Y127228D01*
X46020Y127854D01*
X45395Y128166D01*
X44770D01*
X44145Y127854D01*
X49770Y124416D02*
X50395Y124728D01*
X51020Y125354D01*
X51333Y126291D01*
Y127228D01*
X51020Y127854D01*
X50395Y128166D01*
X49770D01*
X49145Y127854D01*
X48833Y127228D01*
X49145Y126604D01*
X49770Y126291D01*
X50395D01*
X51020Y126604D01*
X51333Y127228D01*
X38833Y199219D02*
Y202969D01*
X41020D01*
X41645Y202657D01*
X41958Y202031D01*
X41645Y201407D01*
X41020Y201094D01*
X38833D01*
X41020D02*
X41958Y199219D01*
X44145Y199531D02*
X44770Y199219D01*
X45395D01*
X46020Y199531D01*
X46333Y200157D01*
X46020Y200781D01*
X45395Y201094D01*
X44770D01*
X45395D02*
X46020Y201407D01*
X46333Y202031D01*
X46020Y202657D01*
X45395Y202969D01*
X44770D01*
X44145Y202657D01*
X49145Y199531D02*
X49770Y199219D01*
X50395D01*
X51020Y199531D01*
X51333Y200157D01*
X51020Y200781D01*
X50395Y201094D01*
X49770D01*
X50395D02*
X51020Y201407D01*
X51333Y202031D01*
X51020Y202657D01*
X50395Y202969D01*
X49770D01*
X49145Y202657D01*
X38982Y129096D02*
Y134396D01*
X51282D01*
Y129096D01*
X38982D01*
Y166498D02*
Y171798D01*
X51282D01*
Y166498D01*
X38982D01*
Y203899D02*
Y209199D01*
X51282D01*
Y203899D01*
X38982D01*
X39226Y161817D02*
Y165567D01*
X41414D01*
X42039Y165255D01*
X42352Y164630D01*
X42039Y164005D01*
X41414Y163693D01*
X39226D01*
X41414D02*
X42352Y161817D01*
X44539Y162130D02*
X45164Y161817D01*
X45789D01*
X46414Y162130D01*
X46726Y162755D01*
X46414Y163380D01*
X45789Y163693D01*
X45164D01*
X45789D02*
X46414Y164005D01*
X46726Y164630D01*
X46414Y165255D01*
X45789Y165567D01*
X45164D01*
X44539Y165255D01*
X50164Y163693D02*
X50789D01*
X51414Y164005D01*
X51726Y164630D01*
X51414Y165255D01*
X50789Y165567D01*
X50164D01*
X49539Y165255D01*
X49226Y164630D01*
X49539Y164005D01*
X50164Y163693D01*
X49539Y163380D01*
X49226Y162755D01*
X49539Y162130D01*
X50164Y161817D01*
X50789D01*
X51414Y162130D01*
X51726Y162755D01*
X51414Y163380D01*
X50789Y163693D01*
X41833Y367467D02*
Y362167D01*
X29533D01*
Y367467D01*
X41833D01*
X40420Y298675D02*
X40732Y298988D01*
X41045Y299613D01*
X40732Y300238D01*
X40420Y300550D01*
X37295D01*
Y301175D01*
Y300550D02*
Y299300D01*
X41045Y306175D02*
Y303675D01*
X38857Y305863D01*
X38232Y306175D01*
X37607Y305863D01*
X37295Y305238D01*
Y304300D01*
X37607Y303675D01*
X44600Y376847D02*
X47100D01*
X45850Y375597D02*
Y378097D01*
X52762Y99069D02*
X56512D01*
Y96881D01*
X56200Y96256D01*
X55575Y95944D01*
X54950Y96256D01*
X54637Y96881D01*
Y99069D01*
Y96881D02*
X52762Y95944D01*
Y92506D02*
X56512D01*
X54012Y94069D01*
Y91569D01*
X53075Y88756D02*
X52762Y88131D01*
Y87506D01*
X53075Y86881D01*
X53700Y86569D01*
X54325Y86881D01*
X54637Y87506D01*
Y88131D01*
Y87506D02*
X54950Y86881D01*
X55575Y86569D01*
X56200Y86881D01*
X56512Y87506D01*
Y88131D01*
X56200Y88756D01*
X53156Y136864D02*
X56906D01*
Y134677D01*
X56594Y134052D01*
X55969Y133739D01*
X55344Y134052D01*
X55031Y134677D01*
Y136864D01*
Y134677D02*
X53156Y133739D01*
Y130302D02*
X56906D01*
X54406Y131864D01*
Y129364D01*
X53469Y126552D02*
X53156Y125927D01*
Y125302D01*
X53469Y124677D01*
X54094Y124364D01*
X55969D01*
X56594Y124677D01*
X56906Y125302D01*
Y125927D01*
X56594Y126552D01*
X55969Y126864D01*
X54094D01*
X53469Y126552D01*
X56594Y124677D01*
X53156Y174266D02*
X56906D01*
Y172078D01*
X56594Y171453D01*
X55969Y171141D01*
X55344Y171453D01*
X55031Y172078D01*
Y174266D01*
Y172078D02*
X53156Y171141D01*
X53469Y168953D02*
X53156Y168328D01*
Y167703D01*
X53469Y167078D01*
X54094Y166766D01*
X54719Y167078D01*
X55031Y167703D01*
Y168328D01*
Y167703D02*
X55344Y167078D01*
X55969Y166766D01*
X56594Y167078D01*
X56906Y167703D01*
Y168328D01*
X56594Y168953D01*
X54094Y164266D02*
X54719Y163953D01*
X55031Y163328D01*
Y162703D01*
X54719Y162078D01*
X54094Y161766D01*
X53469Y162078D01*
X53156Y162703D01*
Y163328D01*
X53469Y163953D01*
X54094Y164266D01*
X55031D01*
X55969Y163953D01*
X56594Y163328D01*
X56906Y162703D01*
X53156Y211667D02*
X56906D01*
Y209480D01*
X56594Y208855D01*
X55969Y208542D01*
X55344Y208855D01*
X55031Y209480D01*
Y211667D01*
Y209480D02*
X53156Y208542D01*
X53469Y206355D02*
X53156Y205730D01*
Y205105D01*
X53469Y204480D01*
X54094Y204167D01*
X54719Y204480D01*
X55031Y205105D01*
Y205730D01*
Y205105D02*
X55344Y204480D01*
X55969Y204167D01*
X56594Y204480D01*
X56906Y205105D01*
Y205730D01*
X56594Y206355D01*
X53156Y200105D02*
X56906D01*
X54406Y201667D01*
Y199167D01*
X57730Y90164D02*
Y93914D01*
X59918D01*
X60543Y93602D01*
X60856Y92976D01*
X60543Y92352D01*
X59918Y92039D01*
X57730D01*
X59918D02*
X60856Y90164D01*
X64293D02*
Y93914D01*
X62730Y91414D01*
X65230D01*
X69293Y90164D02*
Y93914D01*
X67730Y91414D01*
X70230D01*
X57730Y202369D02*
Y206119D01*
X59918D01*
X60543Y205806D01*
X60856Y205181D01*
X60543Y204556D01*
X59918Y204244D01*
X57730D01*
X59918D02*
X60856Y202369D01*
X63043Y202681D02*
X63668Y202369D01*
X64293D01*
X64918Y202681D01*
X65230Y203306D01*
X64918Y203931D01*
X64293Y204244D01*
X63668D01*
X64293D02*
X64918Y204556D01*
X65230Y205181D01*
X64918Y205806D01*
X64293Y206119D01*
X63668D01*
X63043Y205806D01*
X67730Y202681D02*
X68356Y202369D01*
X69293D01*
X69918Y202681D01*
X70230Y203306D01*
Y203619D01*
X69918Y204244D01*
X69293Y204556D01*
X67730D01*
Y206119D01*
X70230D01*
X57730Y319760D02*
Y321010D01*
X58043Y321635D01*
X58356Y321948D01*
X58980Y322260D01*
X59606D01*
X60230Y321948D01*
X60543Y321635D01*
X60856Y321010D01*
Y319760D01*
X60543Y319135D01*
X60230Y318823D01*
X59606Y318510D01*
X58980D01*
X58356Y318823D01*
X58043Y319135D01*
X57730Y319760D01*
X59918Y319448D02*
X60856Y318510D01*
X65230D02*
X62730D01*
X64918Y320698D01*
X65230Y321323D01*
X64918Y321948D01*
X64293Y322260D01*
X63356D01*
X62730Y321948D01*
X57730Y333540D02*
Y334790D01*
X58043Y335415D01*
X58356Y335728D01*
X58980Y336040D01*
X59606D01*
X60230Y335728D01*
X60543Y335415D01*
X60856Y334790D01*
Y333540D01*
X60543Y332915D01*
X60230Y332602D01*
X59606Y332290D01*
X58980D01*
X58356Y332602D01*
X58043Y332915D01*
X57730Y333540D01*
X59918Y333228D02*
X60856Y332290D01*
X63043Y332602D02*
X63668Y332290D01*
X64293D01*
X64918Y332602D01*
X65230Y333228D01*
X64918Y333852D01*
X64293Y334165D01*
X63668D01*
X64293D02*
X64918Y334478D01*
X65230Y335102D01*
X64918Y335728D01*
X64293Y336040D01*
X63668D01*
X63043Y335728D01*
X57975Y119042D02*
Y113742D01*
X45675D01*
Y119042D01*
X57975D01*
X58018Y100006D02*
X52718D01*
Y112306D01*
X58018D01*
Y100006D01*
X58124Y164967D02*
Y168717D01*
X60311D01*
X60937Y168405D01*
X61249Y167780D01*
X60937Y167155D01*
X60311Y166842D01*
X58124D01*
X60311D02*
X61249Y164967D01*
X63437Y165280D02*
X64061Y164967D01*
X64687D01*
X65311Y165280D01*
X65624Y165905D01*
X65311Y166530D01*
X64687Y166842D01*
X64061D01*
X64687D02*
X65311Y167155D01*
X65624Y167780D01*
X65311Y168405D01*
X64687Y168717D01*
X64061D01*
X63437Y168405D01*
X68124Y164967D02*
X70624Y168717D01*
X68124D01*
X58369Y156443D02*
Y151143D01*
X46069D01*
Y156443D01*
X58369D01*
Y193845D02*
Y188545D01*
X46069D01*
Y193845D01*
X58369D01*
Y231246D02*
Y225946D01*
X46069D01*
Y231246D01*
X58369D01*
X58412Y137801D02*
X53112D01*
Y150101D01*
X58412D01*
Y137801D01*
Y175202D02*
X53112D01*
Y187502D01*
X58412D01*
Y175202D01*
Y212604D02*
X53112D01*
Y224904D01*
X58412D01*
Y212604D01*
X58518Y127565D02*
Y131315D01*
X60705D01*
X61330Y131003D01*
X61643Y130378D01*
X61330Y129753D01*
X60705Y129441D01*
X58518D01*
X60705D02*
X61643Y127565D01*
X65080D02*
Y131315D01*
X63518Y128815D01*
X66018D01*
X69143Y127565D02*
X70393D01*
X69768D02*
Y131315D01*
X69143Y130691D01*
X58518Y305981D02*
Y307231D01*
X58830Y307856D01*
X59143Y308169D01*
X59768Y308481D01*
X60393D01*
X61018Y308169D01*
X61330Y307856D01*
X61643Y307231D01*
Y305981D01*
X61330Y305356D01*
X61018Y305043D01*
X60393Y304731D01*
X59768D01*
X59143Y305043D01*
X58830Y305356D01*
X58518Y305981D01*
X60705Y305669D02*
X61643Y304731D01*
X64143D02*
X65393D01*
X64768D02*
Y308481D01*
X64143Y307856D01*
X58368Y285683D02*
X54618D01*
Y287870D01*
X54930Y288496D01*
X55555Y288808D01*
X56180Y288496D01*
X56493Y287870D01*
Y285683D01*
Y287870D02*
X58368Y288808D01*
Y292246D02*
X54618D01*
X57118Y290683D01*
Y293183D01*
X59411Y302857D02*
X64711D01*
Y290557D01*
X59411D01*
Y302857D01*
X59454Y283820D02*
Y289120D01*
X71754D01*
Y283820D01*
X59454D01*
X64399Y279765D02*
X64086Y279453D01*
X63461Y279140D01*
X62524D01*
X61899Y279453D01*
X61586Y279765D01*
X61274Y280390D01*
Y281640D01*
X61586Y282265D01*
X61899Y282578D01*
X62524Y282890D01*
X63461D01*
X64086Y282578D01*
X64399Y282265D01*
X66899Y279140D02*
X68149D01*
X67524D02*
Y282890D01*
X66899Y282265D01*
X66104Y302857D02*
X71404D01*
Y290557D01*
X66104D01*
Y302857D01*
X75447Y403550D02*
Y407300D01*
X78572D01*
X77947Y405425D02*
X75447D01*
X81072Y403550D02*
X82322D01*
X81697D02*
Y407300D01*
X81072Y406675D01*
X76478Y292770D02*
X72728D01*
Y294957D01*
X73040Y295582D01*
X73665Y295895D01*
X74290Y295582D01*
X74603Y294957D01*
Y292770D01*
Y294957D02*
X76478Y295895D01*
X76165Y298082D02*
X76478Y298707D01*
Y299332D01*
X76165Y299957D01*
X75540Y300270D01*
X74915Y299957D01*
X74603Y299332D01*
Y298707D01*
Y299332D02*
X74290Y299957D01*
X73665Y300270D01*
X73040Y299957D01*
X72728Y299332D01*
Y298707D01*
X73040Y298082D01*
X80853Y304730D02*
X75553D01*
Y317030D01*
X80853D01*
Y304730D01*
Y318509D02*
X75553D01*
Y330809D01*
X80853D01*
Y318509D01*
Y332289D02*
X75553D01*
Y344589D01*
X80853D01*
Y332289D01*
X83172Y91089D02*
Y85789D01*
X70872D01*
Y91089D01*
X83172D01*
Y128491D02*
Y123191D01*
X70872D01*
Y128491D01*
X83172D01*
X83565Y165892D02*
Y160592D01*
X71265D01*
Y165892D01*
X83565D01*
Y203294D02*
Y197994D01*
X71265D01*
Y203294D01*
X83565D01*
X84502Y118185D02*
Y119435D01*
X84815Y120061D01*
X85127Y120373D01*
X85752Y120685D01*
X86377D01*
X87002Y120373D01*
X87315Y120061D01*
X87627Y119435D01*
Y118185D01*
X87315Y117561D01*
X87002Y117248D01*
X86377Y116935D01*
X85752D01*
X85127Y117248D01*
X84815Y117561D01*
X84502Y118185D01*
X86689Y117873D02*
X87627Y116935D01*
X92002D02*
X89502D01*
X91689Y119123D01*
X92002Y119748D01*
X91689Y120373D01*
X91065Y120685D01*
X90127D01*
X89502Y120373D01*
X95439Y116935D02*
X96065Y117248D01*
X96689Y117873D01*
X97002Y118811D01*
Y119748D01*
X96689Y120373D01*
X96065Y120685D01*
X95439D01*
X94815Y120373D01*
X94502Y119748D01*
X94815Y119123D01*
X95439Y118811D01*
X96065D01*
X96689Y119123D01*
X97002Y119748D01*
X84502Y155587D02*
Y156837D01*
X84815Y157462D01*
X85127Y157775D01*
X85752Y158087D01*
X86377D01*
X87002Y157775D01*
X87315Y157462D01*
X87627Y156837D01*
Y155587D01*
X87315Y154962D01*
X87002Y154650D01*
X86377Y154337D01*
X85752D01*
X85127Y154650D01*
X84815Y154962D01*
X84502Y155587D01*
X86689Y155275D02*
X87627Y154337D01*
X92002D02*
X89502D01*
X91689Y156525D01*
X92002Y157150D01*
X91689Y157775D01*
X91065Y158087D01*
X90127D01*
X89502Y157775D01*
X94502Y154337D02*
X97002Y158087D01*
X94502D01*
X84502Y192989D02*
Y194239D01*
X84815Y194864D01*
X85127Y195176D01*
X85752Y195489D01*
X86377D01*
X87002Y195176D01*
X87315Y194864D01*
X87627Y194239D01*
Y192989D01*
X87315Y192364D01*
X87002Y192051D01*
X86377Y191739D01*
X85752D01*
X85127Y192051D01*
X84815Y192364D01*
X84502Y192989D01*
X86689Y192676D02*
X87627Y191739D01*
X92002D02*
X89502D01*
X91689Y193926D01*
X92002Y194551D01*
X91689Y195176D01*
X91065Y195489D01*
X90127D01*
X89502Y195176D01*
X94502Y192051D02*
X95127Y191739D01*
X96065D01*
X96689Y192051D01*
X97002Y192676D01*
Y192989D01*
X96689Y193614D01*
X96065Y193926D01*
X94502D01*
Y195489D01*
X97002D01*
X84502Y230390D02*
Y231640D01*
X84815Y232265D01*
X85127Y232578D01*
X85752Y232890D01*
X86377D01*
X87002Y232578D01*
X87315Y232265D01*
X87627Y231640D01*
Y230390D01*
X87315Y229765D01*
X87002Y229453D01*
X86377Y229140D01*
X85752D01*
X85127Y229453D01*
X84815Y229765D01*
X84502Y230390D01*
X86689Y230078D02*
X87627Y229140D01*
X92002D02*
X89502D01*
X91689Y231328D01*
X92002Y231953D01*
X91689Y232578D01*
X91065Y232890D01*
X90127D01*
X89502Y232578D01*
X94815Y229453D02*
X95439Y229140D01*
X96065D01*
X96689Y229453D01*
X97002Y230078D01*
X96689Y230703D01*
X96065Y231015D01*
X95439D01*
X96065D02*
X96689Y231328D01*
X97002Y231953D01*
X96689Y232578D01*
X96065Y232890D01*
X95439D01*
X94815Y232578D01*
X85533Y304974D02*
X81783D01*
Y307162D01*
X82095Y307787D01*
X82720Y308100D01*
X83345Y307787D01*
X83658Y307162D01*
Y304974D01*
Y307162D02*
X85533Y308100D01*
Y310600D02*
Y311850D01*
Y311224D02*
X81783D01*
X82408Y310600D01*
X85533Y321116D02*
X81783D01*
Y323304D01*
X82095Y323929D01*
X82720Y324241D01*
X83345Y323929D01*
X83658Y323304D01*
Y321116D01*
Y323304D02*
X85533Y324241D01*
Y328616D02*
Y326116D01*
X83345Y328304D01*
X82720Y328616D01*
X82095Y328304D01*
X81783Y327679D01*
Y326741D01*
X82095Y326116D01*
X85533Y334502D02*
X81783D01*
Y336689D01*
X82095Y337315D01*
X82720Y337627D01*
X83345Y337315D01*
X83658Y336689D01*
Y334502D01*
Y336689D02*
X85533Y337627D01*
X85220Y339502D02*
X85533Y340127D01*
Y341065D01*
X85220Y341689D01*
X84595Y342002D01*
X84283D01*
X83658Y341689D01*
X83345Y341065D01*
Y339502D01*
X81783D01*
Y342002D01*
X96276Y107730D02*
X92526D01*
Y104605D01*
Y102730D02*
X96276D01*
Y99605D01*
X94401Y100230D02*
Y102730D01*
X92526D02*
Y99605D01*
Y97730D02*
X96276D01*
Y95855D01*
X95964Y95230D01*
X95651Y94918D01*
X95026Y94605D01*
X93776D01*
X93151Y94918D01*
X92839Y95230D01*
X92526Y95855D01*
Y97730D01*
Y92105D02*
Y90855D01*
Y91480D02*
X96276D01*
X95651Y92105D01*
X92839Y87418D02*
X92526Y86793D01*
Y86168D01*
X92839Y85543D01*
X93464Y85230D01*
X94089Y85543D01*
X94401Y86168D01*
Y86793D01*
Y86168D02*
X94714Y85543D01*
X95339Y85230D01*
X95964Y85543D01*
X96276Y86168D01*
Y86793D01*
X95964Y87418D01*
X96276Y145132D02*
X92526D01*
Y142007D01*
Y140132D02*
X96276D01*
Y137007D01*
X94401Y137632D02*
Y140132D01*
X92526D02*
Y137007D01*
Y135132D02*
X96276D01*
Y133257D01*
X95964Y132632D01*
X95651Y132319D01*
X95026Y132007D01*
X93776D01*
X93151Y132319D01*
X92839Y132632D01*
X92526Y133257D01*
Y135132D01*
Y129507D02*
Y128257D01*
Y128882D02*
X96276D01*
X95651Y129507D01*
X92526Y122632D02*
Y125132D01*
X94714Y122944D01*
X95339Y122632D01*
X95964Y122944D01*
X96276Y123569D01*
Y124507D01*
X95964Y125132D01*
X96276Y181746D02*
X92526D01*
Y178621D01*
Y176746D02*
X96276D01*
Y173621D01*
X94401Y174246D02*
Y176746D01*
X92526D02*
Y173621D01*
Y171746D02*
X96276D01*
Y169871D01*
X95964Y169246D01*
X95651Y168933D01*
X95026Y168621D01*
X93776D01*
X93151Y168933D01*
X92839Y169246D01*
X92526Y169871D01*
Y171746D01*
Y166121D02*
Y164871D01*
Y165496D02*
X96276D01*
X95651Y166121D01*
X92526Y161121D02*
Y159871D01*
Y160496D02*
X96276D01*
X95651Y161121D01*
X96276Y219935D02*
X92526D01*
Y216810D01*
Y214935D02*
X96276D01*
Y211810D01*
X94401Y212435D02*
Y214935D01*
X92526D02*
Y211810D01*
Y209935D02*
X96276D01*
Y208060D01*
X95964Y207435D01*
X95651Y207122D01*
X95026Y206810D01*
X93776D01*
X93151Y207122D01*
X92839Y207435D01*
X92526Y208060D01*
Y209935D01*
Y204310D02*
Y203060D01*
Y203685D02*
X96276D01*
X95651Y204310D01*
X92839Y199622D02*
X92526Y198998D01*
Y198372D01*
X92839Y197748D01*
X93464Y197435D01*
X95339D01*
X95964Y197748D01*
X96276Y198372D01*
Y198998D01*
X95964Y199622D01*
X95339Y199935D01*
X93464D01*
X92839Y199622D01*
X95964Y197748D01*
X101800Y134096D02*
X101488Y133783D01*
X100863Y133471D01*
X99925D01*
X99300Y133783D01*
X98988Y134096D01*
X98675Y134721D01*
Y135971D01*
X98988Y136596D01*
X99300Y136909D01*
X99925Y137221D01*
X100863D01*
X101488Y136909D01*
X101800Y136596D01*
X103675Y134721D02*
Y135971D01*
X103988Y136596D01*
X104300Y136909D01*
X104925Y137221D01*
X105550D01*
X106175Y136909D01*
X106488Y136596D01*
X106800Y135971D01*
Y134721D01*
X106488Y134096D01*
X106175Y133783D01*
X105550Y133471D01*
X104925D01*
X104300Y133783D01*
X103988Y134096D01*
X103675Y134721D01*
X108675Y133471D02*
Y137221D01*
X111800Y133471D01*
Y137221D01*
X113675Y133471D02*
Y137221D01*
X116800Y133471D01*
Y137221D01*
X119300Y133471D02*
X120550D01*
X119925D02*
Y137221D01*
X119300Y136596D01*
X123675Y133783D02*
X124300Y133471D01*
X125238D01*
X125863Y133783D01*
X126175Y134409D01*
Y134721D01*
X125863Y135346D01*
X125238Y135659D01*
X123675D01*
Y137221D01*
X126175D01*
X101800Y171891D02*
X101488Y171579D01*
X100863Y171266D01*
X99925D01*
X99300Y171579D01*
X98988Y171891D01*
X98675Y172516D01*
Y173766D01*
X98988Y174391D01*
X99300Y174704D01*
X99925Y175016D01*
X100863D01*
X101488Y174704D01*
X101800Y174391D01*
X103675Y172516D02*
Y173766D01*
X103988Y174391D01*
X104300Y174704D01*
X104925Y175016D01*
X105550D01*
X106175Y174704D01*
X106488Y174391D01*
X106800Y173766D01*
Y172516D01*
X106488Y171891D01*
X106175Y171579D01*
X105550Y171266D01*
X104925D01*
X104300Y171579D01*
X103988Y171891D01*
X103675Y172516D01*
X108675Y171266D02*
Y175016D01*
X111800Y171266D01*
Y175016D01*
X113675Y171266D02*
Y175016D01*
X116800Y171266D01*
Y175016D01*
X119300Y171266D02*
X120550D01*
X119925D02*
Y175016D01*
X119300Y174391D01*
X126175Y171266D02*
X123675D01*
X125863Y173454D01*
X126175Y174079D01*
X125863Y174704D01*
X125238Y175016D01*
X124300D01*
X123675Y174704D01*
X101800Y209293D02*
X101488Y208980D01*
X100863Y208668D01*
X99925D01*
X99300Y208980D01*
X98988Y209293D01*
X98675Y209918D01*
Y211168D01*
X98988Y211793D01*
X99300Y212106D01*
X99925Y212418D01*
X100863D01*
X101488Y212106D01*
X101800Y211793D01*
X103675Y209918D02*
Y211168D01*
X103988Y211793D01*
X104300Y212106D01*
X104925Y212418D01*
X105550D01*
X106175Y212106D01*
X106488Y211793D01*
X106800Y211168D01*
Y209918D01*
X106488Y209293D01*
X106175Y208980D01*
X105550Y208668D01*
X104925D01*
X104300Y208980D01*
X103988Y209293D01*
X103675Y209918D01*
X108675Y208668D02*
Y212418D01*
X111800Y208668D01*
Y212418D01*
X113675Y208668D02*
Y212418D01*
X116800Y208668D01*
Y212418D01*
X119300Y208668D02*
X120550D01*
X119925D02*
Y212418D01*
X119300Y211793D01*
X123675Y208668D02*
X126175Y212418D01*
X123675D01*
X101800Y245513D02*
X101488Y245201D01*
X100863Y244888D01*
X99925D01*
X99300Y245201D01*
X98988Y245513D01*
X98675Y246138D01*
Y247388D01*
X98988Y248013D01*
X99300Y248326D01*
X99925Y248638D01*
X100863D01*
X101488Y248326D01*
X101800Y248013D01*
X103675Y246138D02*
Y247388D01*
X103988Y248013D01*
X104300Y248326D01*
X104925Y248638D01*
X105550D01*
X106175Y248326D01*
X106488Y248013D01*
X106800Y247388D01*
Y246138D01*
X106488Y245513D01*
X106175Y245201D01*
X105550Y244888D01*
X104925D01*
X104300Y245201D01*
X103988Y245513D01*
X103675Y246138D01*
X108675Y244888D02*
Y248638D01*
X111800Y244888D01*
Y248638D01*
X113675Y244888D02*
Y248638D01*
X116800Y244888D01*
Y248638D01*
X119300Y244888D02*
X120550D01*
X119925D02*
Y248638D01*
X119300Y248013D01*
X125238Y244888D02*
Y248638D01*
X123675Y246138D01*
X126175D01*
X103400Y249463D02*
X186077D01*
Y458911D01*
X103400D01*
Y249463D01*
X111274Y165036D02*
Y166286D01*
X111586Y166911D01*
X111899Y167224D01*
X112524Y167536D01*
X113149D01*
X113774Y167224D01*
X114086Y166911D01*
X114399Y166286D01*
Y165036D01*
X114086Y164411D01*
X113774Y164098D01*
X113149Y163786D01*
X112524D01*
X111899Y164098D01*
X111586Y164411D01*
X111274Y165036D01*
X113461Y164724D02*
X114399Y163786D01*
X116586Y164098D02*
X117211Y163786D01*
X117836D01*
X118461Y164098D01*
X118774Y164724D01*
X118461Y165348D01*
X117836Y165661D01*
X117211D01*
X117836D02*
X118461Y165974D01*
X118774Y166598D01*
X118461Y167224D01*
X117836Y167536D01*
X117211D01*
X116586Y167224D01*
X122836Y163786D02*
Y167536D01*
X121274Y165036D01*
X123774D01*
X111274Y202437D02*
Y203687D01*
X111586Y204313D01*
X111899Y204625D01*
X112524Y204937D01*
X113149D01*
X113774Y204625D01*
X114086Y204313D01*
X114399Y203687D01*
Y202437D01*
X114086Y201813D01*
X113774Y201500D01*
X113149Y201187D01*
X112524D01*
X111899Y201500D01*
X111586Y201813D01*
X111274Y202437D01*
X113461Y202125D02*
X114399Y201187D01*
X116586Y201500D02*
X117211Y201187D01*
X117836D01*
X118461Y201500D01*
X118774Y202125D01*
X118461Y202750D01*
X117836Y203063D01*
X117211D01*
X117836D02*
X118461Y203375D01*
X118774Y204000D01*
X118461Y204625D01*
X117836Y204937D01*
X117211D01*
X116586Y204625D01*
X123774Y201187D02*
X121274D01*
X123461Y203375D01*
X123774Y204000D01*
X123461Y204625D01*
X122836Y204937D01*
X121899D01*
X121274Y204625D01*
X111274Y239839D02*
Y241089D01*
X111586Y241714D01*
X111899Y242027D01*
X112524Y242339D01*
X113149D01*
X113774Y242027D01*
X114086Y241714D01*
X114399Y241089D01*
Y239839D01*
X114086Y239214D01*
X113774Y238902D01*
X113149Y238589D01*
X112524D01*
X111899Y238902D01*
X111586Y239214D01*
X111274Y239839D01*
X113461Y239527D02*
X114399Y238589D01*
X116586Y238902D02*
X117211Y238589D01*
X117836D01*
X118461Y238902D01*
X118774Y239527D01*
X118461Y240152D01*
X117836Y240464D01*
X117211D01*
X117836D02*
X118461Y240777D01*
X118774Y241402D01*
X118461Y242027D01*
X117836Y242339D01*
X117211D01*
X116586Y242027D01*
X121586Y238902D02*
X122211Y238589D01*
X122836D01*
X123461Y238902D01*
X123774Y239527D01*
Y241402D01*
X123461Y242027D01*
X122836Y242339D01*
X122211D01*
X121586Y242027D01*
X121274Y241402D01*
Y239527D01*
X121586Y238902D01*
X123461Y242027D01*
X111667Y127634D02*
Y128884D01*
X111980Y129509D01*
X112293Y129822D01*
X112917Y130134D01*
X113543D01*
X114167Y129822D01*
X114480Y129509D01*
X114793Y128884D01*
Y127634D01*
X114480Y127009D01*
X114167Y126697D01*
X113543Y126384D01*
X112917D01*
X112293Y126697D01*
X111980Y127009D01*
X111667Y127634D01*
X113855Y127322D02*
X114793Y126384D01*
X116980Y126697D02*
X117605Y126384D01*
X118230D01*
X118855Y126697D01*
X119167Y127322D01*
X118855Y127947D01*
X118230Y128259D01*
X117605D01*
X118230D02*
X118855Y128572D01*
X119167Y129197D01*
X118855Y129822D01*
X118230Y130134D01*
X117605D01*
X116980Y129822D01*
X121667Y127322D02*
X121980Y127947D01*
X122605Y128259D01*
X123230D01*
X123855Y127947D01*
X124167Y127322D01*
X123855Y126697D01*
X123230Y126384D01*
X122605D01*
X121980Y126697D01*
X121667Y127322D01*
Y128259D01*
X121980Y129197D01*
X122605Y129822D01*
X123230Y130134D01*
X119541Y180715D02*
Y184465D01*
X121729D01*
X122354Y184153D01*
X122667Y183528D01*
X122354Y182903D01*
X121729Y182590D01*
X119541D01*
X121729D02*
X122667Y180715D01*
X126104D02*
Y184465D01*
X124541Y181965D01*
X127041D01*
X130479Y182590D02*
X131104D01*
X131729Y182903D01*
X132041Y183528D01*
X131729Y184153D01*
X131104Y184465D01*
X130479D01*
X129854Y184153D01*
X129541Y183528D01*
X129854Y182903D01*
X130479Y182590D01*
X129854Y182278D01*
X129541Y181653D01*
X129854Y181028D01*
X130479Y180715D01*
X131104D01*
X131729Y181028D01*
X132041Y181653D01*
X131729Y182278D01*
X131104Y182590D01*
X119541Y218117D02*
Y221867D01*
X121729D01*
X122354Y221554D01*
X122667Y220929D01*
X122354Y220304D01*
X121729Y219992D01*
X119541D01*
X121729D02*
X122667Y218117D01*
X126104D02*
Y221867D01*
X124541Y219367D01*
X127041D01*
X129541Y218429D02*
X130167Y218117D01*
X131104D01*
X131729Y218429D01*
X132041Y219054D01*
Y219367D01*
X131729Y219992D01*
X131104Y220304D01*
X129541D01*
Y221867D01*
X132041D01*
X119691Y147994D02*
Y153294D01*
X131991D01*
Y147994D01*
X119691D01*
Y185395D02*
Y190695D01*
X131991D01*
Y185395D01*
X119691D01*
Y222797D02*
Y228097D01*
X131991D01*
Y222797D01*
X119691D01*
X120084Y110592D02*
Y115892D01*
X132384D01*
Y110592D01*
X120084D01*
X120329Y105912D02*
Y109662D01*
X122516D01*
X123141Y109350D01*
X123454Y108724D01*
X123141Y108100D01*
X122516Y107787D01*
X120329D01*
X122516D02*
X123454Y105912D01*
X125329Y106224D02*
X125954Y105912D01*
X126891D01*
X127516Y106224D01*
X127829Y106850D01*
Y107162D01*
X127516Y107787D01*
X126891Y108100D01*
X125329D01*
Y109662D01*
X127829D01*
X131891Y105912D02*
Y109662D01*
X130329Y107162D01*
X132829D01*
X120329Y142920D02*
Y146670D01*
X122516D01*
X123141Y146357D01*
X123454Y145732D01*
X123141Y145107D01*
X122516Y144795D01*
X120329D01*
X122516D02*
X123454Y142920D01*
X125329Y143232D02*
X125954Y142920D01*
X126891D01*
X127516Y143232D01*
X127829Y143857D01*
Y144170D01*
X127516Y144795D01*
X126891Y145107D01*
X125329D01*
Y146670D01*
X127829D01*
X130954Y142920D02*
X132204D01*
X131579D02*
Y146670D01*
X130954Y146045D01*
X134258Y118360D02*
X138008D01*
Y116173D01*
X137696Y115548D01*
X137071Y115235D01*
X136446Y115548D01*
X136133Y116173D01*
Y118360D01*
Y116173D02*
X134258Y115235D01*
X134571Y113360D02*
X134258Y112735D01*
Y111798D01*
X134571Y111173D01*
X135196Y110860D01*
X135508D01*
X136133Y111173D01*
X136446Y111798D01*
Y113360D01*
X138008D01*
Y110860D01*
X134571Y108360D02*
X134258Y107735D01*
Y106798D01*
X134571Y106173D01*
X135196Y105860D01*
X135508D01*
X136133Y106173D01*
X136446Y106798D01*
Y108360D01*
X138008D01*
Y105860D01*
X134258Y155762D02*
X138008D01*
Y153574D01*
X137696Y152949D01*
X137071Y152637D01*
X136446Y152949D01*
X136133Y153574D01*
Y155762D01*
Y153574D02*
X134258Y152637D01*
X134571Y150762D02*
X134258Y150137D01*
Y149199D01*
X134571Y148574D01*
X135196Y148262D01*
X135508D01*
X136133Y148574D01*
X136446Y149199D01*
Y150762D01*
X138008D01*
Y148262D01*
X134258Y143262D02*
Y145762D01*
X136446Y143574D01*
X137071Y143262D01*
X137696Y143574D01*
X138008Y144199D01*
Y145137D01*
X137696Y145762D01*
X134258Y192770D02*
X138008D01*
Y190582D01*
X137696Y189957D01*
X137071Y189644D01*
X136446Y189957D01*
X136133Y190582D01*
Y192770D01*
Y190582D02*
X134258Y189644D01*
Y186207D02*
X138008D01*
X135508Y187770D01*
Y185270D01*
X134258Y181832D02*
X134571Y181207D01*
X135196Y180582D01*
X136133Y180270D01*
X137071D01*
X137696Y180582D01*
X138008Y181207D01*
Y181832D01*
X137696Y182457D01*
X137071Y182770D01*
X136446Y182457D01*
X136133Y181832D01*
Y181207D01*
X136446Y180582D01*
X137071Y180270D01*
X134258Y230565D02*
X138008D01*
Y228378D01*
X137696Y227752D01*
X137071Y227440D01*
X136446Y227752D01*
X136133Y228378D01*
Y230565D01*
Y228378D02*
X134258Y227440D01*
Y224002D02*
X138008D01*
X135508Y225565D01*
Y223065D01*
X135196Y220565D02*
X135821Y220252D01*
X136133Y219628D01*
Y219002D01*
X135821Y218378D01*
X135196Y218065D01*
X134571Y218378D01*
X134258Y219002D01*
Y219628D01*
X134571Y220252D01*
X135196Y220565D01*
X136133D01*
X137071Y220252D01*
X137696Y219628D01*
X138008Y219002D01*
X134896Y458911D02*
Y451037D01*
X154581D01*
Y458911D01*
X138833Y109455D02*
Y113205D01*
X141020D01*
X141645Y112893D01*
X141958Y112268D01*
X141645Y111643D01*
X141020Y111330D01*
X138833D01*
X141020D02*
X141958Y109455D01*
X143833Y109768D02*
X144458Y109455D01*
X145395D01*
X146020Y109768D01*
X146333Y110393D01*
Y110705D01*
X146020Y111330D01*
X145395Y111643D01*
X143833D01*
Y113205D01*
X146333D01*
X148833Y110393D02*
X149145Y111018D01*
X149770Y111330D01*
X150395D01*
X151020Y111018D01*
X151333Y110393D01*
X151020Y109768D01*
X150395Y109455D01*
X149770D01*
X149145Y109768D01*
X148833Y110393D01*
Y111330D01*
X149145Y112268D01*
X149770Y112893D01*
X150395Y113205D01*
X138833Y146857D02*
Y150607D01*
X141020D01*
X141645Y150294D01*
X141958Y149669D01*
X141645Y149044D01*
X141020Y148732D01*
X138833D01*
X141020D02*
X141958Y146857D01*
X143833Y147169D02*
X144458Y146857D01*
X145395D01*
X146020Y147169D01*
X146333Y147794D01*
Y148107D01*
X146020Y148732D01*
X145395Y149044D01*
X143833D01*
Y150607D01*
X146333D01*
X149145Y147169D02*
X149770Y146857D01*
X150395D01*
X151020Y147169D01*
X151333Y147794D01*
X151020Y148419D01*
X150395Y148732D01*
X149770D01*
X150395D02*
X151020Y149044D01*
X151333Y149669D01*
X151020Y150294D01*
X150395Y150607D01*
X149770D01*
X149145Y150294D01*
X138833Y184258D02*
Y188008D01*
X141020D01*
X141645Y187696D01*
X141958Y187071D01*
X141645Y186446D01*
X141020Y186133D01*
X138833D01*
X141020D02*
X141958Y184258D01*
X143833Y184571D02*
X144458Y184258D01*
X145395D01*
X146020Y184571D01*
X146333Y185196D01*
Y185508D01*
X146020Y186133D01*
X145395Y186446D01*
X143833D01*
Y188008D01*
X146333D01*
X149145Y184571D02*
X149770Y184258D01*
X150395D01*
X151020Y184571D01*
X151333Y185196D01*
Y187071D01*
X151020Y187696D01*
X150395Y188008D01*
X149770D01*
X149145Y187696D01*
X148833Y187071D01*
Y185196D01*
X149145Y184571D01*
X151020Y187696D01*
X139226Y221660D02*
Y225410D01*
X141414D01*
X142039Y225098D01*
X142352Y224472D01*
X142039Y223848D01*
X141414Y223535D01*
X139226D01*
X141414D02*
X142352Y221660D01*
X145789D02*
Y225410D01*
X144226Y222910D01*
X146726D01*
X149226Y221660D02*
X151726Y225410D01*
X149226D01*
X139471Y138333D02*
Y133033D01*
X127171D01*
Y138333D01*
X139471D01*
Y175735D02*
Y170435D01*
X127171D01*
Y175735D01*
X139471D01*
Y213136D02*
Y207836D01*
X127171D01*
Y213136D01*
X139471D01*
Y250538D02*
Y245238D01*
X127171D01*
Y250538D01*
X139471D01*
X139514Y119297D02*
X134214D01*
Y131597D01*
X139514D01*
Y119297D01*
Y156698D02*
X134214D01*
Y168998D01*
X139514D01*
Y156698D01*
Y194100D02*
X134214D01*
Y206400D01*
X139514D01*
Y194100D01*
Y231502D02*
X134214D01*
Y243802D01*
X139514D01*
Y231502D01*
X143988Y435663D02*
X146800D01*
X147425Y435976D01*
X147738Y436601D01*
Y437851D01*
X147425Y438476D01*
X146800Y438789D01*
X143988D01*
X146800Y440663D02*
X147425Y440976D01*
X147738Y441601D01*
Y442851D01*
X147425Y443476D01*
X146800Y443789D01*
X146175Y443476D01*
X145863Y442851D01*
Y441601D01*
X145550Y440976D01*
X144925Y440663D01*
X144300Y440976D01*
X143988Y441601D01*
Y442851D01*
X144300Y443476D01*
X144925Y443789D01*
X145863Y447851D02*
X146175Y448476D01*
X146800Y448789D01*
X147425Y448476D01*
X147738Y447851D01*
Y445663D01*
X143988D01*
Y447851D01*
X144300Y448476D01*
X144925Y448789D01*
X145550Y448476D01*
X145863Y447851D01*
Y445663D01*
X151431Y254406D02*
Y255656D01*
X151744Y256281D01*
X152056Y256594D01*
X152681Y256906D01*
X153306D01*
X153931Y256594D01*
X154244Y256281D01*
X154556Y255656D01*
Y254406D01*
X154244Y253781D01*
X153931Y253469D01*
X153306Y253156D01*
X152681D01*
X152056Y253469D01*
X151744Y253781D01*
X151431Y254406D01*
X153619Y254094D02*
X154556Y253156D01*
X156744Y253469D02*
X157369Y253156D01*
X157994D01*
X158619Y253469D01*
X158931Y254094D01*
X158619Y254719D01*
X157994Y255031D01*
X157369D01*
X157994D02*
X158619Y255344D01*
X158931Y255969D01*
X158619Y256594D01*
X157994Y256906D01*
X157369D01*
X156744Y256594D01*
X162056Y253156D02*
X163306D01*
X162681D02*
Y256906D01*
X162056Y256281D01*
X157905Y199069D02*
X156655D01*
X156030Y199381D01*
X155717Y199694D01*
X155405Y200319D01*
Y200944D01*
X155717Y201569D01*
X156030Y201881D01*
X156655Y202194D01*
X157905D01*
X158530Y201881D01*
X158843Y201569D01*
X159155Y200944D01*
Y200319D01*
X158843Y199694D01*
X158530Y199381D01*
X157905Y199069D01*
X158217Y201256D02*
X159155Y202194D01*
X158843Y204381D02*
X159155Y205006D01*
Y205631D01*
X158843Y206256D01*
X158217Y206569D01*
X157593Y206256D01*
X157280Y205631D01*
Y205006D01*
Y205631D02*
X156967Y206256D01*
X156343Y206569D01*
X155717Y206256D01*
X155405Y205631D01*
Y205006D01*
X155717Y204381D01*
X158843Y209381D02*
X159155Y210006D01*
Y210631D01*
X158843Y211256D01*
X158217Y211569D01*
X157593Y211256D01*
X157280Y210631D01*
Y210006D01*
Y210631D02*
X156967Y211256D01*
X156343Y211569D01*
X155717Y211256D01*
X155405Y210631D01*
Y210006D01*
X155717Y209381D01*
X164274Y110380D02*
Y105080D01*
X151974D01*
Y110380D01*
X164274D01*
Y147388D02*
Y142088D01*
X151974D01*
Y147388D01*
X164274D01*
Y185183D02*
Y179883D01*
X151974D01*
Y185183D01*
X164274D01*
Y222585D02*
Y217285D01*
X151974D01*
Y222585D01*
X164274D01*
X165754Y50644D02*
X169504D01*
Y48769D01*
X169192Y48144D01*
X168880Y47831D01*
X168254Y47519D01*
X167004D01*
X166380Y47831D01*
X166067Y48144D01*
X165754Y48769D01*
Y50644D01*
Y45019D02*
Y43769D01*
Y44394D02*
X169504D01*
X168880Y45019D01*
X166067Y40331D02*
X165754Y39706D01*
Y39081D01*
X166067Y38456D01*
X166692Y38144D01*
X168567D01*
X169192Y38456D01*
X169504Y39081D01*
Y39706D01*
X169192Y40331D01*
X168567Y40644D01*
X166692D01*
X166067Y40331D01*
X169192Y38456D01*
X165604Y137477D02*
Y138727D01*
X165917Y139352D01*
X166230Y139665D01*
X166854Y139977D01*
X167480D01*
X168104Y139665D01*
X168417Y139352D01*
X168730Y138727D01*
Y137477D01*
X168417Y136852D01*
X168104Y136539D01*
X167480Y136227D01*
X166854D01*
X166230Y136539D01*
X165917Y136852D01*
X165604Y137477D01*
X167792Y137165D02*
X168730Y136227D01*
X170917Y136539D02*
X171542Y136227D01*
X172167D01*
X172792Y136539D01*
X173104Y137165D01*
X172792Y137789D01*
X172167Y138102D01*
X171542D01*
X172167D02*
X172792Y138415D01*
X173104Y139039D01*
X172792Y139665D01*
X172167Y139977D01*
X171542D01*
X170917Y139665D01*
X175604Y136227D02*
X178104Y139977D01*
X175604D01*
X165604Y174878D02*
Y176128D01*
X165917Y176754D01*
X166230Y177066D01*
X166854Y177378D01*
X167480D01*
X168104Y177066D01*
X168417Y176754D01*
X168730Y176128D01*
Y174878D01*
X168417Y174254D01*
X168104Y173941D01*
X167480Y173628D01*
X166854D01*
X166230Y173941D01*
X165917Y174254D01*
X165604Y174878D01*
X167792Y174566D02*
X168730Y173628D01*
X170917Y173941D02*
X171542Y173628D01*
X172167D01*
X172792Y173941D01*
X173104Y174566D01*
X172792Y175191D01*
X172167Y175504D01*
X171542D01*
X172167D02*
X172792Y175816D01*
X173104Y176441D01*
X172792Y177066D01*
X172167Y177378D01*
X171542D01*
X170917Y177066D01*
X175604Y173941D02*
X176230Y173628D01*
X177167D01*
X177792Y173941D01*
X178104Y174566D01*
Y174878D01*
X177792Y175504D01*
X177167Y175816D01*
X175604D01*
Y177378D01*
X178104D01*
X177378Y127022D02*
X173628D01*
Y123896D01*
Y122022D02*
X177378D01*
Y118896D01*
X175504Y119522D02*
Y122022D01*
X173628D02*
Y118896D01*
Y117022D02*
X177378D01*
Y115146D01*
X177066Y114522D01*
X176754Y114209D01*
X176128Y113896D01*
X174878D01*
X174254Y114209D01*
X173941Y114522D01*
X173628Y115146D01*
Y117022D01*
Y111396D02*
Y110146D01*
Y110772D02*
X177378D01*
X176754Y111396D01*
X173628Y107022D02*
X177378Y104522D01*
Y107022D01*
Y164423D02*
X173628D01*
Y161298D01*
Y159423D02*
X177378D01*
Y156298D01*
X175504Y156923D02*
Y159423D01*
X173628D02*
Y156298D01*
Y154423D02*
X177378D01*
Y152548D01*
X177066Y151923D01*
X176754Y151611D01*
X176128Y151298D01*
X174878D01*
X174254Y151611D01*
X173941Y151923D01*
X173628Y152548D01*
Y154423D01*
Y148798D02*
Y147548D01*
Y148173D02*
X177378D01*
X176754Y148798D01*
X174566Y144423D02*
X175191Y144111D01*
X175504Y143486D01*
Y142861D01*
X175191Y142236D01*
X174566Y141923D01*
X173941Y142236D01*
X173628Y142861D01*
Y143486D01*
X173941Y144111D01*
X174566Y144423D01*
X175504D01*
X176441Y144111D01*
X177066Y143486D01*
X177378Y142861D01*
X173892Y243951D02*
X232947D01*
Y184898D01*
X173892D01*
Y243951D01*
X182290Y50644D02*
X186040D01*
Y48769D01*
X185728Y48144D01*
X185415Y47831D01*
X184790Y47519D01*
X183540D01*
X182915Y47831D01*
X182602Y48144D01*
X182290Y48769D01*
Y50644D01*
Y45019D02*
Y43769D01*
Y44394D02*
X186040D01*
X185415Y45019D01*
X182290Y40019D02*
Y38769D01*
Y39394D02*
X186040D01*
X185415Y40019D01*
X186089Y70722D02*
X186402Y71035D01*
X186714Y71660D01*
X186402Y72285D01*
X186089Y72598D01*
X182964D01*
Y73222D01*
Y72598D02*
Y71348D01*
X186714Y77285D02*
X182964D01*
X185464Y75722D01*
Y78222D01*
X194714Y412443D02*
X194401Y412130D01*
X193776Y411817D01*
X192839D01*
X192214Y412130D01*
X191901Y412443D01*
X191589Y413067D01*
Y414317D01*
X191901Y414943D01*
X192214Y415255D01*
X192839Y415567D01*
X193776D01*
X194401Y415255D01*
X194714Y414943D01*
X196901Y412130D02*
X197526Y411817D01*
X198151D01*
X198776Y412130D01*
X199089Y412755D01*
X198776Y413380D01*
X198151Y413693D01*
X197526D01*
X198151D02*
X198776Y414005D01*
X199089Y414630D01*
X198776Y415255D01*
X198151Y415567D01*
X197526D01*
X196901Y415255D01*
X198825Y50644D02*
X202575D01*
Y48769D01*
X202263Y48144D01*
X201950Y47831D01*
X201325Y47519D01*
X200075D01*
X199450Y47831D01*
X199138Y48144D01*
X198825Y48769D01*
Y50644D01*
Y45019D02*
Y43769D01*
Y44394D02*
X202575D01*
X201950Y45019D01*
X198825Y38144D02*
Y40644D01*
X201013Y38456D01*
X201638Y38144D01*
X202263Y38456D01*
X202575Y39081D01*
Y40019D01*
X202263Y40644D01*
X199026Y416659D02*
Y432659D01*
X192026D01*
Y416659D01*
X199026D01*
X199463Y340002D02*
X199775Y339689D01*
X200400Y339376D01*
X201025Y339689D01*
X201338Y340002D01*
Y343126D01*
X201963D01*
X201338D02*
X200088D01*
X205088Y339376D02*
X206338D01*
X205713D02*
Y343126D01*
X205088Y342502D01*
X199463Y445676D02*
Y449426D01*
X201650D01*
X202275Y449113D01*
X202588Y448488D01*
X202275Y447863D01*
X201650Y447551D01*
X199463D01*
X204463Y449426D02*
Y445676D01*
X207588D01*
X210088D02*
X211338D01*
X210713D02*
Y449426D01*
X210088Y448801D01*
X124581Y92920D02*
Y96670D01*
X126143Y94795D01*
X127706Y96670D01*
Y92920D01*
X129581Y95420D02*
Y93857D01*
X129893Y93232D01*
X130518Y92920D01*
X131143D01*
X131768Y93232D01*
X132081Y93857D01*
Y95420D02*
Y92920D01*
X136143D02*
X135831D01*
Y96670D01*
X140102Y95420D02*
X141560D01*
X140831Y96045D02*
Y93232D01*
X141143Y92920D01*
X141456D01*
X141768Y93232D01*
X145831Y92920D02*
Y95420D01*
Y96357D02*
X149581Y94170D02*
X152081D01*
X157081Y95107D02*
X156456Y95420D01*
X155518D01*
X154893Y95107D01*
X154581Y94482D01*
Y93857D01*
X154893Y93232D01*
X155518Y92920D01*
X156456D01*
X157081Y93232D01*
X159581Y92920D02*
Y96670D01*
Y94482D02*
X159893Y95107D01*
X160518Y95420D01*
X161143D01*
X161768Y95107D01*
X162081Y94482D01*
Y92920D01*
X164581Y95107D02*
X165206Y95420D01*
X166143D01*
X166768Y95107D01*
X167081Y94482D01*
Y93545D01*
X166768Y93232D01*
X166143Y92920D01*
X165518D01*
X164893Y93232D01*
X164581Y93545D01*
Y93857D01*
X164893Y94170D01*
X165518Y94482D01*
X166143D01*
X166768Y94170D01*
X167081Y93857D01*
Y93545D02*
Y92920D01*
X169581D02*
Y95420D01*
Y94482D02*
X169893Y95107D01*
X170518Y95420D01*
X171143D01*
X171768Y95107D01*
X172081Y94482D01*
Y92920D01*
X174581D02*
Y95420D01*
Y94482D02*
X174893Y95107D01*
X175518Y95420D01*
X176143D01*
X176768Y95107D01*
X177081Y94482D01*
Y92920D01*
X182081Y93232D02*
X181768Y92920D01*
X181143D01*
X180518D01*
X179893Y93232D01*
X179581Y93857D01*
Y94795D01*
X179893Y95107D01*
X180518Y95420D01*
X181143D01*
X181768Y95107D01*
X182081Y94795D01*
Y94482D01*
X181768Y94170D01*
X181143Y93857D01*
X180518D01*
X179893Y94170D01*
X179581Y94482D01*
X186143Y92920D02*
X185831D01*
Y96670D01*
X194581Y92920D02*
Y96670D01*
X196768D01*
X197393Y96357D01*
X197706Y95732D01*
X197393Y95107D01*
X196768Y94795D01*
X194581D01*
X199581Y93857D02*
X199893Y93232D01*
X200518Y92920D01*
X201143D01*
X201768Y93232D01*
X202081Y93857D01*
Y94482D01*
X201768Y95107D01*
X201143Y95420D01*
X200518D01*
X199893Y95107D01*
X199581Y94482D01*
Y93857D01*
X204581Y95420D02*
Y93232D01*
X204893Y92920D01*
X205518D01*
X205831Y93232D01*
Y94170D01*
Y93232D02*
X206143Y92920D01*
X206768D01*
X207081Y93232D01*
Y95420D01*
X212081Y93232D02*
X211768Y92920D01*
X211143D01*
X210518D01*
X209893Y93232D01*
X209581Y93857D01*
Y94795D01*
X209893Y95107D01*
X210518Y95420D01*
X211143D01*
X211768Y95107D01*
X212081Y94795D01*
Y94482D01*
X211768Y94170D01*
X211143Y93857D01*
X210518D01*
X209893Y94170D01*
X209581Y94482D01*
X214581Y92920D02*
Y95420D01*
Y94482D02*
X214893Y95107D01*
X215518Y95420D01*
X216143D01*
X216768Y95107D01*
X224581Y93857D02*
X224893Y93232D01*
X225518Y92920D01*
X226768D01*
X227393Y93232D01*
X227706Y93857D01*
X227393Y94482D01*
X226768Y94795D01*
X225518D01*
X224893Y95107D01*
X224581Y95732D01*
X224893Y96357D01*
X225518Y96670D01*
X226768D01*
X227393Y96357D01*
X227706Y95732D01*
X232081Y93232D02*
X231768Y92920D01*
X231143D01*
X230518D01*
X229893Y93232D01*
X229581Y93857D01*
Y94795D01*
X229893Y95107D01*
X230518Y95420D01*
X231143D01*
X231768Y95107D01*
X232081Y94795D01*
Y94482D01*
X231768Y94170D01*
X231143Y93857D01*
X230518D01*
X229893Y94170D01*
X229581Y94482D01*
X237081D02*
X236768Y95107D01*
X236143Y95420D01*
X235518D01*
X234893Y95107D01*
X234581Y94482D01*
Y93857D01*
X234893Y93232D01*
X235518Y92920D01*
X236143D01*
X236768Y93232D01*
X237081Y93857D01*
Y95420D02*
Y91982D01*
X237706Y92607D01*
X239581Y95420D02*
Y93857D01*
X239893Y93232D01*
X240518Y92920D01*
X241143D01*
X241768Y93232D01*
X242081Y93857D01*
Y95420D02*
Y92920D01*
X247081Y93232D02*
X246768Y92920D01*
X246143D01*
X245518D01*
X244893Y93232D01*
X244581Y93857D01*
Y94795D01*
X244893Y95107D01*
X245518Y95420D01*
X246143D01*
X246768Y95107D01*
X247081Y94795D01*
Y94482D01*
X246768Y94170D01*
X246143Y93857D01*
X245518D01*
X244893Y94170D01*
X244581Y94482D01*
X249581Y92920D02*
Y95420D01*
Y94482D02*
X249893Y95107D01*
X250518Y95420D01*
X251143D01*
X251768Y95107D01*
X252081Y94482D01*
Y92920D01*
X257081Y95107D02*
X256456Y95420D01*
X255518D01*
X254893Y95107D01*
X254581Y94482D01*
Y93857D01*
X254893Y93232D01*
X255518Y92920D01*
X256456D01*
X257081Y93232D01*
X262081D02*
X261768Y92920D01*
X261143D01*
X260518D01*
X259893Y93232D01*
X259581Y93857D01*
Y94795D01*
X259893Y95107D01*
X260518Y95420D01*
X261143D01*
X261768Y95107D01*
X262081Y94795D01*
Y94482D01*
X261768Y94170D01*
X261143Y93857D01*
X260518D01*
X259893Y94170D01*
X259581Y94482D01*
X264581Y92920D02*
Y95420D01*
Y94482D02*
X264893Y95107D01*
X265518Y95420D01*
X266143D01*
X266768Y95107D01*
X274581Y95420D02*
X275831Y92920D01*
X277081Y95420D01*
X280206Y92920D02*
X281456D01*
X280831D02*
Y96670D01*
X280206Y96045D01*
X214793Y412443D02*
X214480Y412130D01*
X213855Y411817D01*
X212917D01*
X212293Y412130D01*
X211980Y412443D01*
X211667Y413067D01*
Y414317D01*
X211980Y414943D01*
X212293Y415255D01*
X212917Y415567D01*
X213855D01*
X214480Y415255D01*
X214793Y414943D01*
X219167Y411817D02*
X216667D01*
X218855Y414005D01*
X219167Y414630D01*
X218855Y415255D01*
X218230Y415567D01*
X217293D01*
X216667Y415255D01*
X215361Y50644D02*
X219111D01*
Y48769D01*
X218798Y48144D01*
X218486Y47831D01*
X217861Y47519D01*
X216611D01*
X215986Y47831D01*
X215673Y48144D01*
X215361Y48769D01*
Y50644D01*
Y45019D02*
Y43769D01*
Y44394D02*
X219111D01*
X218486Y45019D01*
X215673Y40331D02*
X215361Y39706D01*
Y39081D01*
X215673Y38456D01*
X216298Y38144D01*
X216923Y38456D01*
X217236Y39081D01*
Y39706D01*
Y39081D02*
X217548Y38456D01*
X218173Y38144D01*
X218798Y38456D01*
X219111Y39081D01*
Y39706D01*
X218798Y40331D01*
X219911Y159293D02*
X219598Y158980D01*
X218973Y158668D01*
X218035D01*
X217411Y158980D01*
X217098Y159293D01*
X216785Y159918D01*
Y161168D01*
X217098Y161793D01*
X217411Y162106D01*
X218035Y162418D01*
X218973D01*
X219598Y162106D01*
X219911Y161793D01*
X221785Y159918D02*
Y161168D01*
X222098Y161793D01*
X222411Y162106D01*
X223035Y162418D01*
X223661D01*
X224285Y162106D01*
X224598Y161793D01*
X224911Y161168D01*
Y159918D01*
X224598Y159293D01*
X224285Y158980D01*
X223661Y158668D01*
X223035D01*
X222411Y158980D01*
X222098Y159293D01*
X221785Y159918D01*
X226785Y158668D02*
Y162418D01*
X229911Y158668D01*
Y162418D01*
X231785Y158668D02*
Y162418D01*
X234911Y158668D01*
Y162418D01*
X237723Y158668D02*
X238348Y158980D01*
X238973Y159606D01*
X239285Y160543D01*
Y161480D01*
X238973Y162106D01*
X238348Y162418D01*
X237723D01*
X237098Y162106D01*
X236785Y161480D01*
X237098Y160856D01*
X237723Y160543D01*
X238348D01*
X238973Y160856D01*
X239285Y161480D01*
X219911Y269135D02*
X219598Y268823D01*
X218973Y268510D01*
X218035D01*
X217411Y268823D01*
X217098Y269135D01*
X216785Y269760D01*
Y271010D01*
X217098Y271635D01*
X217411Y271948D01*
X218035Y272260D01*
X218973D01*
X219598Y271948D01*
X219911Y271635D01*
X221785Y269760D02*
Y271010D01*
X222098Y271635D01*
X222411Y271948D01*
X223035Y272260D01*
X223661D01*
X224285Y271948D01*
X224598Y271635D01*
X224911Y271010D01*
Y269760D01*
X224598Y269135D01*
X224285Y268823D01*
X223661Y268510D01*
X223035D01*
X222411Y268823D01*
X222098Y269135D01*
X221785Y269760D01*
X226785Y268510D02*
Y272260D01*
X229911Y268510D01*
Y272260D01*
X231785Y268510D02*
Y272260D01*
X234911Y268510D01*
Y272260D01*
X237723Y270385D02*
X238348D01*
X238973Y270698D01*
X239285Y271323D01*
X238973Y271948D01*
X238348Y272260D01*
X237723D01*
X237098Y271948D01*
X236785Y271323D01*
X237098Y270698D01*
X237723Y270385D01*
X237098Y270073D01*
X236785Y269448D01*
X237098Y268823D01*
X237723Y268510D01*
X238348D01*
X238973Y268823D01*
X239285Y269448D01*
X238973Y270073D01*
X238348Y270385D01*
X219911Y306931D02*
X219598Y306618D01*
X218973Y306306D01*
X218035D01*
X217411Y306618D01*
X217098Y306931D01*
X216785Y307556D01*
Y308806D01*
X217098Y309431D01*
X217411Y309743D01*
X218035Y310056D01*
X218973D01*
X219598Y309743D01*
X219911Y309431D01*
X221785Y307556D02*
Y308806D01*
X222098Y309431D01*
X222411Y309743D01*
X223035Y310056D01*
X223661D01*
X224285Y309743D01*
X224598Y309431D01*
X224911Y308806D01*
Y307556D01*
X224598Y306931D01*
X224285Y306618D01*
X223661Y306306D01*
X223035D01*
X222411Y306618D01*
X222098Y306931D01*
X221785Y307556D01*
X226785Y306306D02*
Y310056D01*
X229911Y306306D01*
Y310056D01*
X231785Y306306D02*
Y310056D01*
X234911Y306306D01*
Y310056D01*
X236785Y306618D02*
X237411Y306306D01*
X238348D01*
X238973Y306618D01*
X239285Y307243D01*
Y307556D01*
X238973Y308181D01*
X238348Y308493D01*
X236785D01*
Y310056D01*
X239285D01*
X220698Y344332D02*
X220385Y344020D01*
X219760Y343707D01*
X218823D01*
X218198Y344020D01*
X217885Y344332D01*
X217573Y344957D01*
Y346207D01*
X217885Y346832D01*
X218198Y347145D01*
X218823Y347457D01*
X219760D01*
X220385Y347145D01*
X220698Y346832D01*
X222573Y344957D02*
Y346207D01*
X222885Y346832D01*
X223198Y347145D01*
X223823Y347457D01*
X224448D01*
X225073Y347145D01*
X225385Y346832D01*
X225698Y346207D01*
Y344957D01*
X225385Y344332D01*
X225073Y344020D01*
X224448Y343707D01*
X223823D01*
X223198Y344020D01*
X222885Y344332D01*
X222573Y344957D01*
X227573Y343707D02*
Y347457D01*
X230698Y343707D01*
Y347457D01*
X232573Y343707D02*
Y347457D01*
X235698Y343707D01*
Y347457D01*
X240073Y343707D02*
X237573D01*
X239760Y345895D01*
X240073Y346520D01*
X239760Y347145D01*
X239135Y347457D01*
X238198D01*
X237573Y347145D01*
X220698Y381734D02*
X220385Y381421D01*
X219760Y381109D01*
X218823D01*
X218198Y381421D01*
X217885Y381734D01*
X217573Y382359D01*
Y383609D01*
X217885Y384234D01*
X218198Y384546D01*
X218823Y384859D01*
X219760D01*
X220385Y384546D01*
X220698Y384234D01*
X222573Y382359D02*
Y383609D01*
X222885Y384234D01*
X223198Y384546D01*
X223823Y384859D01*
X224448D01*
X225073Y384546D01*
X225385Y384234D01*
X225698Y383609D01*
Y382359D01*
X225385Y381734D01*
X225073Y381421D01*
X224448Y381109D01*
X223823D01*
X223198Y381421D01*
X222885Y381734D01*
X222573Y382359D01*
X227573Y381109D02*
Y384859D01*
X230698Y381109D01*
Y384859D01*
X232573Y381109D02*
Y384859D01*
X235698Y381109D01*
Y384859D01*
X237573Y381109D02*
X240073Y384859D01*
X237573D01*
X221485Y417561D02*
X221173Y417248D01*
X220548Y416935D01*
X219610D01*
X218985Y417248D01*
X218673Y417561D01*
X218360Y418185D01*
Y419435D01*
X218673Y420061D01*
X218985Y420373D01*
X219610Y420685D01*
X220548D01*
X221173Y420373D01*
X221485Y420061D01*
X223360Y418185D02*
Y419435D01*
X223673Y420061D01*
X223985Y420373D01*
X224610Y420685D01*
X225235D01*
X225860Y420373D01*
X226173Y420061D01*
X226485Y419435D01*
Y418185D01*
X226173Y417561D01*
X225860Y417248D01*
X225235Y416935D01*
X224610D01*
X223985Y417248D01*
X223673Y417561D01*
X223360Y418185D01*
X228360Y416935D02*
Y420685D01*
X231485Y416935D01*
Y420685D01*
X233360Y416935D02*
Y420685D01*
X236485Y416935D01*
Y420685D01*
X239923Y416935D02*
Y420685D01*
X238360Y418185D01*
X240860D01*
X221485Y455750D02*
X221173Y455437D01*
X220548Y455124D01*
X219610D01*
X218985Y455437D01*
X218673Y455750D01*
X218360Y456374D01*
Y457624D01*
X218673Y458250D01*
X218985Y458562D01*
X219610Y458874D01*
X220548D01*
X221173Y458562D01*
X221485Y458250D01*
X223360Y456374D02*
Y457624D01*
X223673Y458250D01*
X223985Y458562D01*
X224610Y458874D01*
X225235D01*
X225860Y458562D01*
X226173Y458250D01*
X226485Y457624D01*
Y456374D01*
X226173Y455750D01*
X225860Y455437D01*
X225235Y455124D01*
X224610D01*
X223985Y455437D01*
X223673Y455750D01*
X223360Y456374D01*
X228360Y455124D02*
Y458874D01*
X231485Y455124D01*
Y458874D01*
X233360Y455124D02*
Y458874D01*
X236485Y455124D01*
Y458874D01*
X238985Y455124D02*
X240235D01*
X239610D02*
Y458874D01*
X238985Y458250D01*
X218754Y152762D02*
Y156512D01*
X220941D01*
X221567Y156200D01*
X221879Y155575D01*
X221567Y154950D01*
X220941Y154637D01*
X218754D01*
X220941D02*
X221879Y152762D01*
X224067Y153075D02*
X224691Y152762D01*
X225317D01*
X225941Y153075D01*
X226254Y153700D01*
X225941Y154325D01*
X225317Y154637D01*
X224691D01*
X225317D02*
X225941Y154950D01*
X226254Y155575D01*
X225941Y156200D01*
X225317Y156512D01*
X224691D01*
X224067Y156200D01*
X229067Y153075D02*
X229691Y152762D01*
X230317D01*
X230941Y153075D01*
X231254Y153700D01*
Y155575D01*
X230941Y156200D01*
X230317Y156512D01*
X229691D01*
X229067Y156200D01*
X228754Y155575D01*
Y153700D01*
X229067Y153075D01*
X230941Y156200D01*
X219104Y416659D02*
Y432659D01*
X212104D01*
Y416659D01*
X219104D01*
X219541Y179603D02*
Y180853D01*
X219854Y181478D01*
X220167Y181791D01*
X220791Y182103D01*
X221417D01*
X222041Y181791D01*
X222354Y181478D01*
X222667Y180853D01*
Y179603D01*
X222354Y178978D01*
X222041Y178665D01*
X221417Y178353D01*
X220791D01*
X220167Y178665D01*
X219854Y178978D01*
X219541Y179603D01*
X221729Y179291D02*
X222667Y178353D01*
X225167D02*
X226417D01*
X225791D02*
Y182103D01*
X225167Y181478D01*
X230479Y180228D02*
X231104D01*
X231729Y180541D01*
X232041Y181165D01*
X231729Y181791D01*
X231104Y182103D01*
X230479D01*
X229854Y181791D01*
X229541Y181165D01*
X229854Y180541D01*
X230479Y180228D01*
X229854Y179915D01*
X229541Y179291D01*
X229854Y178665D01*
X230479Y178353D01*
X231104D01*
X231729Y178665D01*
X232041Y179291D01*
X231729Y179915D01*
X231104Y180228D01*
X224266Y215838D02*
X223161Y216734D01*
X221883Y217349D01*
X220385Y217703D01*
X218620Y217816D01*
X213135D01*
X212471Y217915D01*
X211986Y218207D01*
X211690Y218689D01*
X211595Y219357D01*
Y222323D01*
X211690Y222991D01*
X211986Y223473D01*
X212471Y223765D01*
X213135Y223864D01*
X225542D01*
Y230579D01*
X212446D01*
X210724Y230466D01*
X209205Y230098D01*
X207897Y229484D01*
X206810Y228631D01*
X205953Y227548D01*
X205336Y226244D01*
X204967Y224726D01*
X204857Y223002D01*
Y218632D01*
X204962Y216940D01*
X205295Y215525D01*
X205880Y214322D01*
X206743Y213263D01*
X207798Y212404D01*
X209016Y211814D01*
X210445Y211474D01*
X212135Y211366D01*
X217907D01*
X218572Y211267D01*
X219057Y210975D01*
X219353Y210493D01*
X219448Y209825D01*
Y206606D01*
X219352Y205940D01*
X219057Y205456D01*
X218577Y205157D01*
X217907Y205065D01*
X200487D01*
X196935Y210894D01*
X198354Y211018D01*
X199614Y211349D01*
X200703Y211883D01*
X201611Y212613D01*
X202329Y213533D01*
X202846Y214636D01*
X203152Y215916D01*
X203235Y217368D01*
Y222979D01*
X203126Y224749D01*
X202778Y226227D01*
X202169Y227480D01*
X201269Y228578D01*
X200169Y229478D01*
X198902Y230100D01*
X197413Y230462D01*
X195647Y230579D01*
X180791D01*
Y198373D01*
X187598D01*
Y223864D01*
X194957D01*
X195622Y223768D01*
X196107Y223473D01*
X196406Y222993D01*
X196498Y222323D01*
Y218219D01*
X196402Y217551D01*
X196107Y217069D01*
X195621Y216776D01*
X194957Y216678D01*
X193391Y216688D01*
X191915Y216607D01*
X190604Y216162D01*
X190033Y215717D01*
X189530Y215080D01*
X189057Y213898D01*
X188994Y212604D01*
X189272Y211315D01*
X189829Y210147D01*
X195969Y199224D01*
X196615Y198585D01*
X197556Y198361D01*
X218632D01*
X220356Y198469D01*
X221876Y198835D01*
X223182Y199453D01*
X224267Y200310D01*
X225122Y201398D01*
X225738Y202707D01*
X226107Y204228D01*
X226220Y205950D01*
Y210227D01*
X226116Y212000D01*
X225769Y213481D01*
X225160Y214739D01*
X224266Y215838D01*
G36*
X224266Y215838D02*
X223161Y216734D01*
X221883Y217349D01*
X220385Y217703D01*
X218620Y217816D01*
X213135D01*
X212471Y217915D01*
X211986Y218207D01*
X211690Y218689D01*
X211595Y219357D01*
Y222323D01*
X211690Y222991D01*
X211986Y223473D01*
X212471Y223765D01*
X213135Y223864D01*
X225542D01*
Y230579D01*
X212446D01*
X210724Y230466D01*
X209205Y230098D01*
X207897Y229484D01*
X206810Y228631D01*
X205953Y227548D01*
X205336Y226244D01*
X204967Y224726D01*
X204857Y223002D01*
Y218632D01*
X204962Y216940D01*
X205295Y215525D01*
X205880Y214322D01*
X206743Y213263D01*
X207798Y212404D01*
X209016Y211814D01*
X210445Y211474D01*
X212135Y211366D01*
X217907D01*
X218572Y211267D01*
X219057Y210975D01*
X219353Y210493D01*
X219448Y209825D01*
Y206606D01*
X219352Y205940D01*
X219057Y205456D01*
X218577Y205157D01*
X217907Y205065D01*
X200487D01*
X196935Y210894D01*
X198354Y211018D01*
X199614Y211349D01*
X200703Y211883D01*
X201611Y212613D01*
X202329Y213533D01*
X202846Y214636D01*
X203152Y215916D01*
X203235Y217368D01*
Y222979D01*
X203126Y224749D01*
X202778Y226227D01*
X202169Y227480D01*
X201269Y228578D01*
X200169Y229478D01*
X198902Y230100D01*
X197413Y230462D01*
X195647Y230579D01*
X180791D01*
Y198373D01*
X187598D01*
Y223864D01*
X194957D01*
X195622Y223768D01*
X196107Y223473D01*
X196406Y222993D01*
X196498Y222323D01*
Y218219D01*
X196402Y217551D01*
X196107Y217069D01*
X195621Y216776D01*
X194957Y216678D01*
X193391Y216688D01*
X191915Y216607D01*
X190604Y216162D01*
X190033Y215717D01*
X189530Y215080D01*
X189057Y213898D01*
X188994Y212604D01*
X189272Y211315D01*
X189829Y210147D01*
X195969Y199224D01*
X196615Y198585D01*
X197556Y198361D01*
X218632D01*
X220356Y198469D01*
X221876Y198835D01*
X223182Y199453D01*
X224267Y200310D01*
X225122Y201398D01*
X225738Y202707D01*
X226107Y204228D01*
X226220Y205950D01*
Y210227D01*
X226116Y212000D01*
X225769Y213481D01*
X225160Y214739D01*
X224266Y215838D01*
G37*
X224659Y262280D02*
Y263530D01*
X224972Y264155D01*
X225285Y264468D01*
X225909Y264780D01*
X226535D01*
X227159Y264468D01*
X227472Y264155D01*
X227785Y263530D01*
Y262280D01*
X227472Y261655D01*
X227159Y261343D01*
X226535Y261030D01*
X225909D01*
X225285Y261343D01*
X224972Y261655D01*
X224659Y262280D01*
X226847Y261968D02*
X227785Y261030D01*
X230285D02*
X231535D01*
X230909D02*
Y264780D01*
X230285Y264155D01*
X236222Y261030D02*
Y264780D01*
X234659Y262280D01*
X237159D01*
X224659Y298894D02*
Y300144D01*
X224972Y300769D01*
X225285Y301082D01*
X225909Y301394D01*
X226535D01*
X227159Y301082D01*
X227472Y300769D01*
X227785Y300144D01*
Y298894D01*
X227472Y298269D01*
X227159Y297957D01*
X226535Y297644D01*
X225909D01*
X225285Y297957D01*
X224972Y298269D01*
X224659Y298894D01*
X226847Y298582D02*
X227785Y297644D01*
X230285D02*
X231535D01*
X230909D02*
Y301394D01*
X230285Y300769D01*
X237159Y297644D02*
X234659D01*
X236847Y299832D01*
X237159Y300457D01*
X236847Y301082D01*
X236222Y301394D01*
X235285D01*
X234659Y301082D01*
X225053Y337083D02*
Y338333D01*
X225366Y338958D01*
X225678Y339271D01*
X226303Y339583D01*
X226928D01*
X227553Y339271D01*
X227866Y338958D01*
X228178Y338333D01*
Y337083D01*
X227866Y336458D01*
X227553Y336146D01*
X226928Y335833D01*
X226303D01*
X225678Y336146D01*
X225366Y336458D01*
X225053Y337083D01*
X227241Y336771D02*
X228178Y335833D01*
X230678D02*
X231928D01*
X231303D02*
Y339583D01*
X230678Y338958D01*
X235366Y336146D02*
X235991Y335833D01*
X236616D01*
X237241Y336146D01*
X237553Y336771D01*
Y338646D01*
X237241Y339271D01*
X236616Y339583D01*
X235991D01*
X235366Y339271D01*
X235053Y338646D01*
Y336771D01*
X235366Y336146D01*
X237241Y339271D01*
X226340Y152069D02*
X231640D01*
Y139769D01*
X226340D01*
Y152069D01*
X229384Y448894D02*
Y450144D01*
X229696Y450769D01*
X230009Y451082D01*
X230634Y451394D01*
X231259D01*
X231884Y451082D01*
X232196Y450769D01*
X232509Y450144D01*
Y448894D01*
X232196Y448269D01*
X231884Y447957D01*
X231259Y447644D01*
X230634D01*
X230009Y447957D01*
X229696Y448269D01*
X229384Y448894D01*
X231571Y448582D02*
X232509Y447644D01*
X235946D02*
Y451394D01*
X234384Y448894D01*
X236884D01*
X230171Y374485D02*
Y375735D01*
X230484Y376360D01*
X230796Y376672D01*
X231421Y376985D01*
X232046D01*
X232671Y376672D01*
X232984Y376360D01*
X233296Y375735D01*
Y374485D01*
X232984Y373860D01*
X232671Y373547D01*
X232046Y373235D01*
X231421D01*
X230796Y373547D01*
X230484Y373860D01*
X230171Y374485D01*
X232359Y374172D02*
X233296Y373235D01*
X236109Y375110D02*
X236734D01*
X237359Y375422D01*
X237671Y376047D01*
X237359Y376672D01*
X236734Y376985D01*
X236109D01*
X235484Y376672D01*
X235171Y376047D01*
X235484Y375422D01*
X236109Y375110D01*
X235484Y374797D01*
X235171Y374172D01*
X235484Y373547D01*
X236109Y373235D01*
X236734D01*
X237359Y373547D01*
X237671Y374172D01*
X237359Y374797D01*
X236734Y375110D01*
X230171Y411493D02*
Y412743D01*
X230484Y413368D01*
X230796Y413680D01*
X231421Y413993D01*
X232046D01*
X232671Y413680D01*
X232984Y413368D01*
X233296Y412743D01*
Y411493D01*
X232984Y410868D01*
X232671Y410555D01*
X232046Y410243D01*
X231421D01*
X230796Y410555D01*
X230484Y410868D01*
X230171Y411493D01*
X232359Y411180D02*
X233296Y410243D01*
X235171Y411180D02*
X235484Y411805D01*
X236109Y412118D01*
X236734D01*
X237359Y411805D01*
X237671Y411180D01*
X237359Y410555D01*
X236734Y410243D01*
X236109D01*
X235484Y410555D01*
X235171Y411180D01*
Y412118D01*
X235484Y413055D01*
X236109Y413680D01*
X236734Y413993D01*
X231896Y50644D02*
X235646D01*
Y48769D01*
X235334Y48144D01*
X235021Y47831D01*
X234396Y47519D01*
X233146D01*
X232521Y47831D01*
X232209Y48144D01*
X231896Y48769D01*
Y50644D01*
Y45019D02*
Y43769D01*
Y44394D02*
X235646D01*
X235021Y45019D01*
X231896Y39081D02*
X235646D01*
X233146Y40644D01*
Y38144D01*
X232533Y136296D02*
Y137546D01*
X232846Y138171D01*
X233159Y138483D01*
X233783Y138796D01*
X234409D01*
X235033Y138483D01*
X235346Y138171D01*
X235659Y137546D01*
Y136296D01*
X235346Y135671D01*
X235033Y135358D01*
X234409Y135046D01*
X233783D01*
X233159Y135358D01*
X232846Y135671D01*
X232533Y136296D01*
X234721Y135983D02*
X235659Y135046D01*
X240033D02*
X237533D01*
X239721Y137233D01*
X240033Y137858D01*
X239721Y138483D01*
X239096Y138796D01*
X238159D01*
X237533Y138483D01*
X242846Y135358D02*
X243471Y135046D01*
X244096D01*
X244721Y135358D01*
X245033Y135983D01*
Y137858D01*
X244721Y138483D01*
X244096Y138796D01*
X243471D01*
X242846Y138483D01*
X242533Y137858D01*
Y135983D01*
X242846Y135358D01*
X244721Y138483D01*
X232927Y166148D02*
Y169898D01*
X235115D01*
X235740Y169586D01*
X236052Y168961D01*
X235740Y168336D01*
X235115Y168023D01*
X232927D01*
X235115D02*
X236052Y166148D01*
X240427D02*
X237927D01*
X240115Y168336D01*
X240427Y168961D01*
X240115Y169586D01*
X239490Y169898D01*
X238552D01*
X237927Y169586D01*
X242927Y166148D02*
X245427Y169898D01*
X242927D01*
X233076Y170828D02*
Y176128D01*
X245376D01*
Y170828D01*
X233076D01*
Y207836D02*
Y213136D01*
X245376D01*
Y207836D01*
X233076D01*
Y244844D02*
Y250144D01*
X245376D01*
Y244844D01*
X233076D01*
X233321Y203156D02*
Y206906D01*
X235508D01*
X236133Y206594D01*
X236446Y205969D01*
X236133Y205344D01*
X235508Y205031D01*
X233321D01*
X235508D02*
X236446Y203156D01*
X240821D02*
X238321D01*
X240508Y205344D01*
X240821Y205969D01*
X240508Y206594D01*
X239883Y206906D01*
X238946D01*
X238321Y206594D01*
X244883Y203156D02*
Y206906D01*
X243321Y204406D01*
X245821D01*
X233321Y277172D02*
Y280922D01*
X235508D01*
X236133Y280609D01*
X236446Y279984D01*
X236133Y279359D01*
X235508Y279047D01*
X233321D01*
X235508D02*
X236446Y277172D01*
X238946D02*
X240196D01*
X239571D02*
Y280922D01*
X238946Y280297D01*
X244258Y279047D02*
X244883D01*
X245508Y279359D01*
X245821Y279984D01*
X245508Y280609D01*
X244883Y280922D01*
X244258D01*
X243633Y280609D01*
X243321Y279984D01*
X243633Y279359D01*
X244258Y279047D01*
X243633Y278734D01*
X243321Y278109D01*
X243633Y277484D01*
X244258Y277172D01*
X244883D01*
X245508Y277484D01*
X245821Y278109D01*
X245508Y278734D01*
X244883Y279047D01*
X233321Y315361D02*
Y319111D01*
X235508D01*
X236133Y318798D01*
X236446Y318173D01*
X236133Y317548D01*
X235508Y317236D01*
X233321D01*
X235508D02*
X236446Y315361D01*
X238946D02*
X240196D01*
X239571D02*
Y319111D01*
X238946Y318486D01*
X243321Y315673D02*
X243946Y315361D01*
X244883D01*
X245508Y315673D01*
X245821Y316298D01*
Y316611D01*
X245508Y317236D01*
X244883Y317548D01*
X243321D01*
Y319111D01*
X245821D01*
X233470Y281852D02*
Y287152D01*
X245770D01*
Y281852D01*
X233470D01*
Y320041D02*
Y325341D01*
X245770D01*
Y320041D01*
X233470D01*
Y431458D02*
Y436758D01*
X245770D01*
Y431458D01*
X233470D01*
X236840Y236458D02*
X236527Y236146D01*
X235902Y235833D01*
X234965D01*
X234340Y236146D01*
X234027Y236458D01*
X233715Y237083D01*
Y238333D01*
X234027Y238958D01*
X234340Y239271D01*
X234965Y239583D01*
X235902D01*
X236527Y239271D01*
X236840Y238958D01*
X238715Y237083D02*
Y238333D01*
X239027Y238958D01*
X239340Y239271D01*
X239965Y239583D01*
X240590D01*
X241215Y239271D01*
X241527Y238958D01*
X241840Y238333D01*
Y237083D01*
X241527Y236458D01*
X241215Y236146D01*
X240590Y235833D01*
X239965D01*
X239340Y236146D01*
X239027Y236458D01*
X238715Y237083D01*
X243715Y235833D02*
Y239583D01*
X246840Y235833D01*
Y239583D01*
X248715Y235833D02*
Y239583D01*
X251840Y235833D01*
Y239583D01*
X254027Y236146D02*
X254652Y235833D01*
X255277D01*
X255902Y236146D01*
X256215Y236771D01*
X255902Y237396D01*
X255277Y237708D01*
X254652D01*
X255277D02*
X255902Y238021D01*
X256215Y238646D01*
X255902Y239271D01*
X255277Y239583D01*
X254652D01*
X254027Y239271D01*
X233715Y240164D02*
Y243914D01*
X235902D01*
X236527Y243602D01*
X236840Y242976D01*
X236527Y242352D01*
X235902Y242039D01*
X233715D01*
X235902D02*
X236840Y240164D01*
X241215D02*
X238715D01*
X240902Y242352D01*
X241215Y242976D01*
X240902Y243602D01*
X240277Y243914D01*
X239340D01*
X238715Y243602D01*
X244340Y240164D02*
X245590D01*
X244965D02*
Y243914D01*
X244340Y243289D01*
X233715Y352762D02*
Y356512D01*
X235902D01*
X236527Y356200D01*
X236840Y355575D01*
X236527Y354950D01*
X235902Y354637D01*
X233715D01*
X235902D02*
X236840Y352762D01*
X239340D02*
X240590D01*
X239965D02*
Y356512D01*
X239340Y355887D01*
X246215Y352762D02*
X243715D01*
X245902Y354950D01*
X246215Y355575D01*
X245902Y356200D01*
X245277Y356512D01*
X244340D01*
X243715Y356200D01*
X233864Y357443D02*
Y362743D01*
X246164D01*
Y357443D01*
X233864D01*
Y394450D02*
Y399750D01*
X246164D01*
Y394450D01*
X233864D01*
X237233Y199450D02*
X236921Y199138D01*
X236296Y198825D01*
X235358D01*
X234733Y199138D01*
X234421Y199450D01*
X234108Y200075D01*
Y201325D01*
X234421Y201950D01*
X234733Y202263D01*
X235358Y202575D01*
X236296D01*
X236921Y202263D01*
X237233Y201950D01*
X239108Y200075D02*
Y201325D01*
X239421Y201950D01*
X239733Y202263D01*
X240358Y202575D01*
X240983D01*
X241608Y202263D01*
X241921Y201950D01*
X242233Y201325D01*
Y200075D01*
X241921Y199450D01*
X241608Y199138D01*
X240983Y198825D01*
X240358D01*
X239733Y199138D01*
X239421Y199450D01*
X239108Y200075D01*
X244108Y198825D02*
Y202575D01*
X247233Y198825D01*
Y202575D01*
X249108Y198825D02*
Y202575D01*
X252233Y198825D01*
Y202575D01*
X254108Y199763D02*
X254421Y200388D01*
X255046Y200700D01*
X255671D01*
X256296Y200388D01*
X256608Y199763D01*
X256296Y199138D01*
X255671Y198825D01*
X255046D01*
X254421Y199138D01*
X254108Y199763D01*
Y200700D01*
X254421Y201638D01*
X255046Y202263D01*
X255671Y202575D01*
X234502Y389770D02*
Y393520D01*
X236689D01*
X237315Y393208D01*
X237627Y392583D01*
X237315Y391958D01*
X236689Y391645D01*
X234502D01*
X236689D02*
X237627Y389770D01*
X240127D02*
X241377D01*
X240752D02*
Y393520D01*
X240127Y392895D01*
X245127Y389770D02*
X246377D01*
X245752D02*
Y393520D01*
X245127Y392895D01*
X234896Y224878D02*
Y226128D01*
X235208Y226754D01*
X235521Y227066D01*
X236146Y227378D01*
X236771D01*
X237396Y227066D01*
X237708Y226754D01*
X238021Y226128D01*
Y224878D01*
X237708Y224254D01*
X237396Y223941D01*
X236771Y223628D01*
X236146D01*
X235521Y223941D01*
X235208Y224254D01*
X234896Y224878D01*
X237083Y224566D02*
X238021Y223628D01*
X240521D02*
X241771D01*
X241146D02*
Y227378D01*
X240521Y226754D01*
X244896Y224566D02*
X245208Y225191D01*
X245833Y225504D01*
X246458D01*
X247083Y225191D01*
X247396Y224566D01*
X247083Y223941D01*
X246458Y223628D01*
X245833D01*
X245208Y223941D01*
X244896Y224566D01*
Y225504D01*
X245208Y226441D01*
X245833Y227066D01*
X246458Y227378D01*
X235683Y426778D02*
Y430528D01*
X237870D01*
X238496Y430216D01*
X238808Y429591D01*
X238496Y428966D01*
X237870Y428653D01*
X235683D01*
X237870D02*
X238808Y426778D01*
X240683Y427716D02*
X240996Y428341D01*
X241620Y428653D01*
X242246D01*
X242870Y428341D01*
X243183Y427716D01*
X242870Y427091D01*
X242246Y426778D01*
X241620D01*
X240996Y427091D01*
X240683Y427716D01*
Y428653D01*
X240996Y429591D01*
X241620Y430216D01*
X242246Y430528D01*
X247250Y141195D02*
X251000D01*
Y139007D01*
X250688Y138382D01*
X250063Y138070D01*
X249438Y138382D01*
X249126Y139007D01*
Y141195D01*
Y139007D02*
X247250Y138070D01*
X247563Y135882D02*
X247250Y135257D01*
Y134632D01*
X247563Y134007D01*
X248188Y133695D01*
X248813Y134007D01*
X249126Y134632D01*
Y135257D01*
Y134632D02*
X249438Y134007D01*
X250063Y133695D01*
X250688Y134007D01*
X251000Y134632D01*
Y135257D01*
X250688Y135882D01*
X247250Y130570D02*
Y129320D01*
Y129945D02*
X251000D01*
X250376Y130570D01*
X247250Y178596D02*
X251000D01*
Y176409D01*
X250688Y175784D01*
X250063Y175471D01*
X249438Y175784D01*
X249126Y176409D01*
Y178596D01*
Y176409D02*
X247250Y175471D01*
Y171096D02*
Y173596D01*
X249438Y171409D01*
X250063Y171096D01*
X250688Y171409D01*
X251000Y172034D01*
Y172971D01*
X250688Y173596D01*
X249126Y167659D02*
Y167034D01*
X249438Y166409D01*
X250063Y166096D01*
X250688Y166409D01*
X251000Y167034D01*
Y167659D01*
X250688Y168284D01*
X250063Y168596D01*
X249438Y168284D01*
X249126Y167659D01*
X248813Y168284D01*
X248188Y168596D01*
X247563Y168284D01*
X247250Y167659D01*
Y167034D01*
X247563Y166409D01*
X248188Y166096D01*
X248813Y166409D01*
X249126Y167034D01*
X247250Y252612D02*
X251000D01*
Y250425D01*
X250688Y249800D01*
X250063Y249487D01*
X249438Y249800D01*
X249126Y250425D01*
Y252612D01*
Y250425D02*
X247250Y249487D01*
Y245112D02*
Y247612D01*
X249438Y245425D01*
X250063Y245112D01*
X250688Y245425D01*
X251000Y246050D01*
Y246987D01*
X250688Y247612D01*
X247250Y240112D02*
Y242612D01*
X249438Y240425D01*
X250063Y240112D01*
X250688Y240425D01*
X251000Y241050D01*
Y241987D01*
X250688Y242612D01*
X247644Y215604D02*
X251394D01*
Y213417D01*
X251082Y212792D01*
X250457Y212479D01*
X249832Y212792D01*
X249519Y213417D01*
Y215604D01*
Y213417D02*
X247644Y212479D01*
Y208104D02*
Y210604D01*
X249832Y208417D01*
X250457Y208104D01*
X251082Y208417D01*
X251394Y209042D01*
Y209979D01*
X251082Y210604D01*
X247957Y205604D02*
X247644Y204979D01*
Y204042D01*
X247957Y203417D01*
X248582Y203104D01*
X248894D01*
X249519Y203417D01*
X249832Y204042D01*
Y205604D01*
X251394D01*
Y203104D01*
X247644Y289620D02*
X251394D01*
Y287433D01*
X251082Y286807D01*
X250457Y286495D01*
X249832Y286807D01*
X249519Y287433D01*
Y289620D01*
Y287433D02*
X247644Y286495D01*
Y283995D02*
Y282745D01*
Y283370D02*
X251394D01*
X250769Y283995D01*
X247644Y278683D02*
X247957Y278057D01*
X248582Y277433D01*
X249519Y277120D01*
X250457D01*
X251082Y277433D01*
X251394Y278057D01*
Y278683D01*
X251082Y279307D01*
X250457Y279620D01*
X249832Y279307D01*
X249519Y278683D01*
Y278057D01*
X249832Y277433D01*
X250457Y277120D01*
X247644Y327809D02*
X251394D01*
Y325622D01*
X251082Y324996D01*
X250457Y324684D01*
X249832Y324996D01*
X249519Y325622D01*
Y327809D01*
Y325622D02*
X247644Y324684D01*
Y322184D02*
Y320934D01*
Y321559D02*
X251394D01*
X250769Y322184D01*
X248582Y317809D02*
X249207Y317496D01*
X249519Y316872D01*
Y316246D01*
X249207Y315622D01*
X248582Y315309D01*
X247957Y315622D01*
X247644Y316246D01*
Y316872D01*
X247957Y317496D01*
X248582Y317809D01*
X249519D01*
X250457Y317496D01*
X251082Y316872D01*
X251394Y316246D01*
X247644Y365211D02*
X251394D01*
Y363023D01*
X251082Y362398D01*
X250457Y362085D01*
X249832Y362398D01*
X249519Y363023D01*
Y365211D01*
Y363023D02*
X247644Y362085D01*
Y359585D02*
Y358335D01*
Y358961D02*
X251394D01*
X250769Y359585D01*
X247957Y354898D02*
X247644Y354273D01*
Y353648D01*
X247957Y353023D01*
X248582Y352711D01*
X249207Y353023D01*
X249519Y353648D01*
Y354273D01*
Y353648D02*
X249832Y353023D01*
X250457Y352711D01*
X251082Y353023D01*
X251394Y353648D01*
Y354273D01*
X251082Y354898D01*
X248431Y50644D02*
X252181D01*
Y48769D01*
X251869Y48144D01*
X251557Y47831D01*
X250931Y47519D01*
X249681D01*
X249057Y47831D01*
X248744Y48144D01*
X248431Y48769D01*
Y50644D01*
Y45019D02*
Y43769D01*
Y44394D02*
X252181D01*
X251557Y45019D01*
X248744Y40644D02*
X248431Y40019D01*
Y39081D01*
X248744Y38456D01*
X249369Y38144D01*
X249681D01*
X250307Y38456D01*
X250619Y39081D01*
Y40644D01*
X252181D01*
Y38144D01*
X248431Y439226D02*
X252181D01*
Y437039D01*
X251869Y436414D01*
X251244Y436101D01*
X250619Y436414D01*
X250307Y437039D01*
Y439226D01*
Y437039D02*
X248431Y436101D01*
Y434226D02*
X252181Y431726D01*
Y434226D01*
X248825Y402219D02*
X252575D01*
Y400031D01*
X252263Y399406D01*
X251638Y399093D01*
X251013Y399406D01*
X250700Y400031D01*
Y402219D01*
Y400031D02*
X248825Y399093D01*
Y396281D02*
X249138Y395656D01*
X249763Y395031D01*
X250700Y394719D01*
X251638D01*
X252263Y395031D01*
X252575Y395656D01*
Y396281D01*
X252263Y396906D01*
X251638Y397219D01*
X251013Y396906D01*
X250700Y396281D01*
Y395656D01*
X251013Y395031D01*
X251638Y394719D01*
X252219Y169691D02*
Y173441D01*
X254406D01*
X255031Y173129D01*
X255344Y172504D01*
X255031Y171879D01*
X254406Y171567D01*
X252219D01*
X254406D02*
X255344Y169691D01*
X259719D02*
X257219D01*
X259406Y171879D01*
X259719Y172504D01*
X259406Y173129D01*
X258781Y173441D01*
X257844D01*
X257219Y173129D01*
X263156Y169691D02*
X263781Y170004D01*
X264406Y170629D01*
X264719Y171567D01*
Y172504D01*
X264406Y173129D01*
X263781Y173441D01*
X263156D01*
X262531Y173129D01*
X262219Y172504D01*
X262531Y171879D01*
X263156Y171567D01*
X263781D01*
X264406Y171879D01*
X264719Y172504D01*
X252219Y206699D02*
Y210449D01*
X254406D01*
X255031Y210137D01*
X255344Y209512D01*
X255031Y208887D01*
X254406Y208574D01*
X252219D01*
X254406D02*
X255344Y206699D01*
X259719D02*
X257219D01*
X259406Y208887D01*
X259719Y209512D01*
X259406Y210137D01*
X258781Y210449D01*
X257844D01*
X257219Y210137D01*
X262219Y207637D02*
X262531Y208262D01*
X263156Y208574D01*
X263781D01*
X264406Y208262D01*
X264719Y207637D01*
X264406Y207012D01*
X263781Y206699D01*
X263156D01*
X262531Y207012D01*
X262219Y207637D01*
Y208574D01*
X262531Y209512D01*
X263156Y210137D01*
X263781Y210449D01*
X252463Y161168D02*
Y155868D01*
X240163D01*
Y161168D01*
X252463D01*
Y198569D02*
Y193269D01*
X240163D01*
Y198569D01*
X252463D01*
Y273372D02*
Y268072D01*
X240163D01*
Y273372D01*
X252463D01*
X252506Y142131D02*
X247206D01*
Y154431D01*
X252506D01*
Y142131D01*
Y179533D02*
X247206D01*
Y191833D01*
X252506D01*
Y179533D01*
Y253549D02*
X247206D01*
Y265849D01*
X252506D01*
Y253549D01*
X252612Y244494D02*
Y248244D01*
X254800D01*
X255425Y247932D01*
X255737Y247307D01*
X255425Y246682D01*
X254800Y246370D01*
X252612D01*
X254800D02*
X255737Y244494D01*
X260112D02*
X257612D01*
X259800Y246682D01*
X260112Y247307D01*
X259800Y247932D01*
X259175Y248244D01*
X258237D01*
X257612Y247932D01*
X262925Y244807D02*
X263550Y244494D01*
X264175D01*
X264800Y244807D01*
X265112Y245432D01*
X264800Y246057D01*
X264175Y246370D01*
X263550D01*
X264175D02*
X264800Y246682D01*
X265112Y247307D01*
X264800Y247932D01*
X264175Y248244D01*
X263550D01*
X262925Y247932D01*
X252612Y281896D02*
Y285646D01*
X254800D01*
X255425Y285334D01*
X255737Y284709D01*
X255425Y284084D01*
X254800Y283771D01*
X252612D01*
X254800D02*
X255737Y281896D01*
X260112D02*
X257612D01*
X259800Y284084D01*
X260112Y284709D01*
X259800Y285334D01*
X259175Y285646D01*
X258237D01*
X257612Y285334D01*
X262925Y282209D02*
X263550Y281896D01*
X264175D01*
X264800Y282209D01*
X265112Y282834D01*
Y284709D01*
X264800Y285334D01*
X264175Y285646D01*
X263550D01*
X262925Y285334D01*
X262612Y284709D01*
Y282834D01*
X262925Y282209D01*
X264800Y285334D01*
X252612Y319298D02*
Y323048D01*
X254800D01*
X255425Y322735D01*
X255737Y322110D01*
X255425Y321485D01*
X254800Y321173D01*
X252612D01*
X254800D02*
X255737Y319298D01*
X258237D02*
X259487D01*
X258862D02*
Y323048D01*
X258237Y322423D01*
X262612Y319298D02*
X265112Y323048D01*
X262612D01*
X252612Y356699D02*
Y360449D01*
X254800D01*
X255425Y360137D01*
X255737Y359512D01*
X255425Y358887D01*
X254800Y358574D01*
X252612D01*
X254800D02*
X255737Y356699D01*
X258237D02*
X259487D01*
X258862D02*
Y360449D01*
X258237Y359824D01*
X264175Y356699D02*
Y360449D01*
X262612Y357949D01*
X265112D01*
X252612Y390164D02*
Y393914D01*
X254800D01*
X255425Y393602D01*
X255737Y392976D01*
X255425Y392352D01*
X254800Y392039D01*
X252612D01*
X254800D02*
X255737Y390164D01*
X258237D02*
X259487D01*
X258862D02*
Y393914D01*
X258237Y393289D01*
X262925Y390476D02*
X263550Y390164D01*
X264175D01*
X264800Y390476D01*
X265112Y391102D01*
Y392976D01*
X264800Y393602D01*
X264175Y393914D01*
X263550D01*
X262925Y393602D01*
X262612Y392976D01*
Y391102D01*
X262925Y390476D01*
X264800Y393602D01*
X252857Y235577D02*
Y230277D01*
X240557D01*
Y235577D01*
X252857D01*
Y310774D02*
Y305474D01*
X240557D01*
Y310774D01*
X252857D01*
X252900Y216541D02*
X247600D01*
Y228841D01*
X252900D01*
Y216541D01*
Y290557D02*
X247600D01*
Y302857D01*
X252900D01*
Y290557D01*
Y328746D02*
X247600D01*
Y341046D01*
X252900D01*
Y328746D01*
Y366147D02*
X247600D01*
Y378447D01*
X252900D01*
Y366147D01*
Y440163D02*
X247600D01*
Y452463D01*
X252900D01*
Y440163D01*
X253250Y348176D02*
Y342876D01*
X240950D01*
Y348176D01*
X253250D01*
Y385577D02*
Y380277D01*
X240950D01*
Y385577D01*
X253250D01*
Y422585D02*
Y417285D01*
X240950D01*
Y422585D01*
X253250D01*
Y459593D02*
Y454293D01*
X240950D01*
Y459593D01*
X253250D01*
X253294Y403155D02*
X247994D01*
Y415455D01*
X253294D01*
Y403155D01*
X257337Y427172D02*
Y430922D01*
X259524D01*
X260149Y430609D01*
X260462Y429984D01*
X260149Y429359D01*
X259524Y429047D01*
X257337D01*
X259524D02*
X260462Y427172D01*
X263274Y429047D02*
X263899D01*
X264524Y429359D01*
X264837Y429984D01*
X264524Y430609D01*
X263899Y430922D01*
X263274D01*
X262649Y430609D01*
X262337Y429984D01*
X262649Y429359D01*
X263274Y429047D01*
X262649Y428734D01*
X262337Y428109D01*
X262649Y427484D01*
X263274Y427172D01*
X263899D01*
X264524Y427484D01*
X264837Y428109D01*
X264524Y428734D01*
X263899Y429047D01*
X264967Y50644D02*
X268717D01*
Y48769D01*
X268405Y48144D01*
X268092Y47831D01*
X267467Y47519D01*
X266217D01*
X265592Y47831D01*
X265280Y48144D01*
X264967Y48769D01*
Y50644D01*
Y45019D02*
Y43769D01*
Y44394D02*
X268717D01*
X268092Y45019D01*
X265905Y40644D02*
X266530Y40331D01*
X266842Y39706D01*
Y39081D01*
X266530Y38456D01*
X265905Y38144D01*
X265280Y38456D01*
X264967Y39081D01*
Y39706D01*
X265280Y40331D01*
X265905Y40644D01*
X266842D01*
X267780Y40331D01*
X268405Y39706D01*
X268717Y39081D01*
X265998Y123235D02*
Y126985D01*
X268185D01*
X268811Y126672D01*
X269123Y126047D01*
X268811Y125422D01*
X268185Y125110D01*
X265998D01*
X268185D02*
X269123Y123235D01*
X271311Y123547D02*
X271935Y123235D01*
X272561D01*
X273185Y123547D01*
X273498Y124172D01*
X273185Y124797D01*
X272561Y125110D01*
X271935D01*
X272561D02*
X273185Y125422D01*
X273498Y126047D01*
X273185Y126672D01*
X272561Y126985D01*
X271935D01*
X271311Y126672D01*
X278498Y123235D02*
X275998D01*
X278185Y125422D01*
X278498Y126047D01*
X278185Y126672D01*
X277561Y126985D01*
X276623D01*
X275998Y126672D01*
X277660Y133215D02*
Y127915D01*
X265360D01*
Y133215D01*
X277660D01*
Y170223D02*
Y164923D01*
X265360D01*
Y170223D01*
X277660D01*
Y207624D02*
Y202324D01*
X265360D01*
Y207624D01*
X277660D01*
X278054Y245026D02*
Y239726D01*
X265754D01*
Y245026D01*
X278054D01*
Y282428D02*
Y277128D01*
X265754D01*
Y282428D01*
X278054D01*
Y319829D02*
Y314529D01*
X265754D01*
Y319829D01*
X278054D01*
Y357231D02*
Y351931D01*
X265754D01*
Y357231D01*
X278054D01*
Y394632D02*
Y389332D01*
X265754D01*
Y394632D01*
X278054D01*
Y431640D02*
Y426340D01*
X265754D01*
Y431640D01*
X278054D01*
X278596Y347319D02*
Y348569D01*
X278909Y349194D01*
X279222Y349507D01*
X279846Y349819D01*
X280472D01*
X281096Y349507D01*
X281409Y349194D01*
X281722Y348569D01*
Y347319D01*
X281409Y346694D01*
X281096Y346382D01*
X280472Y346069D01*
X279846D01*
X279222Y346382D01*
X278909Y346694D01*
X278596Y347319D01*
X280784Y347007D02*
X281722Y346069D01*
X284222D02*
X285472D01*
X284846D02*
Y349819D01*
X284222Y349194D01*
X289222Y346069D02*
X290472D01*
X289846D02*
Y349819D01*
X289222Y349194D01*
X278990Y160311D02*
Y161561D01*
X279303Y162187D01*
X279615Y162499D01*
X280240Y162811D01*
X280865D01*
X281490Y162499D01*
X281803Y162187D01*
X282115Y161561D01*
Y160311D01*
X281803Y159687D01*
X281490Y159374D01*
X280865Y159061D01*
X280240D01*
X279615Y159374D01*
X279303Y159687D01*
X278990Y160311D01*
X281178Y159999D02*
X282115Y159061D01*
X286490D02*
X283990D01*
X286178Y161249D01*
X286490Y161874D01*
X286178Y162499D01*
X285553Y162811D01*
X284615D01*
X283990Y162499D01*
X289615Y159061D02*
X290865D01*
X290240D02*
Y162811D01*
X289615Y162187D01*
X278990Y309918D02*
Y311168D01*
X279303Y311793D01*
X279615Y312106D01*
X280240Y312418D01*
X280865D01*
X281490Y312106D01*
X281803Y311793D01*
X282115Y311168D01*
Y309918D01*
X281803Y309293D01*
X281490Y308980D01*
X280865Y308668D01*
X280240D01*
X279615Y308980D01*
X279303Y309293D01*
X278990Y309918D01*
X281178Y309606D02*
X282115Y308668D01*
X284615D02*
X285865D01*
X285240D02*
Y312418D01*
X284615Y311793D01*
X289303Y308980D02*
X289928Y308668D01*
X290553D01*
X291178Y308980D01*
X291490Y309606D01*
X291178Y310230D01*
X290553Y310543D01*
X289928D01*
X290553D02*
X291178Y310856D01*
X291490Y311480D01*
X291178Y312106D01*
X290553Y312418D01*
X289928D01*
X289303Y312106D01*
X278990Y384721D02*
Y385971D01*
X279303Y386596D01*
X279615Y386909D01*
X280240Y387221D01*
X280865D01*
X281490Y386909D01*
X281803Y386596D01*
X282115Y385971D01*
Y384721D01*
X281803Y384096D01*
X281490Y383783D01*
X280865Y383471D01*
X280240D01*
X279615Y383783D01*
X279303Y384096D01*
X278990Y384721D01*
X281178Y384409D02*
X282115Y383471D01*
X284928D02*
X285553Y383783D01*
X286178Y384409D01*
X286490Y385346D01*
Y386283D01*
X286178Y386909D01*
X285553Y387221D01*
X284928D01*
X284303Y386909D01*
X283990Y386283D01*
X284303Y385659D01*
X284928Y385346D01*
X285553D01*
X286178Y385659D01*
X286490Y386283D01*
X278990Y421729D02*
Y422979D01*
X279303Y423604D01*
X279615Y423917D01*
X280240Y424229D01*
X280865D01*
X281490Y423917D01*
X281803Y423604D01*
X282115Y422979D01*
Y421729D01*
X281803Y421104D01*
X281490Y420791D01*
X280865Y420479D01*
X280240D01*
X279615Y420791D01*
X279303Y421104D01*
X278990Y421729D01*
X281178Y421417D02*
X282115Y420479D01*
X283990D02*
X286490Y424229D01*
X283990D01*
X279384Y272516D02*
Y273766D01*
X279696Y274391D01*
X280009Y274704D01*
X280634Y275016D01*
X281259D01*
X281884Y274704D01*
X282196Y274391D01*
X282509Y273766D01*
Y272516D01*
X282196Y271891D01*
X281884Y271579D01*
X281259Y271266D01*
X280634D01*
X280009Y271579D01*
X279696Y271891D01*
X279384Y272516D01*
X281571Y272204D02*
X282509Y271266D01*
X285009D02*
X286259D01*
X285634D02*
Y275016D01*
X285009Y274391D01*
X289384Y271579D02*
X290009Y271266D01*
X290946D01*
X291571Y271579D01*
X291884Y272204D01*
Y272516D01*
X291571Y273141D01*
X290946Y273454D01*
X289384D01*
Y275016D01*
X291884D01*
X279384Y458737D02*
Y459987D01*
X279696Y460612D01*
X280009Y460924D01*
X280634Y461237D01*
X281259D01*
X281884Y460924D01*
X282196Y460612D01*
X282509Y459987D01*
Y458737D01*
X282196Y458112D01*
X281884Y457799D01*
X281259Y457487D01*
X280634D01*
X280009Y457799D01*
X279696Y458112D01*
X279384Y458737D01*
X281571Y458424D02*
X282509Y457487D01*
X284384Y457799D02*
X285009Y457487D01*
X285946D01*
X286571Y457799D01*
X286884Y458424D01*
Y458737D01*
X286571Y459362D01*
X285946Y459674D01*
X284384D01*
Y461237D01*
X286884D01*
X279778Y197713D02*
Y198963D01*
X280090Y199588D01*
X280403Y199901D01*
X281028Y200213D01*
X281653D01*
X282278Y199901D01*
X282590Y199588D01*
X282903Y198963D01*
Y197713D01*
X282590Y197088D01*
X282278Y196776D01*
X281653Y196463D01*
X281028D01*
X280403Y196776D01*
X280090Y197088D01*
X279778Y197713D01*
X281965Y197401D02*
X282903Y196463D01*
X285403D02*
X286653D01*
X286028D02*
Y200213D01*
X285403Y199588D01*
X290715Y196463D02*
X291340Y196776D01*
X291965Y197401D01*
X292278Y198338D01*
Y199276D01*
X291965Y199901D01*
X291340Y200213D01*
X290715D01*
X290090Y199901D01*
X289778Y199276D01*
X290090Y198651D01*
X290715Y198338D01*
X291340D01*
X291965Y198651D01*
X292278Y199276D01*
X279778Y234721D02*
Y235971D01*
X280090Y236596D01*
X280403Y236909D01*
X281028Y237221D01*
X281653D01*
X282278Y236909D01*
X282590Y236596D01*
X282903Y235971D01*
Y234721D01*
X282590Y234096D01*
X282278Y233783D01*
X281653Y233471D01*
X281028D01*
X280403Y233783D01*
X280090Y234096D01*
X279778Y234721D01*
X281965Y234409D02*
X282903Y233471D01*
X285403D02*
X286653D01*
X286028D02*
Y237221D01*
X285403Y236596D01*
X289778Y233471D02*
X292278Y237221D01*
X289778D01*
X281502Y50644D02*
X285252D01*
Y48769D01*
X284940Y48144D01*
X284628Y47831D01*
X284002Y47519D01*
X282752D01*
X282128Y47831D01*
X281815Y48144D01*
X281502Y48769D01*
Y50644D01*
Y45019D02*
Y43769D01*
Y44394D02*
X285252D01*
X284628Y45019D01*
X281502Y40644D02*
X285252Y38144D01*
Y40644D01*
X290764Y144738D02*
X287014D01*
Y141613D01*
Y139738D02*
X290764D01*
Y136613D01*
X288889Y137238D02*
Y139738D01*
X287014D02*
Y136613D01*
Y134738D02*
X290764D01*
Y132863D01*
X290452Y132238D01*
X290139Y131926D01*
X289514Y131613D01*
X288264D01*
X287639Y131926D01*
X287327Y132238D01*
X287014Y132863D01*
Y134738D01*
Y128801D02*
X287327Y128176D01*
X287952Y127551D01*
X288889Y127238D01*
X289827D01*
X290452Y127551D01*
X290764Y128176D01*
Y128801D01*
X290452Y129426D01*
X289827Y129738D01*
X289202Y129426D01*
X288889Y128801D01*
Y128176D01*
X289202Y127551D01*
X289827Y127238D01*
X290764Y181746D02*
X287014D01*
Y178621D01*
Y176746D02*
X290764D01*
Y173621D01*
X288889Y174246D02*
Y176746D01*
X287014D02*
Y173621D01*
Y171746D02*
X290764D01*
Y169871D01*
X290452Y169246D01*
X290139Y168933D01*
X289514Y168621D01*
X288264D01*
X287639Y168933D01*
X287327Y169246D01*
X287014Y169871D01*
Y171746D01*
X288889Y165809D02*
Y165183D01*
X289202Y164559D01*
X289827Y164246D01*
X290452Y164559D01*
X290764Y165183D01*
Y165809D01*
X290452Y166433D01*
X289827Y166746D01*
X289202Y166433D01*
X288889Y165809D01*
X288577Y166433D01*
X287952Y166746D01*
X287327Y166433D01*
X287014Y165809D01*
Y165183D01*
X287327Y164559D01*
X287952Y164246D01*
X288577Y164559D01*
X288889Y165183D01*
X290764Y219148D02*
X287014D01*
Y216022D01*
Y214148D02*
X290764D01*
Y211022D01*
X288889Y211648D02*
Y214148D01*
X287014D02*
Y211022D01*
Y209148D02*
X290764D01*
Y207272D01*
X290452Y206648D01*
X290139Y206335D01*
X289514Y206022D01*
X288264D01*
X287639Y206335D01*
X287327Y206648D01*
X287014Y207272D01*
Y209148D01*
Y204148D02*
X290764Y201648D01*
Y204148D01*
Y256549D02*
X287014D01*
Y253424D01*
Y251549D02*
X290764D01*
Y248424D01*
X288889Y249049D02*
Y251549D01*
X287014D02*
Y248424D01*
Y246549D02*
X290764D01*
Y244674D01*
X290452Y244049D01*
X290139Y243737D01*
X289514Y243424D01*
X288264D01*
X287639Y243737D01*
X287327Y244049D01*
X287014Y244674D01*
Y246549D01*
X287952Y241549D02*
X288577Y241237D01*
X288889Y240612D01*
Y239987D01*
X288577Y239362D01*
X287952Y239049D01*
X287327Y239362D01*
X287014Y239987D01*
Y240612D01*
X287327Y241237D01*
X287952Y241549D01*
X288889D01*
X289827Y241237D01*
X290452Y240612D01*
X290764Y239987D01*
Y293951D02*
X287014D01*
Y290826D01*
Y288951D02*
X290764D01*
Y285826D01*
X288889Y286451D02*
Y288951D01*
X287014D02*
Y285826D01*
Y283951D02*
X290764D01*
Y282076D01*
X290452Y281451D01*
X290139Y281138D01*
X289514Y280826D01*
X288264D01*
X287639Y281138D01*
X287327Y281451D01*
X287014Y282076D01*
Y283951D01*
X287327Y278951D02*
X287014Y278326D01*
Y277388D01*
X287327Y276763D01*
X287952Y276451D01*
X288264D01*
X288889Y276763D01*
X289202Y277388D01*
Y278951D01*
X290764D01*
Y276451D01*
Y331352D02*
X287014D01*
Y328227D01*
Y326352D02*
X290764D01*
Y323227D01*
X288889Y323852D02*
Y326352D01*
X287014D02*
Y323227D01*
Y321352D02*
X290764D01*
Y319477D01*
X290452Y318852D01*
X290139Y318540D01*
X289514Y318227D01*
X288264D01*
X287639Y318540D01*
X287327Y318852D01*
X287014Y319477D01*
Y321352D01*
Y314790D02*
X290764D01*
X288264Y316352D01*
Y313852D01*
X290764Y368754D02*
X287014D01*
Y365629D01*
Y363754D02*
X290764D01*
Y360629D01*
X288889Y361254D02*
Y363754D01*
X287014D02*
Y360629D01*
Y358754D02*
X290764D01*
Y356879D01*
X290452Y356254D01*
X290139Y355941D01*
X289514Y355629D01*
X288264D01*
X287639Y355941D01*
X287327Y356254D01*
X287014Y356879D01*
Y358754D01*
X287327Y353441D02*
X287014Y352817D01*
Y352191D01*
X287327Y351567D01*
X287952Y351254D01*
X288577Y351567D01*
X288889Y352191D01*
Y352817D01*
Y352191D02*
X289202Y351567D01*
X289827Y351254D01*
X290452Y351567D01*
X290764Y352191D01*
Y352817D01*
X290452Y353441D01*
X290764Y406156D02*
X287014D01*
Y403030D01*
Y401156D02*
X290764D01*
Y398030D01*
X288889Y398656D02*
Y401156D01*
X287014D02*
Y398030D01*
Y396156D02*
X290764D01*
Y394280D01*
X290452Y393656D01*
X290139Y393343D01*
X289514Y393030D01*
X288264D01*
X287639Y393343D01*
X287327Y393656D01*
X287014Y394280D01*
Y396156D01*
Y388656D02*
Y391156D01*
X289202Y388968D01*
X289827Y388656D01*
X290452Y388968D01*
X290764Y389593D01*
Y390530D01*
X290452Y391156D01*
X290764Y442376D02*
X287014D01*
Y439251D01*
Y437376D02*
X290764D01*
Y434251D01*
X288889Y434876D02*
Y437376D01*
X287014D02*
Y434251D01*
Y432376D02*
X290764D01*
Y430501D01*
X290452Y429876D01*
X290139Y429563D01*
X289514Y429251D01*
X288264D01*
X287639Y429563D01*
X287327Y429876D01*
X287014Y430501D01*
Y432376D01*
Y426751D02*
Y425501D01*
Y426126D02*
X290764D01*
X290139Y426751D01*
X290801Y85115D02*
Y86365D01*
X291114Y86990D01*
X291426Y87302D01*
X292051Y87615D01*
X292676D01*
X293301Y87302D01*
X293614Y86990D01*
X293926Y86365D01*
Y85115D01*
X293614Y84490D01*
X293301Y84177D01*
X292676Y83865D01*
X292051D01*
X291426Y84177D01*
X291114Y84490D01*
X290801Y85115D01*
X292989Y84802D02*
X293926Y83865D01*
X296114Y84177D02*
X296739Y83865D01*
X297364D01*
X297989Y84177D01*
X298301Y84802D01*
X297989Y85427D01*
X297364Y85740D01*
X296739D01*
X297364D02*
X297989Y86052D01*
X298301Y86677D01*
X297989Y87302D01*
X297364Y87615D01*
X296739D01*
X296114Y87302D01*
X301739Y83865D02*
X302364Y84177D01*
X302989Y84802D01*
X303301Y85740D01*
Y86677D01*
X302989Y87302D01*
X302364Y87615D01*
X301739D01*
X301114Y87302D01*
X300801Y86677D01*
X301114Y86052D01*
X301739Y85740D01*
X302364D01*
X302989Y86052D01*
X303301Y86677D01*
X291626Y96313D02*
X295376D01*
Y99438D01*
Y101313D02*
X291626D01*
Y104438D01*
X293500Y103813D02*
Y101313D01*
X295376D02*
Y104438D01*
Y106313D02*
X291626D01*
Y108188D01*
X291938Y108813D01*
X292250Y109126D01*
X292876Y109438D01*
X294126D01*
X294750Y109126D01*
X295063Y108813D01*
X295376Y108188D01*
Y106313D01*
Y111938D02*
Y113188D01*
Y112563D02*
X291626D01*
X292250Y111938D01*
X293500Y117250D02*
Y117876D01*
X293188Y118500D01*
X292563Y118813D01*
X291938Y118500D01*
X291626Y117876D01*
Y117250D01*
X291938Y116626D01*
X292563Y116313D01*
X293188Y116626D01*
X293500Y117250D01*
X293813Y116626D01*
X294438Y116313D01*
X295063Y116626D01*
X295376Y117250D01*
Y117876D01*
X295063Y118500D01*
X294438Y118813D01*
X293813Y118500D01*
X293500Y117876D01*
X298038Y50644D02*
X301788D01*
Y48769D01*
X301476Y48144D01*
X301163Y47831D01*
X300538Y47519D01*
X299288D01*
X298663Y47831D01*
X298350Y48144D01*
X298038Y48769D01*
Y50644D01*
Y45019D02*
Y43769D01*
Y44394D02*
X301788D01*
X301163Y45019D01*
X299913Y39706D02*
Y39081D01*
X300226Y38456D01*
X300850Y38144D01*
X301476Y38456D01*
X301788Y39081D01*
Y39706D01*
X301476Y40331D01*
X300850Y40644D01*
X300226Y40331D01*
X299913Y39706D01*
X299600Y40331D01*
X298976Y40644D01*
X298350Y40331D01*
X298038Y39706D01*
Y39081D01*
X298350Y38456D01*
X298976Y38144D01*
X299600Y38456D01*
X299913Y39081D01*
X304730Y112954D02*
Y118254D01*
X317030D01*
Y112954D01*
X304730D01*
X304974Y119691D02*
Y123441D01*
X307162D01*
X307787Y123129D01*
X308100Y122504D01*
X307787Y121879D01*
X307162Y121567D01*
X304974D01*
X307162D02*
X308100Y119691D01*
X309974Y120004D02*
X310600Y119691D01*
X311537D01*
X312162Y120004D01*
X312474Y120629D01*
Y120941D01*
X312162Y121567D01*
X311537Y121879D01*
X309974D01*
Y123441D01*
X312474D01*
X315912Y119691D02*
X316537Y120004D01*
X317162Y120629D01*
X317474Y121567D01*
Y122504D01*
X317162Y123129D01*
X316537Y123441D01*
X315912D01*
X315287Y123129D01*
X314974Y122504D01*
X315287Y121879D01*
X315912Y121567D01*
X316537D01*
X317162Y121879D01*
X317474Y122504D01*
X305774Y378990D02*
X306087Y379303D01*
X306399Y379928D01*
X306087Y380553D01*
X305774Y380865D01*
X302649D01*
Y381490D01*
Y380865D02*
Y379615D01*
X306087Y384303D02*
X306399Y384928D01*
Y385553D01*
X306087Y386178D01*
X305461Y386490D01*
X304837Y386178D01*
X304524Y385553D01*
Y384928D01*
Y385553D02*
X304211Y386178D01*
X303587Y386490D01*
X302961Y386178D01*
X302649Y385553D01*
Y384928D01*
X302961Y384303D01*
X307743Y134084D02*
X308055Y133771D01*
X308368Y133146D01*
Y132209D01*
X308055Y131584D01*
X307743Y131271D01*
X307118Y130959D01*
X305868D01*
X305243Y131271D01*
X304930Y131584D01*
X304618Y132209D01*
Y133146D01*
X304930Y133771D01*
X305243Y134084D01*
X307118Y135959D02*
X305868D01*
X305243Y136271D01*
X304930Y136584D01*
X304618Y137209D01*
Y137834D01*
X304930Y138459D01*
X305243Y138771D01*
X305868Y139084D01*
X307118D01*
X307743Y138771D01*
X308055Y138459D01*
X308368Y137834D01*
Y137209D01*
X308055Y136584D01*
X307743Y136271D01*
X307118Y135959D01*
X308368Y140959D02*
X304618D01*
X308368Y144084D01*
X304618D01*
X308368Y145959D02*
X304618D01*
X308368Y149084D01*
X304618D01*
X308368Y151584D02*
Y152834D01*
Y152209D02*
X304618D01*
X305243Y151584D01*
X308368Y156896D02*
X308055Y157521D01*
X307430Y158146D01*
X306493Y158459D01*
X305555D01*
X304930Y158146D01*
X304618Y157521D01*
Y156896D01*
X304930Y156271D01*
X305555Y155959D01*
X306180Y156271D01*
X306493Y156896D01*
Y157521D01*
X306180Y158146D01*
X305555Y158459D01*
X309411Y159156D02*
X314711D01*
Y146856D01*
X309411D01*
Y159156D01*
X311448Y184896D02*
X310198D01*
X309573Y185208D01*
X309261Y185521D01*
X308948Y186146D01*
Y186771D01*
X309261Y187396D01*
X309573Y187708D01*
X310198Y188021D01*
X311448D01*
X312073Y187708D01*
X312386Y187396D01*
X312698Y186771D01*
Y186146D01*
X312386Y185521D01*
X312073Y185208D01*
X311448Y184896D01*
X311761Y187083D02*
X312698Y188021D01*
Y191458D02*
X308948D01*
X311448Y189896D01*
Y192396D01*
X312698Y195521D02*
Y196771D01*
Y196146D02*
X308948D01*
X309573Y195521D01*
X320110Y130959D02*
X318860D01*
X318235Y131271D01*
X317922Y131584D01*
X317610Y132209D01*
Y132834D01*
X317922Y133459D01*
X318235Y133771D01*
X318860Y134084D01*
X320110D01*
X320735Y133771D01*
X321047Y133459D01*
X321360Y132834D01*
Y132209D01*
X321047Y131584D01*
X320735Y131271D01*
X320110Y130959D01*
X320422Y133146D02*
X321360Y134084D01*
Y137521D02*
X317610D01*
X320110Y135959D01*
Y138459D01*
X321047Y141271D02*
X321360Y141896D01*
Y142521D01*
X321047Y143146D01*
X320422Y143459D01*
X318547D01*
X317922Y143146D01*
X317610Y142521D01*
Y141896D01*
X317922Y141271D01*
X318547Y140959D01*
X320422D01*
X321047Y141271D01*
X317922Y143146D01*
X323478Y375203D02*
Y378953D01*
X325354D01*
X325978Y378641D01*
X326291Y378328D01*
X326604Y377703D01*
Y376453D01*
X326291Y375828D01*
X325978Y375516D01*
X325354Y375203D01*
X323478D01*
X330978D02*
X328478D01*
X330666Y377391D01*
X330978Y378016D01*
X330666Y378641D01*
X330041Y378953D01*
X329104D01*
X328478Y378641D01*
X324266Y391739D02*
Y395489D01*
X326141D01*
X326766Y395176D01*
X327078Y394864D01*
X327391Y394239D01*
Y392989D01*
X327078Y392364D01*
X326766Y392051D01*
X326141Y391739D01*
X324266D01*
X329891D02*
X331141D01*
X330516D02*
Y395489D01*
X329891Y394864D01*
X328447Y158806D02*
Y153506D01*
X316147D01*
Y158806D01*
X328447D01*
X329384Y153550D02*
Y157300D01*
X331571D01*
X332196Y156987D01*
X332509Y156362D01*
X332196Y155737D01*
X331571Y155425D01*
X329384D01*
X331571D02*
X332509Y153550D01*
X334384Y154487D02*
X334696Y155112D01*
X335321Y155425D01*
X335946D01*
X336571Y155112D01*
X336884Y154487D01*
X336571Y153862D01*
X335946Y153550D01*
X335321D01*
X334696Y153862D01*
X334384Y154487D01*
Y155425D01*
X334696Y156362D01*
X335321Y156987D01*
X335946Y157300D01*
X340009Y153550D02*
X341259D01*
X340634D02*
Y157300D01*
X340009Y156675D01*
X330321Y227415D02*
X334071D01*
Y225540D01*
X333759Y224915D01*
X333446Y224603D01*
X332821Y224290D01*
X331571D01*
X330946Y224603D01*
X330634Y224915D01*
X330321Y225540D01*
Y227415D01*
Y221790D02*
Y220540D01*
Y221165D02*
X334071D01*
X333446Y221790D01*
X330321Y216478D02*
X330634Y215853D01*
X331259Y215228D01*
X332196Y214915D01*
X333134D01*
X333759Y215228D01*
X334071Y215853D01*
Y216478D01*
X333759Y217103D01*
X333134Y217415D01*
X332509Y217103D01*
X332196Y216478D01*
Y215853D01*
X332509Y215228D01*
X333134Y214915D01*
X329490Y104038D02*
X334790D01*
Y91738D01*
X329490D01*
Y104038D01*
X329533Y85002D02*
Y90302D01*
X341833D01*
Y85002D01*
X329533D01*
X333958Y104974D02*
X330208D01*
Y107162D01*
X330520Y107787D01*
X331146Y108100D01*
X331770Y107787D01*
X332083Y107162D01*
Y104974D01*
Y107162D02*
X333958Y108100D01*
X333646Y109974D02*
X333958Y110600D01*
Y111537D01*
X333646Y112162D01*
X333020Y112474D01*
X332708D01*
X332083Y112162D01*
X331770Y111537D01*
Y109974D01*
X330208D01*
Y112474D01*
X332083Y115912D02*
Y116537D01*
X331770Y117162D01*
X331146Y117474D01*
X330520Y117162D01*
X330208Y116537D01*
Y115912D01*
X330520Y115287D01*
X331146Y114974D01*
X331770Y115287D01*
X332083Y115912D01*
X332396Y115287D01*
X333020Y114974D01*
X333646Y115287D01*
X333958Y115912D01*
Y116537D01*
X333646Y117162D01*
X333020Y117474D01*
X332396Y117162D01*
X332083Y116537D01*
X337152Y139769D02*
X331852D01*
Y152069D01*
X337152D01*
Y139769D01*
X337364Y183565D02*
X342664D01*
Y171265D01*
X337364D01*
Y183565D01*
X341195Y325203D02*
Y328953D01*
X343070D01*
X343695Y328641D01*
X344007Y328328D01*
X344320Y327703D01*
Y326453D01*
X344007Y325828D01*
X343695Y325516D01*
X343070Y325203D01*
X341195D01*
X346195Y325516D02*
X346820Y325203D01*
X347757D01*
X348382Y325516D01*
X348695Y326141D01*
Y326453D01*
X348382Y327078D01*
X347757Y327391D01*
X346195D01*
Y328953D01*
X348695D01*
X341195Y357880D02*
Y361630D01*
X343070D01*
X343695Y361318D01*
X344007Y361006D01*
X344320Y360380D01*
Y359130D01*
X344007Y358506D01*
X343695Y358193D01*
X343070Y357880D01*
X341195D01*
X346507Y358193D02*
X347132Y357880D01*
X347757D01*
X348382Y358193D01*
X348695Y358818D01*
X348382Y359443D01*
X347757Y359756D01*
X347132D01*
X347757D02*
X348382Y360068D01*
X348695Y360693D01*
X348382Y361318D01*
X347757Y361630D01*
X347132D01*
X346507Y361318D01*
X341589Y259061D02*
Y262811D01*
X343464D01*
X344089Y262499D01*
X344401Y262187D01*
X344714Y261561D01*
Y260311D01*
X344401Y259687D01*
X344089Y259374D01*
X343464Y259061D01*
X341589D01*
X347526D02*
X348151Y259374D01*
X348776Y259999D01*
X349089Y260937D01*
Y261874D01*
X348776Y262499D01*
X348151Y262811D01*
X347526D01*
X346901Y262499D01*
X346589Y261874D01*
X346901Y261249D01*
X347526Y260937D01*
X348151D01*
X348776Y261249D01*
X349089Y261874D01*
X341589Y275597D02*
Y279347D01*
X343464D01*
X344089Y279035D01*
X344401Y278722D01*
X344714Y278097D01*
Y276847D01*
X344401Y276222D01*
X344089Y275909D01*
X343464Y275597D01*
X341589D01*
X347526Y277472D02*
X348151D01*
X348776Y277785D01*
X349089Y278409D01*
X348776Y279035D01*
X348151Y279347D01*
X347526D01*
X346901Y279035D01*
X346589Y278409D01*
X346901Y277785D01*
X347526Y277472D01*
X346901Y277159D01*
X346589Y276535D01*
X346901Y275909D01*
X347526Y275597D01*
X348151D01*
X348776Y275909D01*
X349089Y276535D01*
X348776Y277159D01*
X348151Y277472D01*
X341589Y291739D02*
Y295489D01*
X343464D01*
X344089Y295176D01*
X344401Y294864D01*
X344714Y294239D01*
Y292989D01*
X344401Y292364D01*
X344089Y292051D01*
X343464Y291739D01*
X341589D01*
X346589D02*
X349089Y295489D01*
X346589D01*
X341589Y308668D02*
Y312418D01*
X343464D01*
X344089Y312106D01*
X344401Y311793D01*
X344714Y311168D01*
Y309918D01*
X344401Y309293D01*
X344089Y308980D01*
X343464Y308668D01*
X341589D01*
X346589Y309606D02*
X346901Y310230D01*
X347526Y310543D01*
X348151D01*
X348776Y310230D01*
X349089Y309606D01*
X348776Y308980D01*
X348151Y308668D01*
X347526D01*
X346901Y308980D01*
X346589Y309606D01*
Y310543D01*
X346901Y311480D01*
X347526Y312106D01*
X348151Y312418D01*
X341589Y341739D02*
Y345489D01*
X343464D01*
X344089Y345176D01*
X344401Y344864D01*
X344714Y344239D01*
Y342989D01*
X344401Y342364D01*
X344089Y342051D01*
X343464Y341739D01*
X341589D01*
X348151D02*
Y345489D01*
X346589Y342989D01*
X349089D01*
X346289Y86458D02*
X345976Y86146D01*
X345351Y85833D01*
X344413D01*
X343789Y86146D01*
X343476Y86458D01*
X343163Y87083D01*
Y88333D01*
X343476Y88958D01*
X343789Y89271D01*
X344413Y89583D01*
X345351D01*
X345976Y89271D01*
X346289Y88958D01*
X348163Y87083D02*
Y88333D01*
X348476Y88958D01*
X348789Y89271D01*
X349413Y89583D01*
X350039D01*
X350663Y89271D01*
X350976Y88958D01*
X351289Y88333D01*
Y87083D01*
X350976Y86458D01*
X350663Y86146D01*
X350039Y85833D01*
X349413D01*
X348789Y86146D01*
X348476Y86458D01*
X348163Y87083D01*
X353163Y85833D02*
Y89583D01*
X356289Y85833D01*
Y89583D01*
X358163Y85833D02*
Y89583D01*
X361289Y85833D01*
Y89583D01*
X363789Y85833D02*
X365039D01*
X364413D02*
Y89583D01*
X363789Y88958D01*
X369101Y87708D02*
X369726D01*
X370351Y88021D01*
X370663Y88646D01*
X370351Y89271D01*
X369726Y89583D01*
X369101D01*
X368476Y89271D01*
X368163Y88646D01*
X368476Y88021D01*
X369101Y87708D01*
X368476Y87396D01*
X368163Y86771D01*
X368476Y86146D01*
X369101Y85833D01*
X369726D01*
X370351Y86146D01*
X370663Y86771D01*
X370351Y87396D01*
X369726Y87708D01*
X342226Y139620D02*
X338476D01*
Y141807D01*
X338788Y142433D01*
X339413Y142745D01*
X340038Y142433D01*
X340351Y141807D01*
Y139620D01*
Y141807D02*
X342226Y142745D01*
X341288Y144620D02*
X340663Y144933D01*
X340351Y145557D01*
Y146183D01*
X340663Y146807D01*
X341288Y147120D01*
X341913Y146807D01*
X342226Y146183D01*
Y145557D01*
X341913Y144933D01*
X341288Y144620D01*
X340351D01*
X339413Y144933D01*
X338788Y145557D01*
X338476Y146183D01*
X341913Y149933D02*
X342226Y150557D01*
Y151183D01*
X341913Y151807D01*
X341288Y152120D01*
X339413D01*
X338788Y151807D01*
X338476Y151183D01*
Y150557D01*
X338788Y149933D01*
X339413Y149620D01*
X341288D01*
X341913Y149933D01*
X338788Y151807D01*
X342226Y158124D02*
X338476D01*
Y160311D01*
X338788Y160937D01*
X339413Y161249D01*
X340038Y160937D01*
X340351Y160311D01*
Y158124D01*
Y160311D02*
X342226Y161249D01*
X341288Y163124D02*
X340663Y163437D01*
X340351Y164061D01*
Y164687D01*
X340663Y165311D01*
X341288Y165624D01*
X341913Y165311D01*
X342226Y164687D01*
Y164061D01*
X341913Y163437D01*
X341288Y163124D01*
X340351D01*
X339413Y163437D01*
X338788Y164061D01*
X338476Y164687D01*
X342226Y170624D02*
Y168124D01*
X340038Y170311D01*
X339413Y170624D01*
X338788Y170311D01*
X338476Y169687D01*
Y168749D01*
X338788Y168124D01*
X343557Y114180D02*
Y117930D01*
X345744D01*
X346370Y117617D01*
X346682Y116992D01*
X346370Y116367D01*
X345744Y116055D01*
X343557D01*
X345744D02*
X346682Y114180D01*
X348557Y114492D02*
X349182Y114180D01*
X350120D01*
X350744Y114492D01*
X351057Y115117D01*
Y115430D01*
X350744Y116055D01*
X350120Y116367D01*
X348557D01*
Y117930D01*
X351057D01*
X353557Y114180D02*
X356057Y117930D01*
X353557D01*
X344344Y189977D02*
Y186227D01*
X347470D01*
X349344D02*
Y189977D01*
X352470D01*
X351844Y188102D02*
X349344D01*
Y186227D02*
X352470D01*
X354344D02*
Y189977D01*
X356220D01*
X356844Y189665D01*
X357157Y189352D01*
X357470Y188727D01*
Y187477D01*
X357157Y186852D01*
X356844Y186539D01*
X356220Y186227D01*
X354344D01*
X359970D02*
X361220D01*
X360594D02*
Y189977D01*
X359970Y189352D01*
X365282Y186227D02*
X365907Y186539D01*
X366532Y187165D01*
X366844Y188102D01*
Y189039D01*
X366532Y189665D01*
X365907Y189977D01*
X365282D01*
X364657Y189665D01*
X364344Y189039D01*
X364657Y188415D01*
X365282Y188102D01*
X365907D01*
X366532Y188415D01*
X366844Y189039D01*
X345132Y94563D02*
Y95813D01*
X345444Y96439D01*
X345757Y96751D01*
X346382Y97063D01*
X347007D01*
X347632Y96751D01*
X347944Y96439D01*
X348257Y95813D01*
Y94563D01*
X347944Y93939D01*
X347632Y93626D01*
X347007Y93313D01*
X346382D01*
X345757Y93626D01*
X345444Y93939D01*
X345132Y94563D01*
X347319Y94251D02*
X348257Y93313D01*
X350444Y93626D02*
X351069Y93313D01*
X351694D01*
X352319Y93626D01*
X352632Y94251D01*
X352319Y94876D01*
X351694Y95189D01*
X351069D01*
X351694D02*
X352319Y95501D01*
X352632Y96126D01*
X352319Y96751D01*
X351694Y97063D01*
X351069D01*
X350444Y96751D01*
X356069Y95189D02*
X356694D01*
X357319Y95501D01*
X357632Y96126D01*
X357319Y96751D01*
X356694Y97063D01*
X356069D01*
X355444Y96751D01*
X355132Y96126D01*
X355444Y95501D01*
X356069Y95189D01*
X355444Y94876D01*
X355132Y94251D01*
X355444Y93626D01*
X356069Y93313D01*
X356694D01*
X357319Y93626D01*
X357632Y94251D01*
X357319Y94876D01*
X356694Y95189D01*
X348920Y113136D02*
Y107836D01*
X336620D01*
Y113136D01*
X348920D01*
X363254Y239620D02*
X363567Y239933D01*
X363880Y240557D01*
X363567Y241183D01*
X363254Y241495D01*
X360130D01*
Y242120D01*
Y241495D02*
Y240245D01*
X363567Y244620D02*
X363880Y245245D01*
Y246183D01*
X363567Y246807D01*
X362942Y247120D01*
X362630D01*
X362004Y246807D01*
X361692Y246183D01*
Y244620D01*
X360130D01*
Y247120D01*
D02*
D11*
X220604Y444226D02*
X190604D01*
Y434226D01*
X220604D01*
Y444226D01*
D02*
D80*
X38301Y98478D02*
Y103203D01*
X38636Y104581D02*
Y105368D01*
X50053D01*
Y104581D01*
X38636D01*
X39089Y136274D02*
Y140998D01*
Y173675D02*
Y178400D01*
Y211077D02*
Y215801D01*
X39423Y142376D02*
Y143163D01*
X50841D01*
Y142376D01*
X39423D01*
Y179778D02*
Y180565D01*
X50841D01*
Y179778D01*
X39423D01*
Y217179D02*
Y217967D01*
X50841D01*
Y217179D01*
X39423D01*
X41982Y293970D02*
X54482D01*
Y343380D01*
X29482D01*
Y298675D01*
X45919Y362356D02*
X53793D01*
Y367278D02*
X44049D01*
X57927Y386077D02*
Y401738D01*
X31943D01*
Y380417D01*
X45132D01*
X60880Y119541D02*
X67967D01*
X60880Y156943D02*
X67967D01*
X60880Y194344D02*
X67967D01*
X60880Y231746D02*
X67967D01*
X67179Y305171D02*
X66392D01*
Y316589D01*
X67179D01*
Y305171D01*
Y318951D02*
X66392D01*
Y330368D01*
X67179D01*
Y318951D01*
Y332730D02*
X66392D01*
Y344148D01*
X67179D01*
Y332730D01*
X67770Y398577D02*
X65388D01*
Y364128D01*
X67770D01*
X69344Y120132D02*
X83124D01*
Y94541D01*
X69344D01*
Y120132D01*
Y157533D02*
X83124D01*
Y131943D01*
X69344D01*
Y157533D01*
Y194935D02*
X83124D01*
Y169344D01*
X69344D01*
Y194935D01*
Y232337D02*
X83124D01*
Y206746D01*
X69344D01*
Y232337D01*
X73281Y304837D02*
X68557D01*
X73281Y318616D02*
X68557D01*
X73281Y332396D02*
X68557D01*
X85585Y95919D02*
Y86175D01*
Y133321D02*
Y123577D01*
Y170722D02*
Y160978D01*
Y208124D02*
Y198380D01*
X89423Y398577D02*
X91805D01*
Y364128D01*
X89423D01*
X90506Y88045D02*
Y95919D01*
Y125447D02*
Y133321D01*
Y162848D02*
Y170722D01*
Y200250D02*
Y208124D01*
X119797Y155171D02*
Y159896D01*
Y192573D02*
Y197297D01*
Y229974D02*
Y234699D01*
X120132Y161274D02*
Y162061D01*
X131549D01*
Y161274D01*
X120132D01*
Y198675D02*
Y199463D01*
X131549D01*
Y198675D01*
X120132D01*
Y236077D02*
Y236864D01*
X131549D01*
Y236077D01*
X120132D01*
X120191Y117770D02*
Y122494D01*
X120526Y123872D02*
Y124659D01*
X131943D01*
Y123872D01*
X120526D01*
X141982Y138833D02*
X149069D01*
X141982Y176234D02*
X149069D01*
X141982Y213636D02*
X149069D01*
X141982Y251037D02*
X149069D01*
X150447Y139423D02*
X164226D01*
Y113833D01*
X150447D01*
Y139423D01*
Y176825D02*
X164226D01*
Y151234D01*
X150447D01*
Y176825D01*
Y214226D02*
X164226D01*
Y188636D01*
X150447D01*
Y214226D01*
Y251628D02*
X164226D01*
Y226037D01*
X150447D01*
Y251628D01*
X157683Y61175D02*
Y40112D01*
X166687Y115211D02*
Y105467D01*
Y152612D02*
Y142868D01*
Y190014D02*
Y180270D01*
Y227415D02*
Y217671D01*
X171608Y107337D02*
Y115211D01*
Y144738D02*
Y152612D01*
Y182140D02*
Y190014D01*
Y219541D02*
Y227415D01*
X171951Y61175D02*
Y40112D01*
X174219Y61175D02*
Y40112D01*
X188486Y61175D02*
Y40112D01*
X190604Y379384D02*
Y344659D01*
X215604D01*
Y384069D01*
X203400D01*
X190754Y61175D02*
Y40112D01*
X193163Y90801D02*
X288163D01*
Y67967D01*
X188163D01*
Y79384D01*
X205022Y61175D02*
Y40112D01*
X207289Y61175D02*
Y40112D01*
X221557Y61175D02*
Y40112D01*
X223825Y61175D02*
Y40112D01*
X233183Y140604D02*
Y145329D01*
Y178006D02*
Y182730D01*
Y215014D02*
Y219738D01*
Y252022D02*
Y256746D01*
X233518Y146707D02*
Y147494D01*
X244935D01*
Y146707D01*
X233518D01*
Y184108D02*
Y184896D01*
X244935D01*
Y184108D01*
X233518D01*
Y221116D02*
Y221904D01*
X244935D01*
Y221116D01*
X233518D01*
Y258124D02*
Y258911D01*
X244935D01*
Y258124D01*
X233518D01*
X233577Y289030D02*
Y293754D01*
Y327219D02*
Y331943D01*
Y438636D02*
Y443360D01*
X233911Y295132D02*
Y295919D01*
X245329D01*
Y295132D01*
X233911D01*
Y333321D02*
Y334108D01*
X245329D01*
Y333321D01*
X233911D01*
Y444738D02*
Y445526D01*
X245329D01*
Y444738D01*
X233911D01*
X233970Y364620D02*
Y369344D01*
Y401628D02*
Y406352D01*
X234305Y370722D02*
Y371510D01*
X245722D01*
Y370722D01*
X234305D01*
Y407730D02*
Y408518D01*
X245722D01*
Y407730D01*
X234305D01*
X238093Y61175D02*
Y40112D01*
X240360Y61175D02*
Y40112D01*
X254628Y61175D02*
Y40112D01*
X255368Y161667D02*
X262455D01*
X255368Y199069D02*
X262455D01*
X255368Y236077D02*
X262455D01*
X255368Y273872D02*
X262455D01*
X255368Y311274D02*
X262455D01*
X255368Y348675D02*
X262455D01*
X255368Y386077D02*
X262455D01*
X255368Y423085D02*
X262455D01*
X255368Y460093D02*
X262455D01*
X256896Y61175D02*
Y40112D01*
X263833Y162258D02*
X277612D01*
Y136667D01*
X263833D01*
Y162258D01*
Y199659D02*
X277612D01*
Y174069D01*
X263833D01*
Y199659D01*
Y236667D02*
X277612D01*
Y211077D01*
X263833D01*
Y236667D01*
Y274463D02*
X277612D01*
Y248872D01*
X263833D01*
Y274463D01*
Y311864D02*
X277612D01*
Y286274D01*
X263833D01*
Y311864D01*
Y349266D02*
X277612D01*
Y323675D01*
X263833D01*
Y349266D01*
Y386667D02*
X277612D01*
Y361077D01*
X263833D01*
Y386667D01*
Y423675D02*
X277612D01*
Y398085D01*
X263833D01*
Y423675D01*
Y460683D02*
X277612D01*
Y435093D01*
X263833D01*
Y460683D01*
X271163Y61175D02*
Y40112D01*
X273431Y61175D02*
Y40112D01*
X280073Y138045D02*
Y128301D01*
Y175053D02*
Y165309D01*
Y212455D02*
Y202711D01*
Y249856D02*
Y240112D01*
Y287258D02*
Y277514D01*
Y324659D02*
Y314915D01*
Y362061D02*
Y352317D01*
Y399463D02*
Y389719D01*
Y436470D02*
Y426726D01*
X284994Y130171D02*
Y138045D01*
Y167179D02*
Y175053D01*
Y204581D02*
Y212455D01*
Y241982D02*
Y249856D01*
Y279384D02*
Y287258D01*
Y316785D02*
Y324659D01*
Y354187D02*
Y362061D01*
Y391589D02*
Y399463D01*
Y428596D02*
Y436470D01*
X287699Y61175D02*
Y40112D01*
X289967Y61175D02*
Y40112D01*
X297396Y115998D02*
Y108124D01*
X302317D02*
Y117868D01*
X304234Y61175D02*
Y40112D01*
X308321Y169738D02*
Y183518D01*
X333911D01*
Y169738D01*
X308321D01*
X308911Y161274D02*
Y168360D01*
X313589Y209797D02*
Y230860D01*
X318557Y83911D02*
X304778D01*
Y109502D01*
X318557D01*
Y83911D01*
X323872Y139817D02*
X323085D01*
Y151234D01*
X323872D01*
Y139817D01*
X325447Y372691D02*
Y277691D01*
X302612D01*
Y377691D01*
X314030D01*
X327022Y84502D02*
X319935D01*
X327856Y209797D02*
Y230860D01*
X329974Y139482D02*
X325250D01*
X332533Y185978D02*
X342278D01*
X334600Y253746D02*
X355663D01*
X334600Y268014D02*
X355663D01*
X334600Y270281D02*
X355663D01*
X334600Y284549D02*
X355663D01*
X334600Y286817D02*
X355663D01*
X334600Y301085D02*
X355663D01*
X334600Y303352D02*
X355663D01*
X334600Y317620D02*
X355663D01*
X334600Y319888D02*
X355663D01*
X334600Y334156D02*
X355663D01*
X334600Y336423D02*
X355663D01*
X334600Y350691D02*
X355663D01*
X334600Y352959D02*
X355663D01*
X334600Y367226D02*
X355663D01*
X334600Y369888D02*
X355663D01*
X334600Y384156D02*
X355663D01*
X334600Y386423D02*
X355663D01*
X334600Y400691D02*
X355663D01*
X340407Y190900D02*
X332533D01*
X345132Y197514D02*
X357632D01*
Y246923D01*
X332632D01*
Y202219D01*
X348478Y99463D02*
Y98675D01*
X337061D01*
Y99463D01*
X348478D01*
X348813Y105565D02*
Y100841D01*
X0Y0D02*
M02*
