G04 DesignSpark PCB PRO Gerber Version 10.0 Build 5299*
G04 #@! TF.Part,Single*
G04 #@! TF.FileFunction,Soldermask,Bot*
G04 #@! TF.FilePolarity,Negative*
%FSLAX35Y35*%
%MOIN*%
G04 #@! TA.AperFunction,ComponentPad*
%ADD73R,0.06600X0.06600*%
%ADD77R,0.06801X0.06801*%
%ADD27R,0.07096X0.07096*%
%ADD75R,0.07293X0.07293*%
%ADD29R,0.09163X0.09163*%
G04 #@! TA.AperFunction,ViaPad*
%ADD25C,0.05400*%
%ADD26C,0.06200*%
G04 #@! TA.AperFunction,ComponentPad*
%ADD74C,0.06600*%
%ADD78C,0.06801*%
%ADD28C,0.07096*%
%ADD76C,0.07293*%
%ADD72C,0.09163*%
G04 #@! TA.AperFunction,WasherPad*
%ADD104C,0.16348*%
G04 #@! TD.AperFunction*
X0Y0D02*
D02*
D25*
X62061Y200644D03*
X62455Y163242D03*
X63242Y125447D03*
X82140Y293207D03*
X84108Y345919D03*
X85289Y77022D03*
X85683Y314423D03*
X88439Y330171D03*
X92770Y315604D03*
X106156Y91982D03*
Y99069D03*
X106549Y105368D03*
X119148D03*
X127022Y99069D03*
X142770Y107730D03*
X143163Y144738D03*
Y182533D03*
X143557Y219935D03*
X160486Y99463D03*
X167376Y424463D03*
X181352Y120329D03*
Y134502D03*
X188833Y113636D03*
Y134502D03*
X195919Y107337D03*
Y134502D03*
X205368Y419935D03*
X211274Y338439D03*
X221116Y146313D03*
X227022Y424463D03*
X249463Y428990D03*
X251037Y391982D03*
X255762Y279778D03*
X256156Y204581D03*
X256549Y167179D03*
Y242376D03*
X256943Y317179D03*
X257337Y354581D03*
X258518Y132140D03*
X269935Y252612D03*
Y290014D03*
Y327415D03*
Y364817D03*
Y401825D03*
Y438439D03*
X270329Y140407D03*
Y177809D03*
Y214817D03*
X309699Y253006D03*
X339226Y117573D03*
X346707Y173915D03*
D02*
D26*
X77415Y98281D03*
Y135683D03*
Y173085D03*
Y210486D03*
X78596Y353793D03*
X151825Y41982D03*
X157337Y117573D03*
Y154974D03*
Y192376D03*
Y229778D03*
X215604Y449463D03*
X310880Y105762D03*
X311274Y41982D03*
X320722Y241982D03*
X330171Y174659D03*
X345526Y403793D03*
D02*
D27*
X41982Y298675D03*
X193163Y79384D03*
X314030Y372691D03*
X345132Y202219D03*
D02*
D28*
X41982Y308675D03*
Y318675D03*
Y328675D03*
Y338675D03*
X203163Y79384D03*
X213163D03*
X223163D03*
X233163D03*
X243163D03*
X253163D03*
X263163D03*
X273163D03*
X283163D03*
X314030Y282691D03*
Y292691D03*
Y302691D03*
Y312691D03*
Y322691D03*
Y332691D03*
Y342691D03*
Y352691D03*
Y362691D03*
X345132Y212219D03*
Y222219D03*
Y232219D03*
Y242219D03*
D02*
D29*
X45132Y386077D03*
D02*
D72*
Y396077D03*
D02*
D73*
X215604Y439226D03*
D02*
D74*
X195604D03*
X205604D03*
D02*
D75*
X109699Y449463D03*
D02*
D76*
Y259463D03*
Y269463D03*
Y279463D03*
Y289463D03*
Y299463D03*
Y309463D03*
Y319463D03*
Y329463D03*
Y339463D03*
Y349463D03*
Y359463D03*
Y369463D03*
Y379463D03*
Y389463D03*
Y399463D03*
Y409463D03*
Y419463D03*
Y429463D03*
Y439463D03*
X179699Y259463D03*
Y269463D03*
Y279463D03*
Y289463D03*
Y299463D03*
Y309463D03*
Y319463D03*
Y329463D03*
Y339463D03*
Y349463D03*
Y359463D03*
Y369463D03*
Y379463D03*
Y389463D03*
Y399463D03*
Y409463D03*
Y419463D03*
Y429463D03*
Y439463D03*
Y449463D03*
D02*
D77*
X203400Y379384D03*
D02*
D78*
Y349384D03*
Y359384D03*
Y369384D03*
D02*
D104*
X59502Y246904D03*
X138242Y69738D03*
Y424069D03*
X335093Y69738D03*
Y424069D03*
X0Y0D02*
M02*
