G05
M48
;#@! TF.GenerationSoftware,DesignSpark,DesignSpark PCB PRO,10.0.5344
;#@! TF.CreationDate,2022-09-07T08:50:05+00:00*
;#@! TF.FileFunction,Plated,1,2,PTH
;FILE_FORMAT=3:5
;TYPE=PLATED
INCH,TZ
FMAT,2
T1C000.02400
T2C000.03200
T3C000.03500
T4C000.03937
T5C000.04134
T6C000.04331
T7C000.05709
%
T001
X0.62061Y2.00644
X0.62455Y1.63242
X0.63242Y1.25447
X0.82140Y2.93207
X0.84108Y3.45919
X0.85289Y0.77022
X0.85683Y3.14423
X0.88439Y3.30171
X0.92770Y3.15604
X1.06156Y0.91982
X1.06156Y0.99069
X1.06549Y1.05368
X1.19148Y1.05368
X1.27022Y0.99069
X1.42770Y1.07730
X1.43163Y1.44738
X1.43163Y1.82533
X1.43557Y2.19935
X1.60486Y0.99463
X1.67376Y4.24463
X1.81352Y1.20329
X1.81352Y1.34502
X1.88833Y1.13636
X1.88833Y1.34502
X1.95919Y1.07337
X1.95919Y1.34502
X2.05368Y4.19935
X2.11274Y3.38439
X2.21116Y1.46313
X2.27022Y4.24463
X2.49463Y4.28990
X2.51037Y3.91982
X2.55762Y2.79778
X2.56156Y2.04581
X2.56549Y1.67179
X2.56549Y2.42376
X2.56943Y3.17179
X2.57337Y3.54581
X2.58518Y1.32140
X2.69935Y2.52612
X2.69935Y2.90014
X2.69935Y3.27415
X2.69935Y3.64817
X2.69935Y4.01825
X2.69935Y4.38439
X2.70329Y1.40407
X2.70329Y1.77809
X2.70329Y2.14817
X3.09699Y2.53006
X3.39226Y1.17573
X3.46707Y1.73915
T002
X0.77415Y0.98281
X0.77415Y1.35683
X0.77415Y1.73085
X0.77415Y2.10486
X0.78596Y3.53793
X1.51825Y0.41982
X1.57337Y1.17573
X1.57337Y1.54974
X1.57337Y1.92376
X1.57337Y2.29778
X2.15604Y4.49463
X3.10880Y1.05762
X3.11274Y0.41982
X3.20722Y2.41982
X3.30171Y1.74659
X3.45526Y4.03793
T003
X1.95604Y4.39226
X2.05604Y4.39226
X2.15604Y4.39226
T004
X1.09699Y2.59463
X1.09699Y2.69463
X1.09699Y2.79463
X1.09699Y2.89463
X1.09699Y2.99463
X1.09699Y3.09463
X1.09699Y3.19463
X1.09699Y3.29463
X1.09699Y3.39463
X1.09699Y3.49463
X1.09699Y3.59463
X1.09699Y3.69463
X1.09699Y3.79463
X1.09699Y3.89463
X1.09699Y3.99463
X1.09699Y4.09463
X1.09699Y4.19463
X1.09699Y4.29463
X1.09699Y4.39463
X1.09699Y4.49463
X1.79699Y2.59463
X1.79699Y2.69463
X1.79699Y2.79463
X1.79699Y2.89463
X1.79699Y2.99463
X1.79699Y3.09463
X1.79699Y3.19463
X1.79699Y3.29463
X1.79699Y3.39463
X1.79699Y3.49463
X1.79699Y3.59463
X1.79699Y3.69463
X1.79699Y3.79463
X1.79699Y3.89463
X1.79699Y3.99463
X1.79699Y4.09463
X1.79699Y4.19463
X1.79699Y4.29463
X1.79699Y4.39463
X1.79699Y4.49463
T005
X2.03400Y3.49384
X2.03400Y3.59384
X2.03400Y3.69384
X2.03400Y3.79384
T006
X0.41982Y2.98675
X0.41982Y3.08675
X0.41982Y3.18675
X0.41982Y3.28675
X0.41982Y3.38675
X1.93163Y0.79384
X2.03163Y0.79384
X2.13163Y0.79384
X2.23163Y0.79384
X2.33163Y0.79384
X2.43163Y0.79384
X2.53163Y0.79384
X2.63163Y0.79384
X2.73163Y0.79384
X2.83163Y0.79384
X3.14030Y2.82691
X3.14030Y2.92691
X3.14030Y3.02691
X3.14030Y3.12691
X3.14030Y3.22691
X3.14030Y3.32691
X3.14030Y3.42691
X3.14030Y3.52691
X3.14030Y3.62691
X3.14030Y3.72691
X3.45132Y2.02219
X3.45132Y2.12219
X3.45132Y2.22219
X3.45132Y2.32219
X3.45132Y2.42219
T007
X0.45132Y3.86077
X0.45132Y3.96077
M30
