G04 DesignSpark PCB PRO Gerber Version 10.0 Build 5299*
G04 #@! TF.Part,Single*
G04 #@! TF.FileFunction,Soldermask,Top*
G04 #@! TF.FilePolarity,Negative*
%FSLAX35Y35*%
%MOIN*%
G04 #@! TA.AperFunction,SMDPad,CuDef*
%ADD150R,0.03559X0.05724*%
%ADD154R,0.04543X0.08087*%
%ADD99R,0.05724X0.03559*%
%ADD151R,0.08087X0.04543*%
%ADD100R,0.04937X0.05291*%
%ADD153R,0.05134X0.05724*%
%ADD168R,0.06500X0.07000*%
%ADD152R,0.08087X0.13598*%
%ADD101R,0.05291X0.04937*%
%ADD156R,0.05724X0.05134*%
%ADD155R,0.13598X0.08087*%
%ADD163R,0.09465X0.09661*%
%ADD162R,0.09661X0.09465*%
%ADD157R,0.19110X0.10055*%
G04 #@! TA.AperFunction,ComponentPad*
%ADD160R,0.07000X0.07000*%
%ADD166R,0.07201X0.07201*%
%ADD102R,0.07496X0.07496*%
%ADD164R,0.07693X0.07693*%
%ADD158R,0.09563X0.09563*%
%ADD161C,0.07000*%
%ADD167C,0.07201*%
%ADD103C,0.07496*%
%ADD165C,0.07693*%
%ADD159C,0.09563*%
G04 #@! TA.AperFunction,WasherPad*
%ADD98C,0.16748*%
G04 #@! TD.AperFunction*
X0Y0D02*
D02*
D98*
X59502Y246904D03*
X138242Y69738D03*
Y424069D03*
X335093Y69738D03*
Y424069D03*
D02*
D99*
X62652Y310880D03*
Y324659D03*
Y338439D03*
X70919Y307100D03*
Y314659D03*
Y320880D03*
Y328439D03*
Y334659D03*
Y342219D03*
X319344Y145526D03*
X327612Y141746D03*
Y149305D03*
D02*
D100*
X55368Y102656D03*
Y109656D03*
X55762Y140451D03*
Y147451D03*
Y177852D03*
Y184852D03*
Y215254D03*
Y222254D03*
X62061Y293207D03*
Y300207D03*
X68754Y293207D03*
Y300207D03*
X78203Y307380D03*
Y314380D03*
Y321159D03*
Y328159D03*
Y334939D03*
Y341939D03*
X136864Y121947D03*
Y128947D03*
Y159348D03*
Y166348D03*
Y196750D03*
Y203750D03*
Y234152D03*
Y241152D03*
X228990Y142419D03*
Y149419D03*
X249856Y144781D03*
Y151781D03*
Y182183D03*
Y189183D03*
Y256199D03*
Y263199D03*
X250250Y219191D03*
Y226191D03*
Y293207D03*
Y300207D03*
Y331396D03*
Y338396D03*
Y368797D03*
Y375797D03*
Y442813D03*
Y449813D03*
X250644Y405805D03*
Y412805D03*
X312061Y149506D03*
Y156506D03*
X332140Y94388D03*
Y101388D03*
X334502Y142419D03*
Y149419D03*
X340014Y173915D03*
Y180915D03*
D02*
D101*
X32183Y364817D03*
X39183D03*
X40844Y94344D03*
X41632Y131746D03*
Y169148D03*
Y206549D03*
X47844Y94344D03*
X48325Y116392D03*
X48632Y131746D03*
Y169148D03*
Y206549D03*
X48719Y153793D03*
Y191195D03*
Y228596D03*
X55325Y116392D03*
X55719Y153793D03*
Y191195D03*
Y228596D03*
X62104Y286470D03*
X69104D03*
X73522Y88439D03*
Y125841D03*
X73915Y163242D03*
Y200644D03*
X80522Y88439D03*
Y125841D03*
X80915Y163242D03*
Y200644D03*
X122341Y150644D03*
Y188045D03*
Y225447D03*
X122734Y113242D03*
X129341Y150644D03*
Y188045D03*
Y225447D03*
X129734Y113242D03*
X129821Y135683D03*
Y173085D03*
Y210486D03*
Y247888D03*
X136821Y135683D03*
Y173085D03*
Y210486D03*
Y247888D03*
X154624Y107730D03*
Y144738D03*
Y182533D03*
Y219935D03*
X161624Y107730D03*
Y144738D03*
Y182533D03*
Y219935D03*
X235726Y173478D03*
Y210486D03*
Y247494D03*
X236120Y284502D03*
Y322691D03*
Y434108D03*
X236514Y360093D03*
Y397100D03*
X242726Y173478D03*
Y210486D03*
Y247494D03*
X242813Y158518D03*
Y195919D03*
Y270722D03*
X243120Y284502D03*
Y322691D03*
Y434108D03*
X243207Y232927D03*
Y308124D03*
X243514Y360093D03*
Y397100D03*
X243600Y345526D03*
Y382927D03*
Y419935D03*
Y456943D03*
X249813Y158518D03*
Y195919D03*
Y270722D03*
X250207Y232927D03*
Y308124D03*
X250600Y345526D03*
Y382927D03*
Y419935D03*
Y456943D03*
X268010Y130565D03*
Y167573D03*
Y204974D03*
X268404Y242376D03*
Y279778D03*
Y317179D03*
Y354581D03*
Y391982D03*
Y428990D03*
X275010Y130565D03*
Y167573D03*
Y204974D03*
X275404Y242376D03*
Y279778D03*
Y317179D03*
Y354581D03*
Y391982D03*
Y428990D03*
X307380Y115604D03*
X314380D03*
X318797Y156156D03*
X325797D03*
X332183Y87652D03*
X339183D03*
X339270Y110486D03*
X346270D03*
D02*
D102*
X41982Y298675D03*
X193163Y79384D03*
X314030Y372691D03*
X345132Y202219D03*
D02*
D103*
X41982Y308675D03*
Y318675D03*
Y328675D03*
Y338675D03*
X203163Y79384D03*
X213163D03*
X223163D03*
X233163D03*
X243163D03*
X253163D03*
X263163D03*
X273163D03*
X283163D03*
X314030Y282691D03*
Y292691D03*
Y302691D03*
Y312691D03*
Y322691D03*
Y332691D03*
Y342691D03*
Y352691D03*
Y362691D03*
X345132Y212219D03*
Y222219D03*
Y232219D03*
Y242219D03*
D02*
D150*
X40565Y100841D03*
X41352Y138636D03*
Y176037D03*
Y213439D03*
X44344Y109108D03*
X45132Y146904D03*
Y184305D03*
Y221707D03*
X48124Y100841D03*
X48911Y138636D03*
Y176037D03*
Y213439D03*
X122061Y157533D03*
Y194935D03*
Y232337D03*
X122455Y120132D03*
X125841Y165801D03*
Y203203D03*
Y240604D03*
X126234Y128400D03*
X129620Y157533D03*
Y194935D03*
Y232337D03*
X130014Y120132D03*
X235447Y142967D03*
Y180368D03*
Y217376D03*
Y254384D03*
X235841Y291392D03*
Y329581D03*
Y440998D03*
X236234Y366982D03*
Y403990D03*
X239226Y151234D03*
Y188636D03*
Y225644D03*
Y262652D03*
X239620Y299659D03*
Y337848D03*
Y449266D03*
X240014Y375250D03*
Y412258D03*
X243006Y142967D03*
Y180368D03*
Y217376D03*
Y254384D03*
X243400Y291392D03*
Y329581D03*
Y440998D03*
X243793Y366982D03*
Y403990D03*
X338990Y103203D03*
X342770Y94935D03*
X346549Y103203D03*
D02*
D151*
X64423Y98281D03*
Y107337D03*
Y116392D03*
Y135683D03*
Y144738D03*
Y153793D03*
Y173085D03*
Y182140D03*
Y191195D03*
Y210486D03*
Y219541D03*
Y228596D03*
X145526Y117573D03*
Y126628D03*
Y135683D03*
Y154974D03*
Y164030D03*
Y173085D03*
Y192376D03*
Y201431D03*
Y210486D03*
Y229778D03*
Y238833D03*
Y247888D03*
X258911Y140407D03*
Y149463D03*
Y158518D03*
Y177809D03*
Y186864D03*
Y195919D03*
Y214817D03*
Y223872D03*
Y232927D03*
Y252612D03*
Y261667D03*
Y270722D03*
Y290014D03*
Y299069D03*
Y308124D03*
Y327415D03*
Y336470D03*
Y345526D03*
Y364817D03*
Y373872D03*
Y382927D03*
Y401825D03*
Y410880D03*
Y419935D03*
Y438833D03*
Y447888D03*
Y456943D03*
X323478Y87652D03*
Y96707D03*
Y105762D03*
D02*
D152*
X88045Y107337D03*
Y144738D03*
Y182140D03*
Y219541D03*
X169148Y126628D03*
Y164030D03*
Y201431D03*
Y238833D03*
X282533Y149463D03*
Y186864D03*
Y223872D03*
Y261667D03*
Y299069D03*
Y336470D03*
Y373872D03*
Y410880D03*
Y447888D03*
X299856Y96707D03*
D02*
D153*
X88045Y88242D03*
Y95722D03*
Y125644D03*
Y133124D03*
Y163045D03*
Y170526D03*
Y200447D03*
Y207927D03*
X169148Y107533D03*
Y115014D03*
Y144935D03*
Y152415D03*
Y182337D03*
Y189817D03*
Y219738D03*
Y227219D03*
X282533Y130368D03*
Y137848D03*
Y167376D03*
Y174856D03*
Y204778D03*
Y212258D03*
Y242179D03*
Y249659D03*
Y279581D03*
Y287061D03*
Y316982D03*
Y324463D03*
Y354384D03*
Y361864D03*
Y391785D03*
Y399266D03*
Y428793D03*
Y436274D03*
X299856Y108321D03*
Y115801D03*
D02*
D154*
X312061Y164817D03*
X321116D03*
X330171D03*
D02*
D155*
X321116Y188439D03*
D02*
D156*
X46116Y364817D03*
X53596D03*
X332730Y188439D03*
X340211D03*
D02*
D157*
X78596Y364817D03*
Y397888D03*
D02*
D158*
X45132Y386077D03*
D02*
D159*
Y396077D03*
D02*
D160*
X215604Y439226D03*
D02*
D161*
X195604D03*
X205604D03*
D02*
D162*
X336470Y260880D03*
Y277415D03*
Y293951D03*
Y310486D03*
Y327022D03*
Y343557D03*
Y360093D03*
Y377022D03*
Y393557D03*
X353793Y260880D03*
Y277415D03*
Y293951D03*
Y310486D03*
Y327022D03*
Y343557D03*
Y360093D03*
Y377022D03*
Y393557D03*
D02*
D163*
X164817Y41982D03*
Y59305D03*
X181352Y41982D03*
Y59305D03*
X197888Y41982D03*
Y59305D03*
X214423Y41982D03*
Y59305D03*
X230959Y41982D03*
Y59305D03*
X247494Y41982D03*
Y59305D03*
X264030Y41982D03*
Y59305D03*
X280565Y41982D03*
Y59305D03*
X297100Y41982D03*
Y59305D03*
X320722Y211667D03*
Y228990D03*
D02*
D164*
X109699Y449463D03*
D02*
D165*
Y259463D03*
Y269463D03*
Y279463D03*
Y289463D03*
Y299463D03*
Y309463D03*
Y319463D03*
Y329463D03*
Y339463D03*
Y349463D03*
Y359463D03*
Y369463D03*
Y379463D03*
Y389463D03*
Y399463D03*
Y409463D03*
Y419463D03*
Y429463D03*
Y439463D03*
X179699Y259463D03*
Y269463D03*
Y279463D03*
Y289463D03*
Y299463D03*
Y309463D03*
Y319463D03*
Y329463D03*
Y339463D03*
Y349463D03*
Y359463D03*
Y369463D03*
Y379463D03*
Y389463D03*
Y399463D03*
Y409463D03*
Y419463D03*
Y429463D03*
Y439463D03*
Y449463D03*
D02*
D166*
X203400Y379384D03*
D02*
D167*
Y349384D03*
Y359384D03*
Y369384D03*
D02*
D168*
X195526Y420159D03*
Y429159D03*
X215604Y420159D03*
Y429159D03*
X0Y0D02*
M02*
